solid OpenSCAD_Model
  facet normal -0.866025 0.5 0
    outer loop
      vertex 14.2224 -9.36602 1
      vertex 10.9798 -14.9824 1
      vertex 14.2224 -9.36602 7.48528
    endloop
  endfacet
  facet normal -0.866025 0.5 0
    outer loop
      vertex 18.4651 -2.01756 1
      vertex 15.2224 -7.63397 1
      vertex 15.2224 -7.63397 7.48528
    endloop
  endfacet
  facet normal -0.353553 -0.612372 0.707107
    outer loop
      vertex 14.2224 -9.36602 7.48528
      vertex 12.7118 -15.9824 1
      vertex 15.9545 -10.366 7.48528
    endloop
  endfacet
  facet normal -0.353553 -0.612372 0.707107
    outer loop
      vertex 12.7118 -15.9824 1
      vertex 14.2224 -9.36602 7.48528
      vertex 10.9798 -14.9824 1
    endloop
  endfacet
  facet normal 0.866025 -0.5 0
    outer loop
      vertex 15.9545 -10.366 7.48528
      vertex 12.7118 -15.9824 1
      vertex 15.9545 -10.366 1
    endloop
  endfacet
  facet normal 0.866025 -0.5 0
    outer loop
      vertex 16.9545 -8.63398 7.48528
      vertex 16.9545 -8.63398 1
      vertex 20.1971 -3.01756 1
    endloop
  endfacet
  facet normal 0.353554 0.612372 0.707107
    outer loop
      vertex 18.4651 -2.01756 1
      vertex 16.9545 -8.63398 7.48528
      vertex 20.1971 -3.01756 1
    endloop
  endfacet
  facet normal 0.353554 0.612372 0.707107
    outer loop
      vertex 16.9545 -8.63398 7.48528
      vertex 18.4651 -2.01756 1
      vertex 15.2224 -7.63397 7.48528
    endloop
  endfacet
  facet normal 0.866025 0.5 0
    outer loop
      vertex 21.0115 9.35494 1
      vertex 18.6074 13.5191 -1
      vertex 18.6074 13.5191 1
    endloop
  endfacet
  facet normal 0.866025 0.5 0
    outer loop
      vertex 18.6074 13.5191 -1
      vertex 21.0115 9.35494 1
      vertex 21.0115 9.35494 -1
    endloop
  endfacet
  facet normal 0.951057 0.309017 0
    outer loop
      vertex 22.4974 4.78197 1
      vertex 21.0115 9.35494 -1
      vertex 21.0115 9.35494 1
    endloop
  endfacet
  facet normal 0.951057 0.309017 0
    outer loop
      vertex 21.0115 9.35494 -1
      vertex 22.4974 4.78197 1
      vertex 22.4974 4.78197 -1
    endloop
  endfacet
  facet normal 0.406737 0.913546 -0
    outer loop
      vertex 11.5 19.9186 -1
      vertex 7.10739 21.8743 1
      vertex 11.5 19.9186 1
    endloop
  endfacet
  facet normal 0.406737 0.913546 0
    outer loop
      vertex 7.10739 21.8743 1
      vertex 11.5 19.9186 -1
      vertex 7.10739 21.8743 -1
    endloop
  endfacet
  facet normal -0.406737 0.913545 0
    outer loop
      vertex -7.10739 21.8743 -1
      vertex -11.5 19.9186 1
      vertex -7.10739 21.8743 1
    endloop
  endfacet
  facet normal -0.406737 0.913545 0
    outer loop
      vertex -11.5 19.9186 1
      vertex -7.10739 21.8743 -1
      vertex -11.5 19.9186 -1
    endloop
  endfacet
  facet normal -0.866025 0.5 0
    outer loop
      vertex -21.0115 9.35494 -1
      vertex -18.6074 13.5191 1
      vertex -18.6074 13.5191 -1
    endloop
  endfacet
  facet normal -0.866025 0.5 0
    outer loop
      vertex -18.6074 13.5191 1
      vertex -21.0115 9.35494 -1
      vertex -21.0115 9.35494 1
    endloop
  endfacet
  facet normal -0.587785 0.809017 0
    outer loop
      vertex -11.5 19.9186 -1
      vertex -15.39 17.0923 1
      vertex -11.5 19.9186 1
    endloop
  endfacet
  facet normal -0.587785 0.809017 0
    outer loop
      vertex -15.39 17.0923 1
      vertex -11.5 19.9186 -1
      vertex -15.39 17.0923 -1
    endloop
  endfacet
  facet normal 0.994522 -0.104529 0
    outer loop
      vertex 22.4974 -4.78197 1
      vertex 23 0 -1
      vertex 23 0 1
    endloop
  endfacet
  facet normal 0.994522 -0.104529 0
    outer loop
      vertex 23 0 -1
      vertex 22.4974 -4.78197 1
      vertex 22.4974 -4.78197 -1
    endloop
  endfacet
  facet normal 0.207912 -0.978147 0
    outer loop
      vertex 2.40415 -22.874 -1
      vertex 7.10739 -21.8743 1
      vertex 2.40415 -22.874 1
    endloop
  endfacet
  facet normal 0.207912 -0.978147 0
    outer loop
      vertex 7.10739 -21.8743 1
      vertex 2.40415 -22.874 -1
      vertex 7.10739 -21.8743 -1
    endloop
  endfacet
  facet normal 0.743145 0.669131 0
    outer loop
      vertex 18.6074 13.5191 1
      vertex 15.39 17.0923 -1
      vertex 15.39 17.0923 1
    endloop
  endfacet
  facet normal 0.743145 0.669131 0
    outer loop
      vertex 15.39 17.0923 -1
      vertex 18.6074 13.5191 1
      vertex 18.6074 13.5191 -1
    endloop
  endfacet
  facet normal 0 1 -0
    outer loop
      vertex 2.40415 22.874 -1
      vertex -2.40415 22.874 1
      vertex 2.40415 22.874 1
    endloop
  endfacet
  facet normal 0 1 0
    outer loop
      vertex -2.40415 22.874 1
      vertex 2.40415 22.874 -1
      vertex -2.40415 22.874 -1
    endloop
  endfacet
  facet normal 0.587785 0.809017 -0
    outer loop
      vertex 15.39 17.0923 -1
      vertex 11.5 19.9186 1
      vertex 15.39 17.0923 1
    endloop
  endfacet
  facet normal 0.587785 0.809017 0
    outer loop
      vertex 11.5 19.9186 1
      vertex 15.39 17.0923 -1
      vertex 11.5 19.9186 -1
    endloop
  endfacet
  facet normal -0.994522 0.104529 0
    outer loop
      vertex -23 0 -1
      vertex -22.4974 4.78197 1
      vertex -22.4974 4.78197 -1
    endloop
  endfacet
  facet normal -0.994522 0.104529 0
    outer loop
      vertex -22.4974 4.78197 1
      vertex -23 0 -1
      vertex -23 0 1
    endloop
  endfacet
  facet normal -0.743145 0.669131 0
    outer loop
      vertex -18.6074 13.5191 -1
      vertex -15.39 17.0923 1
      vertex -15.39 17.0923 -1
    endloop
  endfacet
  facet normal -0.743145 0.669131 0
    outer loop
      vertex -15.39 17.0923 1
      vertex -18.6074 13.5191 -1
      vertex -18.6074 13.5191 1
    endloop
  endfacet
  facet normal -0.207912 0.978147 0
    outer loop
      vertex -2.40415 22.874 -1
      vertex -7.10739 21.8743 1
      vertex -2.40415 22.874 1
    endloop
  endfacet
  facet normal -0.207912 0.978147 0
    outer loop
      vertex -7.10739 21.8743 1
      vertex -2.40415 22.874 -1
      vertex -7.10739 21.8743 -1
    endloop
  endfacet
  facet normal 0.994522 0.104529 0
    outer loop
      vertex 23 0 1
      vertex 22.4974 4.78197 -1
      vertex 22.4974 4.78197 1
    endloop
  endfacet
  facet normal 0.994522 0.104529 0
    outer loop
      vertex 22.4974 4.78197 -1
      vertex 23 0 1
      vertex 23 0 -1
    endloop
  endfacet
  facet normal -0.587785 -0.809017 0
    outer loop
      vertex -15.39 -17.0923 -1
      vertex -11.5 -19.9186 1
      vertex -15.39 -17.0923 1
    endloop
  endfacet
  facet normal -0.587785 -0.809017 -0
    outer loop
      vertex -11.5 -19.9186 1
      vertex -15.39 -17.0923 -1
      vertex -11.5 -19.9186 -1
    endloop
  endfacet
  facet normal -0.866025 -0.5 0
    outer loop
      vertex -18.6074 -13.5191 -1
      vertex -21.0115 -9.35494 1
      vertex -21.0115 -9.35494 -1
    endloop
  endfacet
  facet normal -0.866025 -0.5 0
    outer loop
      vertex -21.0115 -9.35494 1
      vertex -18.6074 -13.5191 -1
      vertex -18.6074 -13.5191 1
    endloop
  endfacet
  facet normal 0.587785 -0.809017 0
    outer loop
      vertex 11.5 -19.9186 -1
      vertex 15.39 -17.0923 1
      vertex 11.5 -19.9186 1
    endloop
  endfacet
  facet normal 0.587785 -0.809017 0
    outer loop
      vertex 15.39 -17.0923 1
      vertex 11.5 -19.9186 -1
      vertex 15.39 -17.0923 -1
    endloop
  endfacet
  facet normal 0.207912 0.978147 -0
    outer loop
      vertex 7.10739 21.8743 -1
      vertex 2.40415 22.874 1
      vertex 7.10739 21.8743 1
    endloop
  endfacet
  facet normal 0.207912 0.978147 0
    outer loop
      vertex 2.40415 22.874 1
      vertex 7.10739 21.8743 -1
      vertex 2.40415 22.874 -1
    endloop
  endfacet
  facet normal 0 0 1
    outer loop
      vertex 18.4651 -2.01756 1
      vertex 14.6722 -3.11868 1
      vertex 15.2224 -7.63397 1
    endloop
  endfacet
  facet normal -0 0 1
    outer loop
      vertex 13.7032 -6.10105 1
      vertex 15.2224 -7.63397 1
      vertex 14.6722 -3.11868 1
    endloop
  endfacet
  facet normal 0 0 1
    outer loop
      vertex 13.7032 -6.10105 1
      vertex 13.4904 -6.63397 1
      vertex 15.2224 -7.63397 1
    endloop
  endfacet
  facet normal 0 0 1
    outer loop
      vertex 13.7032 -6.10105 1
      vertex 12.4904 -8.36602 1
      vertex 13.4904 -6.63397 1
    endloop
  endfacet
  facet normal 0 -0 1
    outer loop
      vertex 12.4904 -8.36602 1
      vertex 13.7032 -6.10105 1
      vertex 12.1353 -8.81678 1
    endloop
  endfacet
  facet normal -0 0 1
    outer loop
      vertex 12.1353 -8.81678 1
      vertex 14.2224 -9.36602 1
      vertex 12.4904 -8.36602 1
    endloop
  endfacet
  facet normal 0 0 1
    outer loop
      vertex 10.037 -11.1472 1
      vertex 14.2224 -9.36602 1
      vertex 12.1353 -8.81678 1
    endloop
  endfacet
  facet normal 0 0 1
    outer loop
      vertex 14.2224 -9.36602 1
      vertex 10.037 -11.1472 1
      vertex 10.9798 -14.9824 1
    endloop
  endfacet
  facet normal 0 0 1
    outer loop
      vertex 15.9545 -10.366 1
      vertex 18.6074 -13.5191 1
      vertex 19.3095 -12.303 1
    endloop
  endfacet
  facet normal 0 0 1
    outer loop
      vertex 15.9545 -10.366 1
      vertex 15.39 -17.0923 1
      vertex 18.6074 -13.5191 1
    endloop
  endfacet
  facet normal -0 0 1
    outer loop
      vertex 12.7118 -15.9824 1
      vertex 15.39 -17.0923 1
      vertex 15.9545 -10.366 1
    endloop
  endfacet
  facet normal 0 0 1
    outer loop
      vertex 12.7118 -15.9824 1
      vertex 11.5 -19.9186 1
      vertex 15.39 -17.0923 1
    endloop
  endfacet
  facet normal 0 0 1
    outer loop
      vertex 10.9798 -14.9824 1
      vertex 11.5 -19.9186 1
      vertex 12.7118 -15.9824 1
    endloop
  endfacet
  facet normal -0 0 1
    outer loop
      vertex 7.5 -12.9904 1
      vertex 10.9798 -14.9824 1
      vertex 10.037 -11.1472 1
    endloop
  endfacet
  facet normal -0 0 1
    outer loop
      vertex 4.63525 -14.2658 1
      vertex 10.9798 -14.9824 1
      vertex 7.5 -12.9904 1
    endloop
  endfacet
  facet normal 0 0 1
    outer loop
      vertex 10.9798 -14.9824 1
      vertex 7.10739 -21.8743 1
      vertex 11.5 -19.9186 1
    endloop
  endfacet
  facet normal 0 0 1
    outer loop
      vertex 10.9798 -14.9824 1
      vertex 4.63525 -14.2658 1
      vertex 7.10739 -21.8743 1
    endloop
  endfacet
  facet normal 0 0 1
    outer loop
      vertex 4.63525 -14.2658 1
      vertex 2.40415 -22.874 1
      vertex 7.10739 -21.8743 1
    endloop
  endfacet
  facet normal -0 0 1
    outer loop
      vertex 1.56793 -14.9178 1
      vertex 2.40415 -22.874 1
      vertex 4.63525 -14.2658 1
    endloop
  endfacet
  facet normal -0 0 1
    outer loop
      vertex -1.56793 -14.9178 1
      vertex 2.40415 -22.874 1
      vertex 1.56793 -14.9178 1
    endloop
  endfacet
  facet normal 0 0 1
    outer loop
      vertex -1.56793 -14.9178 1
      vertex -2.40415 -22.874 1
      vertex 2.40415 -22.874 1
    endloop
  endfacet
  facet normal 0 0 1
    outer loop
      vertex -4.63525 -14.2658 1
      vertex -2.40415 -22.874 1
      vertex -1.56793 -14.9178 1
    endloop
  endfacet
  facet normal 0 0 1
    outer loop
      vertex -4.63525 -14.2658 1
      vertex -7.10739 -21.8743 1
      vertex -2.40415 -22.874 1
    endloop
  endfacet
  facet normal 0 0 1
    outer loop
      vertex -7.5 -12.9904 1
      vertex -7.10739 -21.8743 1
      vertex -4.63525 -14.2658 1
    endloop
  endfacet
  facet normal 0 0 1
    outer loop
      vertex -11.5 -19.9186 1
      vertex -7.5 -12.9904 1
      vertex -10.037 -11.1472 1
    endloop
  endfacet
  facet normal 0 0 1
    outer loop
      vertex -7.5 -12.9904 1
      vertex -11.5 -19.9186 1
      vertex -7.10739 -21.8743 1
    endloop
  endfacet
  facet normal -0 0 1
    outer loop
      vertex -14.7 -11 1
      vertex -10.037 -11.1472 1
      vertex -12.1353 -8.81678 1
    endloop
  endfacet
  facet normal 0 0 1
    outer loop
      vertex -15.6 -9.44115 1
      vertex -12.1353 -8.81678 1
      vertex -13.7032 -6.10105 1
    endloop
  endfacet
  facet normal 0 0 1
    outer loop
      vertex -17.4 -9.44115 1
      vertex -13.7032 -6.10105 1
      vertex -14.6722 -3.11868 1
    endloop
  endfacet
  facet normal 0 0 1
    outer loop
      vertex -15.6 -12.5588 1
      vertex -10.037 -11.1472 1
      vertex -14.7 -11 1
    endloop
  endfacet
  facet normal 0 -0 1
    outer loop
      vertex -15.39 -17.0923 1
      vertex -10.037 -11.1472 1
      vertex -15.6 -12.5588 1
    endloop
  endfacet
  facet normal 0 0 1
    outer loop
      vertex -10.037 -11.1472 1
      vertex -15.39 -17.0923 1
      vertex -11.5 -19.9186 1
    endloop
  endfacet
  facet normal -0 0 1
    outer loop
      vertex -17.4 -12.5588 1
      vertex -15.39 -17.0923 1
      vertex -15.6 -12.5588 1
    endloop
  endfacet
  facet normal 0 0 1
    outer loop
      vertex -18.6074 -13.5191 1
      vertex -17.4 -12.5588 1
      vertex -18.3 -11 1
    endloop
  endfacet
  facet normal 0 0 1
    outer loop
      vertex -17.4 -12.5588 1
      vertex -18.6074 -13.5191 1
      vertex -15.39 -17.0923 1
    endloop
  endfacet
  facet normal 0 0 1
    outer loop
      vertex -15 0 1
      vertex -23 0 1
      vertex -14.6722 -3.11868 1
    endloop
  endfacet
  facet normal 0 -0 1
    outer loop
      vertex -22.4974 -4.78197 1
      vertex -14.6722 -3.11868 1
      vertex -23 0 1
    endloop
  endfacet
  facet normal 0 0 1
    outer loop
      vertex -18.3 -11 1
      vertex -21.0115 -9.35494 1
      vertex -18.6074 -13.5191 1
    endloop
  endfacet
  facet normal 0 0 1
    outer loop
      vertex -14.6722 -3.11868 1
      vertex -22.4974 -4.78197 1
      vertex -17.4 -9.44115 1
    endloop
  endfacet
  facet normal 0 0 1
    outer loop
      vertex -17.4 -9.44115 1
      vertex -21.0115 -9.35494 1
      vertex -18.3 -11 1
    endloop
  endfacet
  facet normal -0 -0 1
    outer loop
      vertex -21.0115 -9.35494 1
      vertex -17.4 -9.44115 1
      vertex -22.4974 -4.78197 1
    endloop
  endfacet
  facet normal 0 0 1
    outer loop
      vertex -23 0 1
      vertex -15 0 1
      vertex -22.4974 4.78197 1
    endloop
  endfacet
  facet normal 0 0 1
    outer loop
      vertex -22.4974 4.78197 1
      vertex -17.4 9.44115 1
      vertex -21.0115 9.35494 1
    endloop
  endfacet
  facet normal 0 0 1
    outer loop
      vertex -12.1353 -8.81678 1
      vertex -15.6 -9.44115 1
      vertex -14.7 -11 1
    endloop
  endfacet
  facet normal 0 0 1
    outer loop
      vertex -17.4 9.44115 1
      vertex -22.4974 4.78197 1
      vertex -14.6722 3.11868 1
    endloop
  endfacet
  facet normal 0 0 1
    outer loop
      vertex -13.7032 -6.10105 1
      vertex -17.4 -9.44115 1
      vertex -15.6 -9.44115 1
    endloop
  endfacet
  facet normal 0 0 1
    outer loop
      vertex -21.0115 9.35494 1
      vertex -17.4 9.44115 1
      vertex -18.3 11 1
    endloop
  endfacet
  facet normal 0 0 1
    outer loop
      vertex -14.6722 3.11868 1
      vertex -22.4974 4.78197 1
      vertex -15 0 1
    endloop
  endfacet
  facet normal -0 0 1
    outer loop
      vertex -17.4 9.44115 1
      vertex -13.7032 6.10105 1
      vertex -15.6 9.44115 1
    endloop
  endfacet
  facet normal 0 0 1
    outer loop
      vertex -13.7032 6.10105 1
      vertex -17.4 9.44115 1
      vertex -14.6722 3.11868 1
    endloop
  endfacet
  facet normal 0 0 1
    outer loop
      vertex 18.4651 -2.01756 1
      vertex 23 0 1
      vertex 22.4974 4.78197 1
    endloop
  endfacet
  facet normal 0 0 1
    outer loop
      vertex 18.4 9.44115 1
      vertex 22.4974 4.78197 1
      vertex 21.0115 9.35494 1
    endloop
  endfacet
  facet normal 0 0 1
    outer loop
      vertex 23 0 1
      vertex 20.1971 -3.01756 1
      vertex 22.4974 -4.78197 1
    endloop
  endfacet
  facet normal 0 0 1
    outer loop
      vertex 22.4974 -4.78197 1
      vertex 20.1971 -3.01756 1
      vertex 21.0115 -9.35494 1
    endloop
  endfacet
  facet normal -0 0 1
    outer loop
      vertex 16.9545 -8.63398 1
      vertex 21.0115 -9.35494 1
      vertex 20.1971 -3.01756 1
    endloop
  endfacet
  facet normal -0 0 1
    outer loop
      vertex 18.4 9.44115 1
      vertex 21.0115 9.35494 1
      vertex 19.3 11 1
    endloop
  endfacet
  facet normal 0 0 1
    outer loop
      vertex 18.6074 13.5191 1
      vertex 19.3 11 1
      vertex 21.0115 9.35494 1
    endloop
  endfacet
  facet normal 0 0 1
    outer loop
      vertex 18.6074 13.5191 1
      vertex 18.4 12.5588 1
      vertex 19.3 11 1
    endloop
  endfacet
  facet normal 0 0 1
    outer loop
      vertex 18.6074 13.5191 1
      vertex 16.6 12.5588 1
      vertex 18.4 12.5588 1
    endloop
  endfacet
  facet normal 0 0 1
    outer loop
      vertex 10.037 11.1472 1
      vertex 16.6 12.5588 1
      vertex 15.39 17.0923 1
    endloop
  endfacet
  facet normal 0 0 1
    outer loop
      vertex 15.39 17.0923 1
      vertex 16.6 12.5588 1
      vertex 18.6074 13.5191 1
    endloop
  endfacet
  facet normal 0 0 1
    outer loop
      vertex 21.0115 -9.35494 1
      vertex 16.9545 -8.63398 1
      vertex 20.3095 -10.571 1
    endloop
  endfacet
  facet normal 0 0 1
    outer loop
      vertex 22.4974 4.78197 1
      vertex 18.4 9.44115 1
      vertex 14.6722 3.11868 1
    endloop
  endfacet
  facet normal 0 0 1
    outer loop
      vertex 23 0 1
      vertex 18.4651 -2.01756 1
      vertex 20.1971 -3.01756 1
    endloop
  endfacet
  facet normal 0 0 1
    outer loop
      vertex 14.6722 3.11868 1
      vertex 18.4 9.44115 1
      vertex 16.6 9.44115 1
    endloop
  endfacet
  facet normal 0 0 1
    outer loop
      vertex 12.1353 8.81678 1
      vertex 16.6 9.44115 1
      vertex 15.7 11 1
    endloop
  endfacet
  facet normal 0 0 1
    outer loop
      vertex 22.4974 4.78197 1
      vertex 14.6722 3.11868 1
      vertex 18.4651 -2.01756 1
    endloop
  endfacet
  facet normal 0 0 1
    outer loop
      vertex 16.6 12.5588 1
      vertex 10.037 11.1472 1
      vertex 15.7 11 1
    endloop
  endfacet
  facet normal 0 0 1
    outer loop
      vertex 14.6722 -3.11868 1
      vertex 18.4651 -2.01756 1
      vertex 15 0 1
    endloop
  endfacet
  facet normal 0 0 1
    outer loop
      vertex 18.4651 -2.01756 1
      vertex 14.6722 3.11868 1
      vertex 15 0 1
    endloop
  endfacet
  facet normal 0 0 1
    outer loop
      vertex 16.6 9.44115 1
      vertex 13.7032 6.10105 1
      vertex 14.6722 3.11868 1
    endloop
  endfacet
  facet normal 0 0 1
    outer loop
      vertex 16.6 9.44115 1
      vertex 12.1353 8.81678 1
      vertex 13.7032 6.10105 1
    endloop
  endfacet
  facet normal 0 0 1
    outer loop
      vertex 10.037 11.1472 1
      vertex 15.39 17.0923 1
      vertex 11.5 19.9186 1
    endloop
  endfacet
  facet normal 0 0 1
    outer loop
      vertex 15.7 11 1
      vertex 10.037 11.1472 1
      vertex 12.1353 8.81678 1
    endloop
  endfacet
  facet normal 0 0 1
    outer loop
      vertex 11.5 19.9186 1
      vertex 7.5 12.9904 1
      vertex 10.037 11.1472 1
    endloop
  endfacet
  facet normal 0 0 1
    outer loop
      vertex 7.10739 21.8743 1
      vertex 7.5 12.9904 1
      vertex 11.5 19.9186 1
    endloop
  endfacet
  facet normal 0 0 1
    outer loop
      vertex 7.10739 21.8743 1
      vertex 4.63525 14.2658 1
      vertex 7.5 12.9904 1
    endloop
  endfacet
  facet normal 0 0 1
    outer loop
      vertex 2.40415 22.874 1
      vertex 4.63525 14.2658 1
      vertex 7.10739 21.8743 1
    endloop
  endfacet
  facet normal 0 0 1
    outer loop
      vertex 2.40415 22.874 1
      vertex 1.56793 14.9178 1
      vertex 4.63525 14.2658 1
    endloop
  endfacet
  facet normal 0 0 1
    outer loop
      vertex 2.40415 22.874 1
      vertex -1.56793 14.9178 1
      vertex 1.56793 14.9178 1
    endloop
  endfacet
  facet normal -0 0 1
    outer loop
      vertex -2.40415 22.874 1
      vertex -1.56793 14.9178 1
      vertex 2.40415 22.874 1
    endloop
  endfacet
  facet normal 0 0 1
    outer loop
      vertex -2.40415 22.874 1
      vertex -4.63525 14.2658 1
      vertex -1.56793 14.9178 1
    endloop
  endfacet
  facet normal -0 0 1
    outer loop
      vertex -7.10739 21.8743 1
      vertex -4.63525 14.2658 1
      vertex -2.40415 22.874 1
    endloop
  endfacet
  facet normal 0 0 1
    outer loop
      vertex -7.10739 21.8743 1
      vertex -7.5 12.9904 1
      vertex -4.63525 14.2658 1
    endloop
  endfacet
  facet normal -0 0 1
    outer loop
      vertex -11.5 19.9186 1
      vertex -7.5 12.9904 1
      vertex -7.10739 21.8743 1
    endloop
  endfacet
  facet normal 0 0 1
    outer loop
      vertex -7.5 12.9904 1
      vertex -11.5 19.9186 1
      vertex -10.037 11.1472 1
    endloop
  endfacet
  facet normal -0 0 1
    outer loop
      vertex -15.39 17.0923 1
      vertex -10.037 11.1472 1
      vertex -11.5 19.9186 1
    endloop
  endfacet
  facet normal 0 0 1
    outer loop
      vertex -10.037 11.1472 1
      vertex -14.7 11 1
      vertex -12.1353 8.81678 1
    endloop
  endfacet
  facet normal -0 0 1
    outer loop
      vertex -15.6 9.44115 1
      vertex -12.1353 8.81678 1
      vertex -14.7 11 1
    endloop
  endfacet
  facet normal 0 0 1
    outer loop
      vertex -12.1353 8.81678 1
      vertex -15.6 9.44115 1
      vertex -13.7032 6.10105 1
    endloop
  endfacet
  facet normal 0 0 1
    outer loop
      vertex -10.037 11.1472 1
      vertex -15.39 17.0923 1
      vertex -15.6 12.5588 1
    endloop
  endfacet
  facet normal 0 0 1
    outer loop
      vertex -10.037 11.1472 1
      vertex -15.6 12.5588 1
      vertex -14.7 11 1
    endloop
  endfacet
  facet normal 0 0 1
    outer loop
      vertex -15.39 17.0923 1
      vertex -17.4 12.5588 1
      vertex -15.6 12.5588 1
    endloop
  endfacet
  facet normal -0 0 1
    outer loop
      vertex -18.6074 13.5191 1
      vertex -17.4 12.5588 1
      vertex -15.39 17.0923 1
    endloop
  endfacet
  facet normal 0 0 1
    outer loop
      vertex -21.0115 9.35494 1
      vertex -18.3 11 1
      vertex -18.6074 13.5191 1
    endloop
  endfacet
  facet normal 0 0 1
    outer loop
      vertex -17.4 12.5588 1
      vertex -18.6074 13.5191 1
      vertex -18.3 11 1
    endloop
  endfacet
  facet normal -0.951057 0.309017 0
    outer loop
      vertex -22.4974 4.78197 -1
      vertex -21.0115 9.35494 1
      vertex -21.0115 9.35494 -1
    endloop
  endfacet
  facet normal -0.951057 0.309017 0
    outer loop
      vertex -21.0115 9.35494 1
      vertex -22.4974 4.78197 -1
      vertex -22.4974 4.78197 1
    endloop
  endfacet
  facet normal 0.866026 -0.499999 0
    outer loop
      vertex 18.6074 -13.5191 1
      vertex 19.3095 -12.303 -1
      vertex 19.3095 -12.303 1
    endloop
  endfacet
  facet normal 0.866026 -0.499999 0
    outer loop
      vertex 19.3095 -12.303 -1
      vertex 18.6074 -13.5191 1
      vertex 18.6074 -13.5191 -1
    endloop
  endfacet
  facet normal 0.866025 -0.5 0
    outer loop
      vertex 20.3095 -10.571 1
      vertex 21.0115 -9.35494 -1
      vertex 21.0115 -9.35494 1
    endloop
  endfacet
  facet normal 0.866025 -0.5 0
    outer loop
      vertex 21.0115 -9.35494 -1
      vertex 20.3095 -10.571 1
      vertex 20.3095 -10.571 -1
    endloop
  endfacet
  facet normal 0 -1 0
    outer loop
      vertex -2.40415 -22.874 -1
      vertex 2.40415 -22.874 1
      vertex -2.40415 -22.874 1
    endloop
  endfacet
  facet normal 0 -1 -0
    outer loop
      vertex 2.40415 -22.874 1
      vertex -2.40415 -22.874 -1
      vertex 2.40415 -22.874 -1
    endloop
  endfacet
  facet normal 0 0 -1
    outer loop
      vertex 28.0788 -17.366 -1
      vertex 20.3095 -10.571 -1
      vertex 29.0788 -15.634 -1
    endloop
  endfacet
  facet normal 0 -0 -1
    outer loop
      vertex 20.3095 -10.571 -1
      vertex 28.0788 -17.366 -1
      vertex 19.3095 -12.303 -1
    endloop
  endfacet
  facet normal 0 0 -1
    outer loop
      vertex 15 0 -1
      vertex 23 0 -1
      vertex 22.4974 -4.78197 -1
    endloop
  endfacet
  facet normal 0 0 -1
    outer loop
      vertex 15 0 -1
      vertex 22.4974 -4.78197 -1
      vertex 21.0115 -9.35494 -1
    endloop
  endfacet
  facet normal 0 0 -1
    outer loop
      vertex 23 0 -1
      vertex 15 0 -1
      vertex 22.4974 4.78197 -1
    endloop
  endfacet
  facet normal 0 0 -1
    outer loop
      vertex 15 0 -1
      vertex 21.0115 -9.35494 -1
      vertex 20.3095 -10.571 -1
    endloop
  endfacet
  facet normal 0 0 -1
    outer loop
      vertex 15 0 -1
      vertex 20.3095 -10.571 -1
      vertex 19.3095 -12.303 -1
    endloop
  endfacet
  facet normal 0 0 -1
    outer loop
      vertex 14.6722 3.11868 -1
      vertex 22.4974 4.78197 -1
      vertex 15 0 -1
    endloop
  endfacet
  facet normal 0 0 -1
    outer loop
      vertex 19.3 11 -1
      vertex 18.6074 13.5191 -1
      vertex 21.0115 9.35494 -1
    endloop
  endfacet
  facet normal 0 0 -1
    outer loop
      vertex 18.4 12.5588 -1
      vertex 18.6074 13.5191 -1
      vertex 19.3 11 -1
    endloop
  endfacet
  facet normal 0 0 -1
    outer loop
      vertex 16.6 12.5588 -1
      vertex 18.6074 13.5191 -1
      vertex 18.4 12.5588 -1
    endloop
  endfacet
  facet normal 0 0 -1
    outer loop
      vertex 16.6 12.5588 -1
      vertex 15.39 17.0923 -1
      vertex 18.6074 13.5191 -1
    endloop
  endfacet
  facet normal 0 0 -1
    outer loop
      vertex 10.037 11.1472 -1
      vertex 16.6 12.5588 -1
      vertex 15.7 11 -1
    endloop
  endfacet
  facet normal -0 0 -1
    outer loop
      vertex 18.4 9.44115 -1
      vertex 14.6722 3.11868 -1
      vertex 16.6 9.44115 -1
    endloop
  endfacet
  facet normal 0 0 -1
    outer loop
      vertex 13.7032 6.10105 -1
      vertex 16.6 9.44115 -1
      vertex 14.6722 3.11868 -1
    endloop
  endfacet
  facet normal 0 0 -1
    outer loop
      vertex 15.39 -17.0923 -1
      vertex 14.6722 -3.11868 -1
      vertex 15 0 -1
    endloop
  endfacet
  facet normal 0 0 -1
    outer loop
      vertex 15.39 -17.0923 -1
      vertex 13.7032 -6.10105 -1
      vertex 14.6722 -3.11868 -1
    endloop
  endfacet
  facet normal 0 0 -1
    outer loop
      vertex 15.39 -17.0923 -1
      vertex 12.1353 -8.81678 -1
      vertex 13.7032 -6.10105 -1
    endloop
  endfacet
  facet normal 0 0 -1
    outer loop
      vertex 10.037 -11.1472 -1
      vertex 15.39 -17.0923 -1
      vertex 11.5 -19.9186 -1
    endloop
  endfacet
  facet normal 0 0 -1
    outer loop
      vertex 15.39 -17.0923 -1
      vertex 10.037 -11.1472 -1
      vertex 12.1353 -8.81678 -1
    endloop
  endfacet
  facet normal 0 0 -1
    outer loop
      vertex 11.5 -19.9186 -1
      vertex 7.5 -12.9904 -1
      vertex 10.037 -11.1472 -1
    endloop
  endfacet
  facet normal 0 0 -1
    outer loop
      vertex 7.10739 -21.8743 -1
      vertex 7.5 -12.9904 -1
      vertex 11.5 -19.9186 -1
    endloop
  endfacet
  facet normal 0 0 -1
    outer loop
      vertex 7.10739 -21.8743 -1
      vertex 4.63525 -14.2658 -1
      vertex 7.5 -12.9904 -1
    endloop
  endfacet
  facet normal 0 0 -1
    outer loop
      vertex 2.40415 -22.874 -1
      vertex 4.63525 -14.2658 -1
      vertex 7.10739 -21.8743 -1
    endloop
  endfacet
  facet normal 0 0 -1
    outer loop
      vertex 2.40415 -22.874 -1
      vertex 1.56793 -14.9178 -1
      vertex 4.63525 -14.2658 -1
    endloop
  endfacet
  facet normal 0 0 -1
    outer loop
      vertex 2.40415 -22.874 -1
      vertex -1.56793 -14.9178 -1
      vertex 1.56793 -14.9178 -1
    endloop
  endfacet
  facet normal 0 0 -1
    outer loop
      vertex -2.40415 -22.874 -1
      vertex -1.56793 -14.9178 -1
      vertex 2.40415 -22.874 -1
    endloop
  endfacet
  facet normal 0 0 -1
    outer loop
      vertex -2.40415 -22.874 -1
      vertex -4.63525 -14.2658 -1
      vertex -1.56793 -14.9178 -1
    endloop
  endfacet
  facet normal 0 0 -1
    outer loop
      vertex -7.10739 -21.8743 -1
      vertex -4.63525 -14.2658 -1
      vertex -2.40415 -22.874 -1
    endloop
  endfacet
  facet normal 0 0 -1
    outer loop
      vertex -7.10739 -21.8743 -1
      vertex -7.5 -12.9904 -1
      vertex -4.63525 -14.2658 -1
    endloop
  endfacet
  facet normal 0 0 -1
    outer loop
      vertex -11.5 -19.9186 -1
      vertex -7.5 -12.9904 -1
      vertex -7.10739 -21.8743 -1
    endloop
  endfacet
  facet normal -0 0 -1
    outer loop
      vertex -7.5 -12.9904 -1
      vertex -11.5 -19.9186 -1
      vertex -10.037 -11.1472 -1
    endloop
  endfacet
  facet normal 0 0 -1
    outer loop
      vertex -15.39 -17.0923 -1
      vertex -10.037 -11.1472 -1
      vertex -11.5 -19.9186 -1
    endloop
  endfacet
  facet normal 0 0 -1
    outer loop
      vertex -10.037 -11.1472 -1
      vertex -14.7 -11 -1
      vertex -12.1353 -8.81678 -1
    endloop
  endfacet
  facet normal 0 0 -1
    outer loop
      vertex -15.6 -9.44115 -1
      vertex -12.1353 -8.81678 -1
      vertex -14.7 -11 -1
    endloop
  endfacet
  facet normal -0 0 -1
    outer loop
      vertex -12.1353 -8.81678 -1
      vertex -15.6 -9.44115 -1
      vertex -13.7032 -6.10105 -1
    endloop
  endfacet
  facet normal 0 0 -1
    outer loop
      vertex -10.037 -11.1472 -1
      vertex -15.39 -17.0923 -1
      vertex -15.6 -12.5588 -1
    endloop
  endfacet
  facet normal -0 0 -1
    outer loop
      vertex -10.037 -11.1472 -1
      vertex -15.6 -12.5588 -1
      vertex -14.7 -11 -1
    endloop
  endfacet
  facet normal 0 0 -1
    outer loop
      vertex -15.39 -17.0923 -1
      vertex -17.4 -12.5588 -1
      vertex -15.6 -12.5588 -1
    endloop
  endfacet
  facet normal 0 0 -1
    outer loop
      vertex -18.6074 -13.5191 -1
      vertex -17.4 -12.5588 -1
      vertex -15.39 -17.0923 -1
    endloop
  endfacet
  facet normal 0 0 -1
    outer loop
      vertex -21.0115 -9.35494 -1
      vertex -18.3 -11 -1
      vertex -18.6074 -13.5191 -1
    endloop
  endfacet
  facet normal -0 0 -1
    outer loop
      vertex -17.4 -12.5588 -1
      vertex -18.6074 -13.5191 -1
      vertex -18.3 -11 -1
    endloop
  endfacet
  facet normal 0 0 -1
    outer loop
      vertex -17.4 9.44115 -1
      vertex -14.6722 3.11868 -1
      vertex -15 0 -1
    endloop
  endfacet
  facet normal -0 0 -1
    outer loop
      vertex -14.6722 -3.11868 -1
      vertex -17.4 -9.44115 -1
      vertex -15 0 -1
    endloop
  endfacet
  facet normal 0 0 -1
    outer loop
      vertex -14.6722 3.11868 -1
      vertex -15.6 9.44115 -1
      vertex -14.7 11 -1
    endloop
  endfacet
  facet normal 0 0 -1
    outer loop
      vertex -17.4 9.44115 -1
      vertex -15 0 -1
      vertex -17.4 -9.44115 -1
    endloop
  endfacet
  facet normal 0 0 -1
    outer loop
      vertex -14.6722 3.11868 -1
      vertex -17.4 9.44115 -1
      vertex -15.6 9.44115 -1
    endloop
  endfacet
  facet normal 0 0 -1
    outer loop
      vertex -18.3 -11 -1
      vertex -17.4 9.44115 -1
      vertex -17.4 -9.44115 -1
    endloop
  endfacet
  facet normal -0 0 -1
    outer loop
      vertex -17.4 9.44115 -1
      vertex -18.3 -11 -1
      vertex -18.3 11 -1
    endloop
  endfacet
  facet normal 0 0 -1
    outer loop
      vertex 12.1353 8.81678 -1
      vertex 16.6 9.44115 -1
      vertex 13.7032 6.10105 -1
    endloop
  endfacet
  facet normal -0 0 -1
    outer loop
      vertex 16.6 9.44115 -1
      vertex 12.1353 8.81678 -1
      vertex 15.7 11 -1
    endloop
  endfacet
  facet normal 0 0 -1
    outer loop
      vertex 10.037 11.1472 -1
      vertex 15.7 11 -1
      vertex 12.1353 8.81678 -1
    endloop
  endfacet
  facet normal -0 0 -1
    outer loop
      vertex 16.6 12.5588 -1
      vertex 10.037 11.1472 -1
      vertex 15.39 17.0923 -1
    endloop
  endfacet
  facet normal -0 0 -1
    outer loop
      vertex 15.39 17.0923 -1
      vertex 10.037 11.1472 -1
      vertex 11.5 19.9186 -1
    endloop
  endfacet
  facet normal 0 0 -1
    outer loop
      vertex 7.5 12.9904 -1
      vertex 11.5 19.9186 -1
      vertex 10.037 11.1472 -1
    endloop
  endfacet
  facet normal 0 0 -1
    outer loop
      vertex 7.5 12.9904 -1
      vertex 7.10739 21.8743 -1
      vertex 11.5 19.9186 -1
    endloop
  endfacet
  facet normal 0 0 -1
    outer loop
      vertex 4.63525 14.2658 -1
      vertex 7.10739 21.8743 -1
      vertex 7.5 12.9904 -1
    endloop
  endfacet
  facet normal 0 0 -1
    outer loop
      vertex 4.63525 14.2658 -1
      vertex 2.40415 22.874 -1
      vertex 7.10739 21.8743 -1
    endloop
  endfacet
  facet normal 0 0 -1
    outer loop
      vertex 1.56793 14.9178 -1
      vertex 2.40415 22.874 -1
      vertex 4.63525 14.2658 -1
    endloop
  endfacet
  facet normal 0 0 -1
    outer loop
      vertex -1.56793 14.9178 -1
      vertex 2.40415 22.874 -1
      vertex 1.56793 14.9178 -1
    endloop
  endfacet
  facet normal 0 0 -1
    outer loop
      vertex -1.56793 14.9178 -1
      vertex -2.40415 22.874 -1
      vertex 2.40415 22.874 -1
    endloop
  endfacet
  facet normal 0 0 -1
    outer loop
      vertex -4.63525 14.2658 -1
      vertex -2.40415 22.874 -1
      vertex -1.56793 14.9178 -1
    endloop
  endfacet
  facet normal 0 0 -1
    outer loop
      vertex -4.63525 14.2658 -1
      vertex -7.10739 21.8743 -1
      vertex -2.40415 22.874 -1
    endloop
  endfacet
  facet normal 0 0 -1
    outer loop
      vertex -7.5 12.9904 -1
      vertex -7.10739 21.8743 -1
      vertex -4.63525 14.2658 -1
    endloop
  endfacet
  facet normal 0 0 -1
    outer loop
      vertex -11.5 19.9186 -1
      vertex -7.5 12.9904 -1
      vertex -10.037 11.1472 -1
    endloop
  endfacet
  facet normal 0 0 -1
    outer loop
      vertex -7.5 12.9904 -1
      vertex -11.5 19.9186 -1
      vertex -7.10739 21.8743 -1
    endloop
  endfacet
  facet normal 0 0 -1
    outer loop
      vertex -14.7 11 -1
      vertex -10.037 11.1472 -1
      vertex -12.1353 8.81678 -1
    endloop
  endfacet
  facet normal 0 0 -1
    outer loop
      vertex -14.7 11 -1
      vertex -12.1353 8.81678 -1
      vertex -13.7032 6.10105 -1
    endloop
  endfacet
  facet normal 0 0 -1
    outer loop
      vertex -14.7 11 -1
      vertex -13.7032 6.10105 -1
      vertex -14.6722 3.11868 -1
    endloop
  endfacet
  facet normal 0 0 -1
    outer loop
      vertex -15.6 12.5588 -1
      vertex -10.037 11.1472 -1
      vertex -14.7 11 -1
    endloop
  endfacet
  facet normal 0 -0 -1
    outer loop
      vertex -15.39 17.0923 -1
      vertex -10.037 11.1472 -1
      vertex -15.6 12.5588 -1
    endloop
  endfacet
  facet normal 0 0 -1
    outer loop
      vertex -10.037 11.1472 -1
      vertex -15.39 17.0923 -1
      vertex -11.5 19.9186 -1
    endloop
  endfacet
  facet normal 0 0 -1
    outer loop
      vertex -17.4 12.5588 -1
      vertex -15.39 17.0923 -1
      vertex -15.6 12.5588 -1
    endloop
  endfacet
  facet normal 0 0 -1
    outer loop
      vertex -18.6074 13.5191 -1
      vertex -17.4 12.5588 -1
      vertex -18.3 11 -1
    endloop
  endfacet
  facet normal 0 0 -1
    outer loop
      vertex -17.4 12.5588 -1
      vertex -18.6074 13.5191 -1
      vertex -15.39 17.0923 -1
    endloop
  endfacet
  facet normal 0 0 -1
    outer loop
      vertex -22.4974 -4.78197 -1
      vertex -18.3 -11 -1
      vertex -21.0115 -9.35494 -1
    endloop
  endfacet
  facet normal 0 0 -1
    outer loop
      vertex -23 0 -1
      vertex -18.3 -11 -1
      vertex -22.4974 -4.78197 -1
    endloop
  endfacet
  facet normal -0 0 -1
    outer loop
      vertex -18.3 11 -1
      vertex -21.0115 9.35494 -1
      vertex -18.6074 13.5191 -1
    endloop
  endfacet
  facet normal 0 0 -1
    outer loop
      vertex -18.3 -11 -1
      vertex -23 0 -1
      vertex -18.3 11 -1
    endloop
  endfacet
  facet normal 0 0 -1
    outer loop
      vertex -18.3 11 -1
      vertex -22.4974 4.78197 -1
      vertex -21.0115 9.35494 -1
    endloop
  endfacet
  facet normal 0 0 -1
    outer loop
      vertex -18.3 11 -1
      vertex -23 0 -1
      vertex -22.4974 4.78197 -1
    endloop
  endfacet
  facet normal 0 0 -1
    outer loop
      vertex -17.4 -9.44115 -1
      vertex -13.7032 -6.10105 -1
      vertex -15.6 -9.44115 -1
    endloop
  endfacet
  facet normal -0 0 -1
    outer loop
      vertex -13.7032 -6.10105 -1
      vertex -17.4 -9.44115 -1
      vertex -14.6722 -3.11868 -1
    endloop
  endfacet
  facet normal 0 0 -1
    outer loop
      vertex 15 0 -1
      vertex 18.6074 -13.5191 -1
      vertex 15.39 -17.0923 -1
    endloop
  endfacet
  facet normal 0 0 -1
    outer loop
      vertex 21.0115 9.35494 -1
      vertex 18.4 9.44115 -1
      vertex 19.3 11 -1
    endloop
  endfacet
  facet normal 0 -0 -1
    outer loop
      vertex 18.4 9.44115 -1
      vertex 22.4974 4.78197 -1
      vertex 14.6722 3.11868 -1
    endloop
  endfacet
  facet normal 0 0 -1
    outer loop
      vertex 18.6074 -13.5191 -1
      vertex 15 0 -1
      vertex 19.3095 -12.303 -1
    endloop
  endfacet
  facet normal 0 0 -1
    outer loop
      vertex 22.4974 4.78197 -1
      vertex 18.4 9.44115 -1
      vertex 21.0115 9.35494 -1
    endloop
  endfacet
  facet normal -0.743145 -0.669131 0
    outer loop
      vertex -15.39 -17.0923 -1
      vertex -18.6074 -13.5191 1
      vertex -18.6074 -13.5191 -1
    endloop
  endfacet
  facet normal -0.743145 -0.669131 0
    outer loop
      vertex -18.6074 -13.5191 1
      vertex -15.39 -17.0923 -1
      vertex -15.39 -17.0923 1
    endloop
  endfacet
  facet normal 0.406737 -0.913546 0
    outer loop
      vertex 7.10739 -21.8743 -1
      vertex 11.5 -19.9186 1
      vertex 7.10739 -21.8743 1
    endloop
  endfacet
  facet normal 0.406737 -0.913546 0
    outer loop
      vertex 11.5 -19.9186 1
      vertex 7.10739 -21.8743 -1
      vertex 11.5 -19.9186 -1
    endloop
  endfacet
  facet normal 0.951057 -0.309017 0
    outer loop
      vertex 21.0115 -9.35494 1
      vertex 22.4974 -4.78197 -1
      vertex 22.4974 -4.78197 1
    endloop
  endfacet
  facet normal 0.951057 -0.309017 0
    outer loop
      vertex 22.4974 -4.78197 -1
      vertex 21.0115 -9.35494 1
      vertex 21.0115 -9.35494 -1
    endloop
  endfacet
  facet normal -0.406737 -0.913546 0
    outer loop
      vertex -11.5 -19.9186 -1
      vertex -7.10739 -21.8743 1
      vertex -11.5 -19.9186 1
    endloop
  endfacet
  facet normal -0.406737 -0.913546 -0
    outer loop
      vertex -7.10739 -21.8743 1
      vertex -11.5 -19.9186 -1
      vertex -7.10739 -21.8743 -1
    endloop
  endfacet
  facet normal -0.951057 -0.309017 0
    outer loop
      vertex -21.0115 -9.35494 -1
      vertex -22.4974 -4.78197 1
      vertex -22.4974 -4.78197 -1
    endloop
  endfacet
  facet normal -0.951057 -0.309017 0
    outer loop
      vertex -22.4974 -4.78197 1
      vertex -21.0115 -9.35494 -1
      vertex -21.0115 -9.35494 1
    endloop
  endfacet
  facet normal -0.994522 -0.104529 0
    outer loop
      vertex -22.4974 -4.78197 -1
      vertex -23 0 1
      vertex -23 0 -1
    endloop
  endfacet
  facet normal -0.994522 -0.104529 0
    outer loop
      vertex -23 0 1
      vertex -22.4974 -4.78197 -1
      vertex -22.4974 -4.78197 1
    endloop
  endfacet
  facet normal 0.743145 -0.669131 0
    outer loop
      vertex 15.39 -17.0923 1
      vertex 18.6074 -13.5191 -1
      vertex 18.6074 -13.5191 1
    endloop
  endfacet
  facet normal 0.743145 -0.669131 0
    outer loop
      vertex 18.6074 -13.5191 -1
      vertex 15.39 -17.0923 1
      vertex 15.39 -17.0923 -1
    endloop
  endfacet
  facet normal -0.207912 -0.978147 0
    outer loop
      vertex -7.10739 -21.8743 -1
      vertex -2.40415 -22.874 1
      vertex -7.10739 -21.8743 1
    endloop
  endfacet
  facet normal -0.207912 -0.978147 -0
    outer loop
      vertex -2.40415 -22.874 1
      vertex -7.10739 -21.8743 -1
      vertex -2.40415 -22.874 -1
    endloop
  endfacet
  facet normal -0.866025 0.5 0
    outer loop
      vertex 12.4904 -8.36602 1
      vertex 13.4904 -6.63397 9
      vertex 13.4904 -6.63397 1
    endloop
  endfacet
  facet normal -0.866025 0.5 0
    outer loop
      vertex 13.4904 -6.63397 9
      vertex 12.4904 -8.36602 1
      vertex 12.4904 -8.36602 9
    endloop
  endfacet
  facet normal 0 0 1
    outer loop
      vertex 13.4904 -6.63397 9
      vertex 28.0788 -17.366 9
      vertex 29.0788 -15.634 9
    endloop
  endfacet
  facet normal 0 0 1
    outer loop
      vertex 28.0788 -17.366 9
      vertex 13.4904 -6.63397 9
      vertex 12.4904 -8.36602 9
    endloop
  endfacet
  facet normal 0.866025 -0.5 0
    outer loop
      vertex 28.0788 -17.366 9
      vertex 29.0788 -15.634 -1
      vertex 29.0788 -15.634 9
    endloop
  endfacet
  facet normal 0.866025 -0.5 0
    outer loop
      vertex 29.0788 -15.634 -1
      vertex 28.0788 -17.366 9
      vertex 28.0788 -17.366 -1
    endloop
  endfacet
  facet normal -0.5 -0.866025 5.13794e-07
    outer loop
      vertex 15.9545 -10.366 7.48528
      vertex 22.2476 -13.9993 5.15293
      vertex 23.3248 -14.6213 6.14484
    endloop
  endfacet
  facet normal -0.500001 -0.866025 -1.54281e-06
    outer loop
      vertex 15.9545 -10.366 7.48528
      vertex 22.0321 -13.875 4.95454
      vertex 22.2476 -13.9993 5.15293
    endloop
  endfacet
  facet normal -0.5 -0.866025 9.66237e-08
    outer loop
      vertex 19.3095 -12.303 1
      vertex 22.0321 -13.875 4.95454
      vertex 15.9545 -10.366 7.48528
    endloop
  endfacet
  facet normal -0.5 -0.866025 -0
    outer loop
      vertex 22.0321 -13.875 4.95454
      vertex 19.3095 -12.303 1
      vertex 22.0321 -13.875 3.04545
    endloop
  endfacet
  facet normal -0.500001 -0.866025 1.34183e-06
    outer loop
      vertex 22.0321 -13.875 3.04545
      vertex 19.3095 -12.303 1
      vertex 22.2476 -13.9993 2.84707
    endloop
  endfacet
  facet normal -0.5 -0.866025 0
    outer loop
      vertex 19.3095 -12.303 1
      vertex 15.9545 -10.366 7.48528
      vertex 15.9545 -10.366 1
    endloop
  endfacet
  facet normal -0.5 -0.866025 -3.14802e-07
    outer loop
      vertex 15.9545 -10.366 7.48528
      vertex 12.4904 -8.36602 9
      vertex 14.2224 -9.36602 7.48528
    endloop
  endfacet
  facet normal -0.5 -0.866026 0
    outer loop
      vertex 12.4904 -8.36602 1
      vertex 14.2224 -9.36602 7.48528
      vertex 12.4904 -8.36602 9
    endloop
  endfacet
  facet normal -0.5 -0.866026 -0
    outer loop
      vertex 14.2224 -9.36602 7.48528
      vertex 12.4904 -8.36602 1
      vertex 14.2224 -9.36602 1
    endloop
  endfacet
  facet normal -0.5 -0.866025 -1.93635e-07
    outer loop
      vertex 12.4904 -8.36602 9
      vertex 15.9545 -10.366 7.48528
      vertex 28.0788 -17.366 9
    endloop
  endfacet
  facet normal -0.5 -0.866025 5.411e-07
    outer loop
      vertex 23.3248 -14.6213 6.14484
      vertex 28.0788 -17.366 9
      vertex 15.9545 -10.366 7.48528
    endloop
  endfacet
  facet normal -0.5 -0.866026 -1.10855e-07
    outer loop
      vertex 24.9366 -15.5519 5.72003
      vertex 28.0788 -17.366 9
      vertex 23.3248 -14.6213 6.14484
    endloop
  endfacet
  facet normal -0.5 -0.866026 -1.1211e-07
    outer loop
      vertex 25.0562 -15.6209 5.43336
      vertex 28.0788 -17.366 9
      vertex 24.9366 -15.5519 5.72003
    endloop
  endfacet
  facet normal -0.5 -0.866025 3.33797e-07
    outer loop
      vertex 25.654 -15.966 4
      vertex 28.0788 -17.366 9
      vertex 25.0562 -15.6209 5.43336
    endloop
  endfacet
  facet normal -0.5 -0.866025 -3.33797e-07
    outer loop
      vertex 28.0788 -17.366 -1
      vertex 25.654 -15.966 4
      vertex 25.0562 -15.6209 2.56664
    endloop
  endfacet
  facet normal -0.5 -0.866026 1.1211e-07
    outer loop
      vertex 28.0788 -17.366 -1
      vertex 25.0562 -15.6209 2.56664
      vertex 24.9366 -15.5519 2.27997
    endloop
  endfacet
  facet normal -0.5 -0.866025 -3.72288e-07
    outer loop
      vertex 22.2476 -13.9993 2.84707
      vertex 19.3095 -12.303 1
      vertex 23.3248 -14.6213 1.85516
    endloop
  endfacet
  facet normal -0.5 -0.866025 0
    outer loop
      vertex 19.3095 -12.303 -1
      vertex 23.3248 -14.6213 1.85516
      vertex 19.3095 -12.303 1
    endloop
  endfacet
  facet normal -0.5 -0.866025 -2.12648e-07
    outer loop
      vertex 28.0788 -17.366 -1
      vertex 23.3248 -14.6213 1.85516
      vertex 19.3095 -12.303 -1
    endloop
  endfacet
  facet normal -0.5 -0.866026 0
    outer loop
      vertex 25.654 -15.966 4
      vertex 28.0788 -17.366 -1
      vertex 28.0788 -17.366 9
    endloop
  endfacet
  facet normal -0.5 -0.866026 1.10855e-07
    outer loop
      vertex 23.3248 -14.6213 1.85516
      vertex 28.0788 -17.366 -1
      vertex 24.9366 -15.5519 2.27997
    endloop
  endfacet
  facet normal 0.5 0.866025 -2.30451e-07
    outer loop
      vertex 29.0788 -15.634 9
      vertex 16.9545 -8.63398 7.48528
      vertex 13.4904 -6.63397 9
    endloop
  endfacet
  facet normal 0.5 0.866025 -1.75852e-07
    outer loop
      vertex 29.0788 -15.634 9
      vertex 24.3248 -12.8892 6.14484
      vertex 16.9545 -8.63398 7.48528
    endloop
  endfacet
  facet normal 0.5 0.866026 3.11898e-07
    outer loop
      vertex 29.0788 -15.634 9
      vertex 25.9366 -13.8198 5.72003
      vertex 24.3248 -12.8892 6.14484
    endloop
  endfacet
  facet normal 0.5 0.866025 -2.75062e-07
    outer loop
      vertex 29.0788 -15.634 9
      vertex 26.5344 -14.1649 4.28667
      vertex 25.9366 -13.8198 5.72003
    endloop
  endfacet
  facet normal 0.5 0.866026 1.00295e-07
    outer loop
      vertex 29.0788 -15.634 9
      vertex 26.654 -14.234 4
      vertex 26.5344 -14.1649 4.28667
    endloop
  endfacet
  facet normal 0.5 0.866025 -0
    outer loop
      vertex 29.0788 -15.634 -1
      vertex 26.654 -14.234 4
      vertex 29.0788 -15.634 9
    endloop
  endfacet
  facet normal 0.5 0.866026 -1.00295e-07
    outer loop
      vertex 26.654 -14.234 4
      vertex 29.0788 -15.634 -1
      vertex 26.5344 -14.1649 3.71333
    endloop
  endfacet
  facet normal 0.5 0.866025 2.75062e-07
    outer loop
      vertex 26.5344 -14.1649 3.71333
      vertex 29.0788 -15.634 -1
      vertex 25.9366 -13.8198 2.27997
    endloop
  endfacet
  facet normal 0.5 0.866026 -3.11898e-07
    outer loop
      vertex 29.0788 -15.634 -1
      vertex 24.3248 -12.8892 1.85516
      vertex 25.9366 -13.8198 2.27997
    endloop
  endfacet
  facet normal 0.5 0.866025 8.01986e-08
    outer loop
      vertex 20.3095 -10.571 -1
      vertex 24.3248 -12.8892 1.85516
      vertex 29.0788 -15.634 -1
    endloop
  endfacet
  facet normal 0.5 0.866025 0
    outer loop
      vertex 24.3248 -12.8892 1.85516
      vertex 20.3095 -10.571 -1
      vertex 20.3095 -10.571 1
    endloop
  endfacet
  facet normal 0.5 0.866025 3.14802e-07
    outer loop
      vertex 15.2224 -7.63397 7.48528
      vertex 13.4904 -6.63397 9
      vertex 16.9545 -8.63398 7.48528
    endloop
  endfacet
  facet normal 0.5 0.866025 0
    outer loop
      vertex 13.4904 -6.63397 1
      vertex 15.2224 -7.63397 7.48528
      vertex 15.2224 -7.63397 1
    endloop
  endfacet
  facet normal 0.5 0.866025 0
    outer loop
      vertex 15.2224 -7.63397 7.48528
      vertex 13.4904 -6.63397 1
      vertex 13.4904 -6.63397 9
    endloop
  endfacet
  facet normal 0.5 0.866025 1.99646e-06
    outer loop
      vertex 24.1093 -12.7648 5.94646
      vertex 16.9545 -8.63398 7.48528
      vertex 24.3248 -12.8892 6.14484
    endloop
  endfacet
  facet normal 0.5 0.866025 -3.41768e-07
    outer loop
      vertex 23.0321 -12.1429 4.95454
      vertex 16.9545 -8.63398 7.48528
      vertex 24.1093 -12.7648 5.94646
    endloop
  endfacet
  facet normal 0.5 0.866025 0
    outer loop
      vertex 20.3095 -10.571 1
      vertex 23.0321 -12.1429 4.95454
      vertex 23.0321 -12.1429 3.04545
    endloop
  endfacet
  facet normal 0.5 0.866026 2.46601e-07
    outer loop
      vertex 20.3095 -10.571 1
      vertex 23.0321 -12.1429 3.04545
      vertex 24.1093 -12.7648 2.05354
    endloop
  endfacet
  facet normal 0.5 0.866025 -1.97026e-06
    outer loop
      vertex 20.3095 -10.571 1
      vertex 24.1093 -12.7648 2.05354
      vertex 24.3248 -12.8892 1.85516
    endloop
  endfacet
  facet normal 0.5 0.866025 -2.39094e-08
    outer loop
      vertex 23.0321 -12.1429 4.95454
      vertex 20.3095 -10.571 1
      vertex 16.9545 -8.63398 7.48528
    endloop
  endfacet
  facet normal 0.5 0.866025 0
    outer loop
      vertex 16.9545 -8.63398 7.48528
      vertex 20.3095 -10.571 1
      vertex 16.9545 -8.63398 1
    endloop
  endfacet
  facet normal -0.866025 -0.5 0
    outer loop
      vertex 13.7032 6.10105 -1
      vertex 12.1353 8.81678 1
      vertex 12.1353 8.81678 -1
    endloop
  endfacet
  facet normal -0.866025 -0.5 0
    outer loop
      vertex 12.1353 8.81678 1
      vertex 13.7032 6.10105 -1
      vertex 13.7032 6.10105 1
    endloop
  endfacet
  facet normal -0.743145 -0.669131 0
    outer loop
      vertex 12.1353 8.81678 -1
      vertex 10.037 11.1472 1
      vertex 10.037 11.1472 -1
    endloop
  endfacet
  facet normal -0.743145 -0.669131 0
    outer loop
      vertex 10.037 11.1472 1
      vertex 12.1353 8.81678 -1
      vertex 12.1353 8.81678 1
    endloop
  endfacet
  facet normal -0.207912 -0.978148 0
    outer loop
      vertex 1.56793 14.9178 -1
      vertex 4.63525 14.2658 1
      vertex 1.56793 14.9178 1
    endloop
  endfacet
  facet normal -0.207912 -0.978148 -0
    outer loop
      vertex 4.63525 14.2658 1
      vertex 1.56793 14.9178 -1
      vertex 4.63525 14.2658 -1
    endloop
  endfacet
  facet normal -0.406737 -0.913545 0
    outer loop
      vertex 4.63525 14.2658 -1
      vertex 7.5 12.9904 1
      vertex 4.63525 14.2658 1
    endloop
  endfacet
  facet normal -0.406737 -0.913545 -0
    outer loop
      vertex 7.5 12.9904 1
      vertex 4.63525 14.2658 -1
      vertex 7.5 12.9904 -1
    endloop
  endfacet
  facet normal 0.207912 -0.978148 0
    outer loop
      vertex -4.63525 14.2658 -1
      vertex -1.56793 14.9178 1
      vertex -4.63525 14.2658 1
    endloop
  endfacet
  facet normal 0.207912 -0.978148 0
    outer loop
      vertex -1.56793 14.9178 1
      vertex -4.63525 14.2658 -1
      vertex -1.56793 14.9178 -1
    endloop
  endfacet
  facet normal 0.866025 -0.5 0
    outer loop
      vertex -13.7032 6.10105 1
      vertex -12.1353 8.81678 -1
      vertex -12.1353 8.81678 1
    endloop
  endfacet
  facet normal 0.866025 -0.5 0
    outer loop
      vertex -12.1353 8.81678 -1
      vertex -13.7032 6.10105 1
      vertex -13.7032 6.10105 -1
    endloop
  endfacet
  facet normal -0.994522 0.104529 0
    outer loop
      vertex 14.6722 -3.11868 -1
      vertex 15 0 1
      vertex 15 0 -1
    endloop
  endfacet
  facet normal -0.994522 0.104529 0
    outer loop
      vertex 15 0 1
      vertex 14.6722 -3.11868 -1
      vertex 14.6722 -3.11868 1
    endloop
  endfacet
  facet normal 0 -1 0
    outer loop
      vertex -1.56793 14.9178 -1
      vertex 1.56793 14.9178 1
      vertex -1.56793 14.9178 1
    endloop
  endfacet
  facet normal 0 -1 -0
    outer loop
      vertex 1.56793 14.9178 1
      vertex -1.56793 14.9178 -1
      vertex 1.56793 14.9178 -1
    endloop
  endfacet
  facet normal -0.587785 -0.809017 0
    outer loop
      vertex 7.5 12.9904 -1
      vertex 10.037 11.1472 1
      vertex 7.5 12.9904 1
    endloop
  endfacet
  facet normal -0.587785 -0.809017 -0
    outer loop
      vertex 10.037 11.1472 1
      vertex 7.5 12.9904 -1
      vertex 10.037 11.1472 -1
    endloop
  endfacet
  facet normal 0.994522 -0.104529 0
    outer loop
      vertex -15 0 1
      vertex -14.6722 3.11868 -1
      vertex -14.6722 3.11868 1
    endloop
  endfacet
  facet normal 0.994522 -0.104529 0
    outer loop
      vertex -14.6722 3.11868 -1
      vertex -15 0 1
      vertex -15 0 -1
    endloop
  endfacet
  facet normal 0.743145 -0.669131 0
    outer loop
      vertex -12.1353 8.81678 1
      vertex -10.037 11.1472 -1
      vertex -10.037 11.1472 1
    endloop
  endfacet
  facet normal 0.743145 -0.669131 0
    outer loop
      vertex -10.037 11.1472 -1
      vertex -12.1353 8.81678 1
      vertex -12.1353 8.81678 -1
    endloop
  endfacet
  facet normal 0.406737 -0.913545 0
    outer loop
      vertex -7.5 12.9904 -1
      vertex -4.63525 14.2658 1
      vertex -7.5 12.9904 1
    endloop
  endfacet
  facet normal 0.406737 -0.913545 0
    outer loop
      vertex -4.63525 14.2658 1
      vertex -7.5 12.9904 -1
      vertex -4.63525 14.2658 -1
    endloop
  endfacet
  facet normal 0.587785 -0.809017 0
    outer loop
      vertex -10.037 11.1472 -1
      vertex -7.5 12.9904 1
      vertex -10.037 11.1472 1
    endloop
  endfacet
  facet normal 0.587785 -0.809017 0
    outer loop
      vertex -7.5 12.9904 1
      vertex -10.037 11.1472 -1
      vertex -7.5 12.9904 -1
    endloop
  endfacet
  facet normal -0.994522 -0.104529 0
    outer loop
      vertex 15 0 -1
      vertex 14.6722 3.11868 1
      vertex 14.6722 3.11868 -1
    endloop
  endfacet
  facet normal -0.994522 -0.104529 0
    outer loop
      vertex 14.6722 3.11868 1
      vertex 15 0 -1
      vertex 15 0 1
    endloop
  endfacet
  facet normal -0.951057 0.309017 0
    outer loop
      vertex 13.7032 -6.10105 -1
      vertex 14.6722 -3.11868 1
      vertex 14.6722 -3.11868 -1
    endloop
  endfacet
  facet normal -0.951057 0.309017 0
    outer loop
      vertex 14.6722 -3.11868 1
      vertex 13.7032 -6.10105 -1
      vertex 13.7032 -6.10105 1
    endloop
  endfacet
  facet normal 0.587785 0.809017 -0
    outer loop
      vertex -7.5 -12.9904 -1
      vertex -10.037 -11.1472 1
      vertex -7.5 -12.9904 1
    endloop
  endfacet
  facet normal 0.587785 0.809017 0
    outer loop
      vertex -10.037 -11.1472 1
      vertex -7.5 -12.9904 -1
      vertex -10.037 -11.1472 -1
    endloop
  endfacet
  facet normal 0.866025 0.5 0
    outer loop
      vertex -12.1353 -8.81678 1
      vertex -13.7032 -6.10105 -1
      vertex -13.7032 -6.10105 1
    endloop
  endfacet
  facet normal 0.866025 0.5 0
    outer loop
      vertex -13.7032 -6.10105 -1
      vertex -12.1353 -8.81678 1
      vertex -12.1353 -8.81678 -1
    endloop
  endfacet
  facet normal -0.587785 0.809017 0
    outer loop
      vertex 10.037 -11.1472 -1
      vertex 7.5 -12.9904 1
      vertex 10.037 -11.1472 1
    endloop
  endfacet
  facet normal -0.587785 0.809017 0
    outer loop
      vertex 7.5 -12.9904 1
      vertex 10.037 -11.1472 -1
      vertex 7.5 -12.9904 -1
    endloop
  endfacet
  facet normal -0.951057 -0.309017 0
    outer loop
      vertex 14.6722 3.11868 -1
      vertex 13.7032 6.10105 1
      vertex 13.7032 6.10105 -1
    endloop
  endfacet
  facet normal -0.951057 -0.309017 0
    outer loop
      vertex 13.7032 6.10105 1
      vertex 14.6722 3.11868 -1
      vertex 14.6722 3.11868 1
    endloop
  endfacet
  facet normal 0.951057 -0.309017 0
    outer loop
      vertex -14.6722 3.11868 1
      vertex -13.7032 6.10105 -1
      vertex -13.7032 6.10105 1
    endloop
  endfacet
  facet normal 0.951057 -0.309017 0
    outer loop
      vertex -13.7032 6.10105 -1
      vertex -14.6722 3.11868 1
      vertex -14.6722 3.11868 -1
    endloop
  endfacet
  facet normal -0.866025 0.5 0
    outer loop
      vertex 12.1353 -8.81678 -1
      vertex 13.7032 -6.10105 1
      vertex 13.7032 -6.10105 -1
    endloop
  endfacet
  facet normal -0.866025 0.5 0
    outer loop
      vertex 13.7032 -6.10105 1
      vertex 12.1353 -8.81678 -1
      vertex 12.1353 -8.81678 1
    endloop
  endfacet
  facet normal 0.994522 0.104529 0
    outer loop
      vertex -14.6722 -3.11868 1
      vertex -15 0 -1
      vertex -15 0 1
    endloop
  endfacet
  facet normal 0.994522 0.104529 0
    outer loop
      vertex -15 0 -1
      vertex -14.6722 -3.11868 1
      vertex -14.6722 -3.11868 -1
    endloop
  endfacet
  facet normal 0.743145 0.669131 0
    outer loop
      vertex -10.037 -11.1472 1
      vertex -12.1353 -8.81678 -1
      vertex -12.1353 -8.81678 1
    endloop
  endfacet
  facet normal 0.743145 0.669131 0
    outer loop
      vertex -12.1353 -8.81678 -1
      vertex -10.037 -11.1472 1
      vertex -10.037 -11.1472 -1
    endloop
  endfacet
  facet normal -0.207912 0.978148 0
    outer loop
      vertex 4.63525 -14.2658 -1
      vertex 1.56793 -14.9178 1
      vertex 4.63525 -14.2658 1
    endloop
  endfacet
  facet normal -0.207912 0.978148 0
    outer loop
      vertex 1.56793 -14.9178 1
      vertex 4.63525 -14.2658 -1
      vertex 1.56793 -14.9178 -1
    endloop
  endfacet
  facet normal -0.406737 0.913545 0
    outer loop
      vertex 7.5 -12.9904 -1
      vertex 4.63525 -14.2658 1
      vertex 7.5 -12.9904 1
    endloop
  endfacet
  facet normal -0.406737 0.913545 0
    outer loop
      vertex 4.63525 -14.2658 1
      vertex 7.5 -12.9904 -1
      vertex 4.63525 -14.2658 -1
    endloop
  endfacet
  facet normal 0 1 -0
    outer loop
      vertex 1.56793 -14.9178 -1
      vertex -1.56793 -14.9178 1
      vertex 1.56793 -14.9178 1
    endloop
  endfacet
  facet normal 0 1 0
    outer loop
      vertex -1.56793 -14.9178 1
      vertex 1.56793 -14.9178 -1
      vertex -1.56793 -14.9178 -1
    endloop
  endfacet
  facet normal 0.207912 0.978148 -0
    outer loop
      vertex -1.56793 -14.9178 -1
      vertex -4.63525 -14.2658 1
      vertex -1.56793 -14.9178 1
    endloop
  endfacet
  facet normal 0.207912 0.978148 0
    outer loop
      vertex -4.63525 -14.2658 1
      vertex -1.56793 -14.9178 -1
      vertex -4.63525 -14.2658 -1
    endloop
  endfacet
  facet normal 0.951057 0.309017 0
    outer loop
      vertex -13.7032 -6.10105 1
      vertex -14.6722 -3.11868 -1
      vertex -14.6722 -3.11868 1
    endloop
  endfacet
  facet normal 0.951057 0.309017 0
    outer loop
      vertex -14.6722 -3.11868 -1
      vertex -13.7032 -6.10105 1
      vertex -13.7032 -6.10105 -1
    endloop
  endfacet
  facet normal -0.743145 0.669131 0
    outer loop
      vertex 10.037 -11.1472 -1
      vertex 12.1353 -8.81678 1
      vertex 12.1353 -8.81678 -1
    endloop
  endfacet
  facet normal -0.743145 0.669131 0
    outer loop
      vertex 12.1353 -8.81678 1
      vertex 10.037 -11.1472 -1
      vertex 10.037 -11.1472 1
    endloop
  endfacet
  facet normal 0.406737 0.913545 -0
    outer loop
      vertex -4.63525 -14.2658 -1
      vertex -7.5 -12.9904 1
      vertex -4.63525 -14.2658 1
    endloop
  endfacet
  facet normal 0.406737 0.913545 0
    outer loop
      vertex -7.5 -12.9904 1
      vertex -4.63525 -14.2658 -1
      vertex -7.5 -12.9904 -1
    endloop
  endfacet
  facet normal -0.866025 -0.5 0
    outer loop
      vertex -14.7 11 -1
      vertex -15.6 12.5588 1
      vertex -15.6 12.5588 -1
    endloop
  endfacet
  facet normal -0.866025 -0.5 0
    outer loop
      vertex -15.6 12.5588 1
      vertex -14.7 11 -1
      vertex -14.7 11 1
    endloop
  endfacet
  facet normal 0.866026 0.5 0
    outer loop
      vertex -17.4 9.44115 1
      vertex -18.3 11 -1
      vertex -18.3 11 1
    endloop
  endfacet
  facet normal 0.866026 0.5 0
    outer loop
      vertex -18.3 11 -1
      vertex -17.4 9.44115 1
      vertex -17.4 9.44115 -1
    endloop
  endfacet
  facet normal 0 -1 0
    outer loop
      vertex -17.4 12.5588 -1
      vertex -15.6 12.5588 1
      vertex -17.4 12.5588 1
    endloop
  endfacet
  facet normal 0 -1 -0
    outer loop
      vertex -15.6 12.5588 1
      vertex -17.4 12.5588 -1
      vertex -15.6 12.5588 -1
    endloop
  endfacet
  facet normal 0 1 -0
    outer loop
      vertex -15.6 9.44115 -1
      vertex -17.4 9.44115 1
      vertex -15.6 9.44115 1
    endloop
  endfacet
  facet normal 0 1 0
    outer loop
      vertex -17.4 9.44115 1
      vertex -15.6 9.44115 -1
      vertex -17.4 9.44115 -1
    endloop
  endfacet
  facet normal 0.866025 -0.5 0
    outer loop
      vertex -18.3 11 1
      vertex -17.4 12.5588 -1
      vertex -17.4 12.5588 1
    endloop
  endfacet
  facet normal 0.866025 -0.5 0
    outer loop
      vertex -17.4 12.5588 -1
      vertex -18.3 11 1
      vertex -18.3 11 -1
    endloop
  endfacet
  facet normal -0.866026 0.5 0
    outer loop
      vertex -15.6 9.44115 -1
      vertex -14.7 11 1
      vertex -14.7 11 -1
    endloop
  endfacet
  facet normal -0.866026 0.5 0
    outer loop
      vertex -14.7 11 1
      vertex -15.6 9.44115 -1
      vertex -15.6 9.44115 1
    endloop
  endfacet
  facet normal -0.866026 -0.5 0
    outer loop
      vertex -14.7 -11 -1
      vertex -15.6 -9.44115 1
      vertex -15.6 -9.44115 -1
    endloop
  endfacet
  facet normal -0.866026 -0.5 0
    outer loop
      vertex -15.6 -9.44115 1
      vertex -14.7 -11 -1
      vertex -14.7 -11 1
    endloop
  endfacet
  facet normal 0.866026 -0.5 0
    outer loop
      vertex -18.3 -11 1
      vertex -17.4 -9.44115 -1
      vertex -17.4 -9.44115 1
    endloop
  endfacet
  facet normal 0.866026 -0.5 0
    outer loop
      vertex -17.4 -9.44115 -1
      vertex -18.3 -11 1
      vertex -18.3 -11 -1
    endloop
  endfacet
  facet normal 0 -1 0
    outer loop
      vertex -17.4 -9.44115 -1
      vertex -15.6 -9.44115 1
      vertex -17.4 -9.44115 1
    endloop
  endfacet
  facet normal 0 -1 -0
    outer loop
      vertex -15.6 -9.44115 1
      vertex -17.4 -9.44115 -1
      vertex -15.6 -9.44115 -1
    endloop
  endfacet
  facet normal 0.866025 0.5 0
    outer loop
      vertex -17.4 -12.5588 1
      vertex -18.3 -11 -1
      vertex -18.3 -11 1
    endloop
  endfacet
  facet normal 0.866025 0.5 0
    outer loop
      vertex -18.3 -11 -1
      vertex -17.4 -12.5588 1
      vertex -17.4 -12.5588 -1
    endloop
  endfacet
  facet normal -0.866025 0.5 0
    outer loop
      vertex -15.6 -12.5588 -1
      vertex -14.7 -11 1
      vertex -14.7 -11 -1
    endloop
  endfacet
  facet normal -0.866025 0.5 0
    outer loop
      vertex -14.7 -11 1
      vertex -15.6 -12.5588 -1
      vertex -15.6 -12.5588 1
    endloop
  endfacet
  facet normal 0 1 -0
    outer loop
      vertex -15.6 -12.5588 -1
      vertex -17.4 -12.5588 1
      vertex -15.6 -12.5588 1
    endloop
  endfacet
  facet normal 0 1 0
    outer loop
      vertex -17.4 -12.5588 1
      vertex -15.6 -12.5588 -1
      vertex -17.4 -12.5588 -1
    endloop
  endfacet
  facet normal -0.866025 -0.5 0
    outer loop
      vertex 19.3 11 -1
      vertex 18.4 12.5588 1
      vertex 18.4 12.5588 -1
    endloop
  endfacet
  facet normal -0.866025 -0.5 0
    outer loop
      vertex 18.4 12.5588 1
      vertex 19.3 11 -1
      vertex 19.3 11 1
    endloop
  endfacet
  facet normal 0.866026 0.499999 0
    outer loop
      vertex 16.6 9.44115 1
      vertex 15.7 11 -1
      vertex 15.7 11 1
    endloop
  endfacet
  facet normal 0.866026 0.499999 0
    outer loop
      vertex 15.7 11 -1
      vertex 16.6 9.44115 1
      vertex 16.6 9.44115 -1
    endloop
  endfacet
  facet normal 0 -1 0
    outer loop
      vertex 16.6 12.5588 -1
      vertex 18.4 12.5588 1
      vertex 16.6 12.5588 1
    endloop
  endfacet
  facet normal 0 -1 -0
    outer loop
      vertex 18.4 12.5588 1
      vertex 16.6 12.5588 -1
      vertex 18.4 12.5588 -1
    endloop
  endfacet
  facet normal 0 1 -0
    outer loop
      vertex 18.4 9.44115 -1
      vertex 16.6 9.44115 1
      vertex 18.4 9.44115 1
    endloop
  endfacet
  facet normal 0 1 0
    outer loop
      vertex 16.6 9.44115 1
      vertex 18.4 9.44115 -1
      vertex 16.6 9.44115 -1
    endloop
  endfacet
  facet normal 0.866026 -0.499999 0
    outer loop
      vertex 15.7 11 1
      vertex 16.6 12.5588 -1
      vertex 16.6 12.5588 1
    endloop
  endfacet
  facet normal 0.866026 -0.499999 0
    outer loop
      vertex 16.6 12.5588 -1
      vertex 15.7 11 1
      vertex 15.7 11 -1
    endloop
  endfacet
  facet normal -0.866026 0.5 0
    outer loop
      vertex 18.4 9.44115 -1
      vertex 19.3 11 1
      vertex 19.3 11 -1
    endloop
  endfacet
  facet normal -0.866026 0.5 0
    outer loop
      vertex 19.3 11 1
      vertex 18.4 9.44115 -1
      vertex 18.4 9.44115 1
    endloop
  endfacet
  facet normal -0.780262 0.450484 -0.433884
    outer loop
      vertex 25.0562 -15.6209 5.43336
      vertex 25.9366 -13.8198 5.72003
      vertex 26.5344 -14.1649 4.28667
    endloop
  endfacet
  facet normal -0.780261 0.450484 -0.433885
    outer loop
      vertex 25.9366 -13.8198 5.72003
      vertex 25.0562 -15.6209 5.43336
      vertex 24.9366 -15.5519 5.72003
    endloop
  endfacet
  facet normal 0.539958 -0.311745 -0.781831
    outer loop
      vertex 22.2476 -13.9993 5.15293
      vertex 23.0321 -12.1429 4.95454
      vertex 24.1093 -12.7648 5.94646
    endloop
  endfacet
  facet normal 0.539959 -0.311746 -0.78183
    outer loop
      vertex 23.0321 -12.1429 4.95454
      vertex 22.2476 -13.9993 5.15293
      vertex 22.0321 -13.875 4.95454
    endloop
  endfacet
  facet normal -0.780262 0.450484 -0.433884
    outer loop
      vertex 25.654 -15.966 4
      vertex 26.5344 -14.1649 4.28667
      vertex 26.654 -14.234 4
    endloop
  endfacet
  facet normal -0.780262 0.450484 -0.433884
    outer loop
      vertex 26.5344 -14.1649 4.28667
      vertex 25.654 -15.966 4
      vertex 25.0562 -15.6209 5.43336
    endloop
  endfacet
  facet normal -0.780262 0.450484 0.433885
    outer loop
      vertex 25.0562 -15.6209 2.56664
      vertex 25.9366 -13.8198 2.27997
      vertex 24.9366 -15.5519 2.27997
    endloop
  endfacet
  facet normal -0.780262 0.450484 0.433884
    outer loop
      vertex 25.9366 -13.8198 2.27997
      vertex 25.0562 -15.6209 2.56664
      vertex 26.5344 -14.1649 3.71333
    endloop
  endfacet
  facet normal -0.192709 0.11126 0.974928
    outer loop
      vertex 24.3248 -12.8892 1.85516
      vertex 24.9366 -15.5519 2.27997
      vertex 25.9366 -13.8198 2.27997
    endloop
  endfacet
  facet normal -0.192709 0.11126 0.974928
    outer loop
      vertex 24.9366 -15.5519 2.27997
      vertex 24.3248 -12.8892 1.85516
      vertex 23.3248 -14.6213 1.85516
    endloop
  endfacet
  facet normal 0.866025 -0.5 0
    outer loop
      vertex 22.0321 -13.875 4.95454
      vertex 23.0321 -12.1429 3.04545
      vertex 23.0321 -12.1429 4.95454
    endloop
  endfacet
  facet normal 0.866025 -0.5 0
    outer loop
      vertex 23.0321 -12.1429 3.04545
      vertex 22.0321 -13.875 4.95454
      vertex 22.0321 -13.875 3.04545
    endloop
  endfacet
  facet normal -0.192709 0.11126 -0.974928
    outer loop
      vertex 24.9366 -15.5519 5.72003
      vertex 24.3248 -12.8892 6.14484
      vertex 25.9366 -13.8198 5.72003
    endloop
  endfacet
  facet normal -0.192709 0.11126 -0.974928
    outer loop
      vertex 24.3248 -12.8892 6.14484
      vertex 24.9366 -15.5519 5.72003
      vertex 23.3248 -14.6213 6.14484
    endloop
  endfacet
  facet normal -0.780262 0.450484 0.433883
    outer loop
      vertex 25.654 -15.966 4
      vertex 26.5344 -14.1649 3.71333
      vertex 25.0562 -15.6209 2.56664
    endloop
  endfacet
  facet normal -0.780262 0.450484 0.433884
    outer loop
      vertex 26.5344 -14.1649 3.71333
      vertex 25.654 -15.966 4
      vertex 26.654 -14.234 4
    endloop
  endfacet
  facet normal 0.539958 -0.311745 0.781832
    outer loop
      vertex 23.0321 -12.1429 3.04545
      vertex 22.2476 -13.9993 2.84707
      vertex 24.1093 -12.7648 2.05354
    endloop
  endfacet
  facet normal 0.539959 -0.311745 0.781831
    outer loop
      vertex 22.2476 -13.9993 2.84707
      vertex 23.0321 -12.1429 3.04545
      vertex 22.0321 -13.875 3.04545
    endloop
  endfacet
  facet normal 0.539959 -0.311746 -0.78183
    outer loop
      vertex 23.3248 -14.6213 6.14484
      vertex 24.1093 -12.7648 5.94646
      vertex 24.3248 -12.8892 6.14484
    endloop
  endfacet
  facet normal 0.539958 -0.311745 -0.781831
    outer loop
      vertex 24.1093 -12.7648 5.94646
      vertex 23.3248 -14.6213 6.14484
      vertex 22.2476 -13.9993 5.15293
    endloop
  endfacet
  facet normal 0.53996 -0.311746 0.78183
    outer loop
      vertex 24.1093 -12.7648 2.05354
      vertex 23.3248 -14.6213 1.85516
      vertex 24.3248 -12.8892 1.85516
    endloop
  endfacet
  facet normal 0.539958 -0.311745 0.781831
    outer loop
      vertex 23.3248 -14.6213 1.85516
      vertex 24.1093 -12.7648 2.05354
      vertex 22.2476 -13.9993 2.84707
    endloop
  endfacet
endsolid OpenSCAD_Model
