solid OpenSCAD_Model
  facet normal -1 0 0
    outer loop
      vertex -72.5 -60 -20
      vertex -72.5 -57 20
      vertex -72.5 -57 -20
    endloop
  endfacet
  facet normal -1 -0 0
    outer loop
      vertex -72.5 -57 20
      vertex -72.5 -60 -20
      vertex -72.5 -60 20
    endloop
  endfacet
  facet normal -1 0 0
    outer loop
      vertex -72.5 57 -20
      vertex -72.5 60 20
      vertex -72.5 60 -20
    endloop
  endfacet
  facet normal -1 -0 0
    outer loop
      vertex -72.5 60 20
      vertex -72.5 57 -20
      vertex -72.5 57 20
    endloop
  endfacet
  facet normal 0 0 1
    outer loop
      vertex 72.5 60 20
      vertex 69.5 57 20
      vertex 72.5 -60 20
    endloop
  endfacet
  facet normal -0 0 1
    outer loop
      vertex -72.5 60 20
      vertex 69.5 57 20
      vertex 72.5 60 20
    endloop
  endfacet
  facet normal 0 0 1
    outer loop
      vertex 69.5 57 20
      vertex -72.5 60 20
      vertex -72.5 57 20
    endloop
  endfacet
  facet normal -0 0 1
    outer loop
      vertex 69.5 -57 20
      vertex 72.5 -60 20
      vertex 69.5 57 20
    endloop
  endfacet
  facet normal 0 0 1
    outer loop
      vertex -72.5 -60 20
      vertex 69.5 -57 20
      vertex -72.5 -57 20
    endloop
  endfacet
  facet normal 0 0 1
    outer loop
      vertex 69.5 -57 20
      vertex -72.5 -60 20
      vertex 72.5 -60 20
    endloop
  endfacet
  facet normal 1 -0 0
    outer loop
      vertex 72.5 -60 20
      vertex 72.5 60 0
      vertex 72.5 60 20
    endloop
  endfacet
  facet normal 1 0 0
    outer loop
      vertex 72.5 60 0
      vertex 72.5 -60 20
      vertex 72.5 -60 0
    endloop
  endfacet
  facet normal 0 0 -1
    outer loop
      vertex -72.5 -60 -20
      vertex 69.5 -57 -20
      vertex 69.5 -60 -20
    endloop
  endfacet
  facet normal -0 0 -1
    outer loop
      vertex 69.5 -57 -20
      vertex -72.5 -60 -20
      vertex -72.5 -57 -20
    endloop
  endfacet
  facet normal 0 0 -1
    outer loop
      vertex -72.5 57 -20
      vertex 69.5 60 -20
      vertex 69.5 57 -20
    endloop
  endfacet
  facet normal -0 0 -1
    outer loop
      vertex 69.5 60 -20
      vertex -72.5 57 -20
      vertex -72.5 60 -20
    endloop
  endfacet
  facet normal 0 -1 -0
    outer loop
      vertex -53.7021 -60 -11.437
      vertex -67.2 -60 -17.1588
      vertex -51.2979 -60 -11.437
    endloop
  endfacet
  facet normal 0 -1 0
    outer loop
      vertex -51.2979 -60 -11.437
      vertex -38.7 -60 -15.6
      vertex -37.8 -60 -14.0412
    endloop
  endfacet
  facet normal 0 -1 0
    outer loop
      vertex -37.8 -60 -17.1588
      vertex -51.2979 -60 -11.437
      vertex -67.2 -60 -17.1588
    endloop
  endfacet
  facet normal 0 -1 0
    outer loop
      vertex -51.2979 -60 -11.437
      vertex -37.8 -60 -17.1588
      vertex -38.7 -60 -15.6
    endloop
  endfacet
  facet normal 0 -1 0
    outer loop
      vertex -36 -60 14.0412
      vertex -36 -60 -14.0412
      vertex -35.1 -60 15.6
    endloop
  endfacet
  facet normal 0 -1 0
    outer loop
      vertex -36 -60 -14.0412
      vertex -41.2513 -60 -2.39098
      vertex -41.9942 -60 -4.67747
    endloop
  endfacet
  facet normal 0 -1 0
    outer loop
      vertex -37.8 -60 -14.0412
      vertex -41.9942 -60 -4.67747
      vertex -43.1963 -60 -6.75953
    endloop
  endfacet
  facet normal 0 -1 0
    outer loop
      vertex -37.8 -60 -14.0412
      vertex -43.1963 -60 -6.75953
      vertex -44.805 -60 -8.54617
    endloop
  endfacet
  facet normal 0 -1 0
    outer loop
      vertex -37.8 -60 -14.0412
      vertex -44.805 -60 -8.54617
      vertex -46.75 -60 -9.95929
    endloop
  endfacet
  facet normal 0 -1 0
    outer loop
      vertex -35.1 -60 -15.6
      vertex -35.1 -60 15.6
      vertex -36 -60 -14.0412
    endloop
  endfacet
  facet normal 0 -1 0
    outer loop
      vertex -37.8 -60 -14.0412
      vertex -46.75 -60 -9.95929
      vertex -48.9463 -60 -10.9371
    endloop
  endfacet
  facet normal 0 -1 0
    outer loop
      vertex -35.1 -60 15.6
      vertex -35.1 -60 -15.6
      vertex 65.5 -60 0
    endloop
  endfacet
  facet normal 0 -1 0
    outer loop
      vertex -37.8 -60 -14.0412
      vertex -48.9463 -60 -10.9371
      vertex -51.2979 -60 -11.437
    endloop
  endfacet
  facet normal 0 -1 -0
    outer loop
      vertex -56.0537 -60 -10.9371
      vertex -66.3 -60 -15.6
      vertex -53.7021 -60 -11.437
    endloop
  endfacet
  facet normal 0 -1 0
    outer loop
      vertex -67.2 -60 -17.1588
      vertex -53.7021 -60 -11.437
      vertex -66.3 -60 -15.6
    endloop
  endfacet
  facet normal 0 -1 0
    outer loop
      vertex -41.9942 -60 -4.67747
      vertex -37.8 -60 -14.0412
      vertex -36 -60 -14.0412
    endloop
  endfacet
  facet normal 0 -1 -0
    outer loop
      vertex 65.5 -60 0
      vertex -35.1 -60 -15.6
      vertex 65.5 -60 -10
    endloop
  endfacet
  facet normal 0 -1 0
    outer loop
      vertex 69.5 -60 -20
      vertex 65.5 -60 -10
      vertex -35.1 -60 -15.6
    endloop
  endfacet
  facet normal 0 -1 0
    outer loop
      vertex 69.5 -60 -20
      vertex -35.1 -60 -15.6
      vertex -36 -60 -17.1588
    endloop
  endfacet
  facet normal 0 -1 0
    outer loop
      vertex 69.5 -60 -20
      vertex -36 -60 -17.1588
      vertex -72.5 -60 -20
    endloop
  endfacet
  facet normal 0 -1 0
    outer loop
      vertex 65.5 -60 -10
      vertex 69.5 -60 -20
      vertex 69.5 -60 -10
    endloop
  endfacet
  facet normal 0 -1 0
    outer loop
      vertex -53.7021 -60 11.437
      vertex -67.2 -60 17.1588
      vertex -66.3 -60 15.6
    endloop
  endfacet
  facet normal 0 -1 0
    outer loop
      vertex -67.2 -60 17.1588
      vertex -53.7021 -60 11.437
      vertex -37.8 -60 17.1588
    endloop
  endfacet
  facet normal 0 -1 0
    outer loop
      vertex -60.195 -60 8.54617
      vertex -66.3 -60 15.6
      vertex -67.2 -60 14.0412
    endloop
  endfacet
  facet normal 0 -1 0
    outer loop
      vertex -51.2979 -60 11.437
      vertex -37.8 -60 17.1588
      vertex -53.7021 -60 11.437
    endloop
  endfacet
  facet normal 0 -1 0
    outer loop
      vertex -67.2 -60 17.1588
      vertex -72.5 -60 20
      vertex -69 -60 17.1588
    endloop
  endfacet
  facet normal 0 -1 0
    outer loop
      vertex -72.5 -60 20
      vertex -69.9 -60 15.6
      vertex -69 -60 17.1588
    endloop
  endfacet
  facet normal 0 -1 0
    outer loop
      vertex -69.9 -60 -15.6
      vertex -69.9 -60 15.6
      vertex -72.5 -60 20
    endloop
  endfacet
  facet normal 0 -1 0
    outer loop
      vertex -63.0058 -60 4.67747
      vertex -67.2 -60 14.0412
      vertex -69 -60 14.0412
    endloop
  endfacet
  facet normal 0 -1 0
    outer loop
      vertex -37.8 -60 17.1588
      vertex -51.2979 -60 11.437
      vertex -38.7 -60 15.6
    endloop
  endfacet
  facet normal 0 -1 0
    outer loop
      vertex -48.9463 -60 10.9371
      vertex -38.7 -60 15.6
      vertex -51.2979 -60 11.437
    endloop
  endfacet
  facet normal 0 -1 0
    outer loop
      vertex -66.3 -60 15.6
      vertex -56.0537 -60 10.9371
      vertex -53.7021 -60 11.437
    endloop
  endfacet
  facet normal 0 -1 0
    outer loop
      vertex -66.3 -60 15.6
      vertex -58.25 -60 9.95929
      vertex -56.0537 -60 10.9371
    endloop
  endfacet
  facet normal 0 -1 0
    outer loop
      vertex -66.3 -60 15.6
      vertex -60.195 -60 8.54617
      vertex -58.25 -60 9.95929
    endloop
  endfacet
  facet normal 0 -1 0
    outer loop
      vertex -67.2 -60 14.0412
      vertex -61.8037 -60 6.75953
      vertex -60.195 -60 8.54617
    endloop
  endfacet
  facet normal 0 -1 0
    outer loop
      vertex -67.2 -60 14.0412
      vertex -63.0058 -60 4.67747
      vertex -61.8037 -60 6.75953
    endloop
  endfacet
  facet normal 0 -1 0
    outer loop
      vertex -69 -60 14.0412
      vertex -63.7487 -60 2.39098
      vertex -63.0058 -60 4.67747
    endloop
  endfacet
  facet normal 0 -1 0
    outer loop
      vertex -69.9 -60 15.6
      vertex -69.9 -60 -15.6
      vertex -69 -60 14.0412
    endloop
  endfacet
  facet normal 0 -1 0
    outer loop
      vertex -69 -60 14.0412
      vertex -64 -60 0
      vertex -63.7487 -60 2.39098
    endloop
  endfacet
  facet normal 0 -1 0
    outer loop
      vertex -69 -60 14.0412
      vertex -69 -60 -14.0412
      vertex -64 -60 0
    endloop
  endfacet
  facet normal 0 -1 -0
    outer loop
      vertex -64 -60 0
      vertex -69 -60 -14.0412
      vertex -63.7487 -60 -2.39098
    endloop
  endfacet
  facet normal 0 -1 -0
    outer loop
      vertex -58.25 -60 -9.95929
      vertex -66.3 -60 -15.6
      vertex -56.0537 -60 -10.9371
    endloop
  endfacet
  facet normal 0 -1 -0
    outer loop
      vertex -60.195 -60 -8.54617
      vertex -66.3 -60 -15.6
      vertex -58.25 -60 -9.95929
    endloop
  endfacet
  facet normal 0 -1 0
    outer loop
      vertex -66.3 -60 -15.6
      vertex -60.195 -60 -8.54617
      vertex -67.2 -60 -14.0412
    endloop
  endfacet
  facet normal 0 -1 -0
    outer loop
      vertex -61.8037 -60 -6.75953
      vertex -67.2 -60 -14.0412
      vertex -60.195 -60 -8.54617
    endloop
  endfacet
  facet normal 0 -1 -0
    outer loop
      vertex -63.0058 -60 -4.67747
      vertex -67.2 -60 -14.0412
      vertex -61.8037 -60 -6.75953
    endloop
  endfacet
  facet normal 0 -1 0
    outer loop
      vertex -67.2 -60 -14.0412
      vertex -63.0058 -60 -4.67747
      vertex -69 -60 -14.0412
    endloop
  endfacet
  facet normal 0 -1 -0
    outer loop
      vertex -63.7487 -60 -2.39098
      vertex -69 -60 -14.0412
      vertex -63.0058 -60 -4.67747
    endloop
  endfacet
  facet normal 0 -1 -0
    outer loop
      vertex -69 -60 14.0412
      vertex -69.9 -60 -15.6
      vertex -69 -60 -14.0412
    endloop
  endfacet
  facet normal 0 -1 0
    outer loop
      vertex -72.5 -60 -20
      vertex -67.2 -60 -17.1588
      vertex -69 -60 -17.1588
    endloop
  endfacet
  facet normal 0 -1 -0
    outer loop
      vertex -67.2 -60 -17.1588
      vertex -72.5 -60 -20
      vertex -37.8 -60 -17.1588
    endloop
  endfacet
  facet normal 0 -1 -0
    outer loop
      vertex -37.8 -60 -17.1588
      vertex -72.5 -60 -20
      vertex -36 -60 -17.1588
    endloop
  endfacet
  facet normal 0 -1 -0
    outer loop
      vertex -69.9 -60 -15.6
      vertex -72.5 -60 -20
      vertex -69 -60 -17.1588
    endloop
  endfacet
  facet normal 0 -1 0
    outer loop
      vertex -72.5 -60 -20
      vertex -69.9 -60 -15.6
      vertex -72.5 -60 20
    endloop
  endfacet
  facet normal 0 -1 0
    outer loop
      vertex -37.8 -60 17.1588
      vertex -72.5 -60 20
      vertex -67.2 -60 17.1588
    endloop
  endfacet
  facet normal 0 -1 0
    outer loop
      vertex -36 -60 17.1588
      vertex -72.5 -60 20
      vertex -37.8 -60 17.1588
    endloop
  endfacet
  facet normal 0 -1 0
    outer loop
      vertex -72.5 -60 20
      vertex -36 -60 17.1588
      vertex 72.5 -60 20
    endloop
  endfacet
  facet normal 0 -1 0
    outer loop
      vertex -35.1 -60 15.6
      vertex 72.5 -60 20
      vertex -36 -60 17.1588
    endloop
  endfacet
  facet normal 0 -1 0
    outer loop
      vertex -36 -60 -14.0412
      vertex -41 -60 0
      vertex -41.2513 -60 -2.39098
    endloop
  endfacet
  facet normal 0 -1 0
    outer loop
      vertex -46.75 -60 9.95929
      vertex -38.7 -60 15.6
      vertex -48.9463 -60 10.9371
    endloop
  endfacet
  facet normal 0 -1 0
    outer loop
      vertex -44.805 -60 8.54617
      vertex -38.7 -60 15.6
      vertex -46.75 -60 9.95929
    endloop
  endfacet
  facet normal 0 -1 -0
    outer loop
      vertex -38.7 -60 15.6
      vertex -44.805 -60 8.54617
      vertex -37.8 -60 14.0412
    endloop
  endfacet
  facet normal 0 -1 0
    outer loop
      vertex -43.1963 -60 6.75953
      vertex -37.8 -60 14.0412
      vertex -44.805 -60 8.54617
    endloop
  endfacet
  facet normal 0 -1 0
    outer loop
      vertex -41.9942 -60 4.67747
      vertex -37.8 -60 14.0412
      vertex -43.1963 -60 6.75953
    endloop
  endfacet
  facet normal 0 -1 -0
    outer loop
      vertex -37.8 -60 14.0412
      vertex -41.9942 -60 4.67747
      vertex -36 -60 14.0412
    endloop
  endfacet
  facet normal 0 -1 0
    outer loop
      vertex -41.2513 -60 2.39098
      vertex -36 -60 14.0412
      vertex -41.9942 -60 4.67747
    endloop
  endfacet
  facet normal 0 -1 0
    outer loop
      vertex -41 -60 0
      vertex -36 -60 14.0412
      vertex -41.2513 -60 2.39098
    endloop
  endfacet
  facet normal 0 -1 0
    outer loop
      vertex -41 -60 0
      vertex -36 -60 -14.0412
      vertex -36 -60 14.0412
    endloop
  endfacet
  facet normal 0 -1 0
    outer loop
      vertex -35.1 -60 15.6
      vertex 65.5 -60 0
      vertex 72.5 -60 20
    endloop
  endfacet
  facet normal 0 -1 -0
    outer loop
      vertex 72.5 -60 20
      vertex 65.5 -60 0
      vertex 72.5 -60 0
    endloop
  endfacet
  facet normal 0 1 0
    outer loop
      vertex -66.3 60 -15.6
      vertex -53.4884 60 -8.14021
      vertex -38.7 60 -15.6
    endloop
  endfacet
  facet normal 0 1 0
    outer loop
      vertex -53.4884 60 -8.14021
      vertex -66.3 60 -15.6
      vertex -67.2 60 -14.0412
    endloop
  endfacet
  facet normal 0 1 0
    outer loop
      vertex -37.8 60 -17.1588
      vertex -66.3 60 -15.6
      vertex -38.7 60 -15.6
    endloop
  endfacet
  facet normal 0 1 0
    outer loop
      vertex -66.3 60 -15.6
      vertex -37.8 60 -17.1588
      vertex -67.2 60 -17.1588
    endloop
  endfacet
  facet normal 0 1 -0
    outer loop
      vertex 69.5 60 -20
      vertex 65.5 60 -10
      vertex 69.5 60 -10
    endloop
  endfacet
  facet normal 0 1 0
    outer loop
      vertex 65.5 60 -10
      vertex -35.1 60 -15.6
      vertex -36 60 -14.0412
    endloop
  endfacet
  facet normal 0 1 0
    outer loop
      vertex 65.5 60 -10
      vertex 69.5 60 -20
      vertex -35.1 60 -15.6
    endloop
  endfacet
  facet normal 0 1 0
    outer loop
      vertex -72.5 60 -20
      vertex -37.8 60 -17.1588
      vertex -36 60 -17.1588
    endloop
  endfacet
  facet normal 0 1 0
    outer loop
      vertex -37.8 60 -17.1588
      vertex -72.5 60 -20
      vertex -67.2 60 -17.1588
    endloop
  endfacet
  facet normal 0 1 0
    outer loop
      vertex -72.5 60 -20
      vertex -36 60 -17.1588
      vertex 69.5 60 -20
    endloop
  endfacet
  facet normal 0 1 0
    outer loop
      vertex -35.1 60 -15.6
      vertex 69.5 60 -20
      vertex -36 60 -17.1588
    endloop
  endfacet
  facet normal 0 1 -0
    outer loop
      vertex -38.7 60 15.6
      vertex -67.2 60 17.1588
      vertex -37.8 60 17.1588
    endloop
  endfacet
  facet normal 0 1 0
    outer loop
      vertex -38.7 60 15.6
      vertex -66.3 60 15.6
      vertex -67.2 60 17.1588
    endloop
  endfacet
  facet normal 0 1 0
    outer loop
      vertex -47.8419 60 6.74847
      vertex -38.7 60 15.6
      vertex -37.8 60 14.0412
    endloop
  endfacet
  facet normal 0 1 0
    outer loop
      vertex -38.7 60 15.6
      vertex -51.5116 60 8.14021
      vertex -66.3 60 15.6
    endloop
  endfacet
  facet normal 0 1 0
    outer loop
      vertex 72.5 60 20
      vertex -36 60 17.1588
      vertex -72.5 60 20
    endloop
  endfacet
  facet normal 0 1 0
    outer loop
      vertex 72.5 60 20
      vertex -35.1 60 15.6
      vertex -36 60 17.1588
    endloop
  endfacet
  facet normal 0 1 -0
    outer loop
      vertex 65.5 60 0
      vertex -35.1 60 15.6
      vertex 72.5 60 20
    endloop
  endfacet
  facet normal 0 1 0
    outer loop
      vertex -44.5383 60 1.96239
      vertex -37.8 60 14.0412
      vertex -36 60 14.0412
    endloop
  endfacet
  facet normal 0 1 -0
    outer loop
      vertex -53.4884 60 8.14021
      vertex -66.3 60 15.6
      vertex -51.5116 60 8.14021
    endloop
  endfacet
  facet normal 0 1 -0
    outer loop
      vertex -55.4078 60 7.66713
      vertex -66.3 60 15.6
      vertex -53.4884 60 8.14021
    endloop
  endfacet
  facet normal 0 1 0
    outer loop
      vertex -36 60 -14.0412
      vertex -35.1 60 15.6
      vertex 65.5 60 0
    endloop
  endfacet
  facet normal 0 1 0
    outer loop
      vertex -38.7 60 15.6
      vertex -49.5922 60 7.66713
      vertex -51.5116 60 8.14021
    endloop
  endfacet
  facet normal 0 1 0
    outer loop
      vertex -38.7 60 15.6
      vertex -47.8419 60 6.74847
      vertex -49.5922 60 7.66713
    endloop
  endfacet
  facet normal 0 1 0
    outer loop
      vertex -37.8 60 14.0412
      vertex -46.3622 60 5.4376
      vertex -47.8419 60 6.74847
    endloop
  endfacet
  facet normal 0 1 0
    outer loop
      vertex -37.8 60 14.0412
      vertex -45.2393 60 3.81073
      vertex -46.3622 60 5.4376
    endloop
  endfacet
  facet normal 0 1 0
    outer loop
      vertex -35.1 60 15.6
      vertex -36 60 -14.0412
      vertex -36 60 14.0412
    endloop
  endfacet
  facet normal 0 1 0
    outer loop
      vertex 65.5 60 0
      vertex 72.5 60 20
      vertex 72.5 60 0
    endloop
  endfacet
  facet normal 0 1 0
    outer loop
      vertex -37.8 60 14.0412
      vertex -44.5383 60 1.96239
      vertex -45.2393 60 3.81073
    endloop
  endfacet
  facet normal -0 1 0
    outer loop
      vertex -44.3 60 0
      vertex -36 60 14.0412
      vertex -36 60 -14.0412
    endloop
  endfacet
  facet normal 0 1 0
    outer loop
      vertex -36 60 14.0412
      vertex -44.3 60 0
      vertex -44.5383 60 1.96239
    endloop
  endfacet
  facet normal 0 1 0
    outer loop
      vertex -44.3 60 0
      vertex -36 60 -14.0412
      vertex -44.5383 60 -1.96239
    endloop
  endfacet
  facet normal 0 1 -0
    outer loop
      vertex -37.8 60 -14.0412
      vertex -44.5383 60 -1.96239
      vertex -36 60 -14.0412
    endloop
  endfacet
  facet normal 0 1 0
    outer loop
      vertex -44.5383 60 -1.96239
      vertex -37.8 60 -14.0412
      vertex -45.2393 60 -3.81073
    endloop
  endfacet
  facet normal 0 1 0
    outer loop
      vertex -45.2393 60 -3.81073
      vertex -37.8 60 -14.0412
      vertex -46.3622 60 -5.4376
    endloop
  endfacet
  facet normal 0 1 0
    outer loop
      vertex -46.3622 60 -5.4376
      vertex -37.8 60 -14.0412
      vertex -47.8419 60 -6.74847
    endloop
  endfacet
  facet normal 0 1 -0
    outer loop
      vertex -38.7 60 -15.6
      vertex -47.8419 60 -6.74847
      vertex -37.8 60 -14.0412
    endloop
  endfacet
  facet normal 0 1 0
    outer loop
      vertex -36 60 -14.0412
      vertex 65.5 60 0
      vertex 65.5 60 -10
    endloop
  endfacet
  facet normal 0 1 -0
    outer loop
      vertex -37.8 60 17.1588
      vertex -72.5 60 20
      vertex -36 60 17.1588
    endloop
  endfacet
  facet normal 0 1 -0
    outer loop
      vertex -67.2 60 17.1588
      vertex -72.5 60 20
      vertex -37.8 60 17.1588
    endloop
  endfacet
  facet normal 0 1 -0
    outer loop
      vertex -69 60 17.1588
      vertex -72.5 60 20
      vertex -67.2 60 17.1588
    endloop
  endfacet
  facet normal 0 1 -0
    outer loop
      vertex -69.9 60 15.6
      vertex -72.5 60 20
      vertex -69 60 17.1588
    endloop
  endfacet
  facet normal 0 1 0
    outer loop
      vertex -69.9 60 -15.6
      vertex -69.9 60 15.6
      vertex -69 60 14.0412
    endloop
  endfacet
  facet normal 0 1 -0
    outer loop
      vertex -57.1581 60 6.74847
      vertex -66.3 60 15.6
      vertex -55.4078 60 7.66713
    endloop
  endfacet
  facet normal 0 1 0
    outer loop
      vertex -66.3 60 15.6
      vertex -57.1581 60 6.74847
      vertex -67.2 60 14.0412
    endloop
  endfacet
  facet normal 0 1 -0
    outer loop
      vertex -58.6378 60 5.4376
      vertex -67.2 60 14.0412
      vertex -57.1581 60 6.74847
    endloop
  endfacet
  facet normal 0 1 -0
    outer loop
      vertex -59.7607 60 3.81073
      vertex -67.2 60 14.0412
      vertex -58.6378 60 5.4376
    endloop
  endfacet
  facet normal 0 1 -0
    outer loop
      vertex -60.4617 60 1.96239
      vertex -67.2 60 14.0412
      vertex -59.7607 60 3.81073
    endloop
  endfacet
  facet normal 0 1 0
    outer loop
      vertex -67.2 60 14.0412
      vertex -60.4617 60 1.96239
      vertex -69 60 14.0412
    endloop
  endfacet
  facet normal 0 1 -0
    outer loop
      vertex -60.7 60 0
      vertex -69 60 14.0412
      vertex -60.4617 60 1.96239
    endloop
  endfacet
  facet normal 0 1 0
    outer loop
      vertex -69 60 -14.0412
      vertex -60.7 60 0
      vertex -60.4617 60 -1.96239
    endloop
  endfacet
  facet normal 0 1 0
    outer loop
      vertex -60.7 60 0
      vertex -69 60 -14.0412
      vertex -69 60 14.0412
    endloop
  endfacet
  facet normal 0 1 0
    outer loop
      vertex -67.2 60 -14.0412
      vertex -60.4617 60 -1.96239
      vertex -59.7607 60 -3.81073
    endloop
  endfacet
  facet normal 0 1 0
    outer loop
      vertex -47.8419 60 -6.74847
      vertex -38.7 60 -15.6
      vertex -49.5922 60 -7.66713
    endloop
  endfacet
  facet normal 0 1 0
    outer loop
      vertex -49.5922 60 -7.66713
      vertex -38.7 60 -15.6
      vertex -51.5116 60 -8.14021
    endloop
  endfacet
  facet normal 0 1 0
    outer loop
      vertex -51.5116 60 -8.14021
      vertex -38.7 60 -15.6
      vertex -53.4884 60 -8.14021
    endloop
  endfacet
  facet normal 0 1 0
    outer loop
      vertex -53.4884 60 -8.14021
      vertex -67.2 60 -14.0412
      vertex -55.4078 60 -7.66713
    endloop
  endfacet
  facet normal 0 1 0
    outer loop
      vertex -67.2 60 -14.0412
      vertex -57.1581 60 -6.74847
      vertex -55.4078 60 -7.66713
    endloop
  endfacet
  facet normal 0 1 0
    outer loop
      vertex -67.2 60 -14.0412
      vertex -58.6378 60 -5.4376
      vertex -57.1581 60 -6.74847
    endloop
  endfacet
  facet normal 0 1 0
    outer loop
      vertex -67.2 60 -14.0412
      vertex -59.7607 60 -3.81073
      vertex -58.6378 60 -5.4376
    endloop
  endfacet
  facet normal 0 1 0
    outer loop
      vertex -60.4617 60 -1.96239
      vertex -67.2 60 -14.0412
      vertex -69 60 -14.0412
    endloop
  endfacet
  facet normal 0 1 0
    outer loop
      vertex -69.9 60 -15.6
      vertex -69 60 14.0412
      vertex -69 60 -14.0412
    endloop
  endfacet
  facet normal 0 1 0
    outer loop
      vertex -69.9 60 15.6
      vertex -69.9 60 -15.6
      vertex -72.5 60 20
    endloop
  endfacet
  facet normal 0 1 0
    outer loop
      vertex -69.9 60 -15.6
      vertex -72.5 60 -20
      vertex -72.5 60 20
    endloop
  endfacet
  facet normal 0 1 0
    outer loop
      vertex -69 60 -17.1588
      vertex -72.5 60 -20
      vertex -69.9 60 -15.6
    endloop
  endfacet
  facet normal 0 1 0
    outer loop
      vertex -67.2 60 -17.1588
      vertex -72.5 60 -20
      vertex -69 60 -17.1588
    endloop
  endfacet
  facet normal -1 0 0
    outer loop
      vertex 69.5 -57 0
      vertex 69.5 57 20
      vertex 69.5 57 0
    endloop
  endfacet
  facet normal -1 -0 0
    outer loop
      vertex 69.5 57 20
      vertex 69.5 -57 0
      vertex 69.5 -57 20
    endloop
  endfacet
  facet normal 1 -0 0
    outer loop
      vertex 69.5 57 -10
      vertex 69.5 60 -20
      vertex 69.5 60 -10
    endloop
  endfacet
  facet normal 1 0 0
    outer loop
      vertex 69.5 60 -20
      vertex 69.5 57 -10
      vertex 69.5 57 -20
    endloop
  endfacet
  facet normal 1 -0 0
    outer loop
      vertex 69.5 -60 -10
      vertex 69.5 -57 -20
      vertex 69.5 -57 -10
    endloop
  endfacet
  facet normal 1 0 0
    outer loop
      vertex 69.5 -57 -20
      vertex 69.5 -60 -10
      vertex 69.5 -60 -20
    endloop
  endfacet
  facet normal 0 -1 0
    outer loop
      vertex -38.7 57 -15.6
      vertex -51.5116 57 -8.14021
      vertex -66.3 57 -15.6
    endloop
  endfacet
  facet normal 0 -1 0
    outer loop
      vertex -51.5116 57 -8.14021
      vertex -38.7 57 -15.6
      vertex -37.8 57 -14.0412
    endloop
  endfacet
  facet normal 0 -1 0
    outer loop
      vertex -67.2 57 -17.1588
      vertex -38.7 57 -15.6
      vertex -66.3 57 -15.6
    endloop
  endfacet
  facet normal 0 -1 -0
    outer loop
      vertex -38.7 57 -15.6
      vertex -67.2 57 -17.1588
      vertex -37.8 57 -17.1588
    endloop
  endfacet
  facet normal 0 -1 0
    outer loop
      vertex -44.3 57 0
      vertex -36 57 -14.0412
      vertex -36 57 14.0412
    endloop
  endfacet
  facet normal 0 -1 0
    outer loop
      vertex -37.8 57 -14.0412
      vertex -44.5383 57 -1.96239
      vertex -45.2393 57 -3.81073
    endloop
  endfacet
  facet normal 0 -1 0
    outer loop
      vertex -37.8 57 -14.0412
      vertex -45.2393 57 -3.81073
      vertex -46.3622 57 -5.4376
    endloop
  endfacet
  facet normal 0 -1 0
    outer loop
      vertex -37.8 57 -14.0412
      vertex -46.3622 57 -5.4376
      vertex -47.8419 57 -6.74847
    endloop
  endfacet
  facet normal 0 -1 0
    outer loop
      vertex -37.8 57 -14.0412
      vertex -47.8419 57 -6.74847
      vertex -49.5922 57 -7.66713
    endloop
  endfacet
  facet normal 0 -1 0
    outer loop
      vertex -37.8 57 -14.0412
      vertex -49.5922 57 -7.66713
      vertex -51.5116 57 -8.14021
    endloop
  endfacet
  facet normal 0 -1 0
    outer loop
      vertex -35.1 57 -15.6
      vertex -36 57 14.0412
      vertex -36 57 -14.0412
    endloop
  endfacet
  facet normal 0 -1 0
    outer loop
      vertex -66.3 57 15.6
      vertex -37.8 57 17.1588
      vertex -67.2 57 17.1588
    endloop
  endfacet
  facet normal 0 -1 0
    outer loop
      vertex -66.3 57 15.6
      vertex -38.7 57 15.6
      vertex -37.8 57 17.1588
    endloop
  endfacet
  facet normal 0 -1 0
    outer loop
      vertex -57.1581 57 6.74847
      vertex -66.3 57 15.6
      vertex -67.2 57 14.0412
    endloop
  endfacet
  facet normal 0 -1 0
    outer loop
      vertex -66.3 57 15.6
      vertex -53.4884 57 8.14021
      vertex -38.7 57 15.6
    endloop
  endfacet
  facet normal 0 -1 0
    outer loop
      vertex -67.2 57 17.1588
      vertex -72.5 57 20
      vertex -69 57 17.1588
    endloop
  endfacet
  facet normal 0 -1 0
    outer loop
      vertex -72.5 57 20
      vertex -69.9 57 15.6
      vertex -69 57 17.1588
    endloop
  endfacet
  facet normal 0 -1 0
    outer loop
      vertex -69.9 57 -15.6
      vertex -69.9 57 15.6
      vertex -72.5 57 20
    endloop
  endfacet
  facet normal 0 -1 0
    outer loop
      vertex -60.4617 57 1.96239
      vertex -67.2 57 14.0412
      vertex -69 57 14.0412
    endloop
  endfacet
  facet normal 0 -1 0
    outer loop
      vertex -51.5116 57 8.14021
      vertex -38.7 57 15.6
      vertex -53.4884 57 8.14021
    endloop
  endfacet
  facet normal 0 -1 0
    outer loop
      vertex -49.5922 57 7.66713
      vertex -38.7 57 15.6
      vertex -51.5116 57 8.14021
    endloop
  endfacet
  facet normal 0 -1 0
    outer loop
      vertex -66.3 57 15.6
      vertex -55.4078 57 7.66713
      vertex -53.4884 57 8.14021
    endloop
  endfacet
  facet normal 0 -1 0
    outer loop
      vertex -66.3 57 15.6
      vertex -57.1581 57 6.74847
      vertex -55.4078 57 7.66713
    endloop
  endfacet
  facet normal 0 -1 0
    outer loop
      vertex -67.2 57 14.0412
      vertex -58.6378 57 5.4376
      vertex -57.1581 57 6.74847
    endloop
  endfacet
  facet normal 0 -1 0
    outer loop
      vertex -67.2 57 14.0412
      vertex -59.7607 57 3.81073
      vertex -58.6378 57 5.4376
    endloop
  endfacet
  facet normal 0 -1 0
    outer loop
      vertex -67.2 57 14.0412
      vertex -60.4617 57 1.96239
      vertex -59.7607 57 3.81073
    endloop
  endfacet
  facet normal 0 -1 0
    outer loop
      vertex -69 57 14.0412
      vertex -60.7 57 0
      vertex -60.4617 57 1.96239
    endloop
  endfacet
  facet normal 0 -1 0
    outer loop
      vertex -69 57 -14.0412
      vertex -60.7 57 0
      vertex -69 57 14.0412
    endloop
  endfacet
  facet normal 0 -1 0
    outer loop
      vertex -69.9 57 15.6
      vertex -69.9 57 -15.6
      vertex -69 57 14.0412
    endloop
  endfacet
  facet normal 0 -1 -0
    outer loop
      vertex -60.7 57 0
      vertex -69 57 -14.0412
      vertex -60.4617 57 -1.96239
    endloop
  endfacet
  facet normal 0 -1 0
    outer loop
      vertex -66.3 57 -15.6
      vertex -51.5116 57 -8.14021
      vertex -53.4884 57 -8.14021
    endloop
  endfacet
  facet normal 0 -1 -0
    outer loop
      vertex -55.4078 57 -7.66713
      vertex -66.3 57 -15.6
      vertex -53.4884 57 -8.14021
    endloop
  endfacet
  facet normal 0 -1 -0
    outer loop
      vertex -57.1581 57 -6.74847
      vertex -66.3 57 -15.6
      vertex -55.4078 57 -7.66713
    endloop
  endfacet
  facet normal 0 -1 0
    outer loop
      vertex -66.3 57 -15.6
      vertex -57.1581 57 -6.74847
      vertex -67.2 57 -14.0412
    endloop
  endfacet
  facet normal 0 -1 -0
    outer loop
      vertex -58.6378 57 -5.4376
      vertex -67.2 57 -14.0412
      vertex -57.1581 57 -6.74847
    endloop
  endfacet
  facet normal 0 -1 -0
    outer loop
      vertex -59.7607 57 -3.81073
      vertex -67.2 57 -14.0412
      vertex -58.6378 57 -5.4376
    endloop
  endfacet
  facet normal 0 -1 -0
    outer loop
      vertex -60.4617 57 -1.96239
      vertex -67.2 57 -14.0412
      vertex -59.7607 57 -3.81073
    endloop
  endfacet
  facet normal 0 -1 0
    outer loop
      vertex -67.2 57 -14.0412
      vertex -60.4617 57 -1.96239
      vertex -69 57 -14.0412
    endloop
  endfacet
  facet normal 0 -1 -0
    outer loop
      vertex -69 57 14.0412
      vertex -69.9 57 -15.6
      vertex -69 57 -14.0412
    endloop
  endfacet
  facet normal 0 -1 0
    outer loop
      vertex -72.5 57 -20
      vertex -67.2 57 -17.1588
      vertex -69 57 -17.1588
    endloop
  endfacet
  facet normal 0 -1 -0
    outer loop
      vertex -67.2 57 -17.1588
      vertex -72.5 57 -20
      vertex -37.8 57 -17.1588
    endloop
  endfacet
  facet normal 0 -1 -0
    outer loop
      vertex -37.8 57 -17.1588
      vertex -72.5 57 -20
      vertex -36 57 -17.1588
    endloop
  endfacet
  facet normal 0 -1 -0
    outer loop
      vertex -69.9 57 -15.6
      vertex -72.5 57 -20
      vertex -69 57 -17.1588
    endloop
  endfacet
  facet normal 0 -1 0
    outer loop
      vertex -72.5 57 -20
      vertex -69.9 57 -15.6
      vertex -72.5 57 20
    endloop
  endfacet
  facet normal 0 -1 0
    outer loop
      vertex -37.8 57 17.1588
      vertex -72.5 57 20
      vertex -67.2 57 17.1588
    endloop
  endfacet
  facet normal 0 -1 0
    outer loop
      vertex -36 57 17.1588
      vertex -72.5 57 20
      vertex -37.8 57 17.1588
    endloop
  endfacet
  facet normal 0 -1 0
    outer loop
      vertex -72.5 57 20
      vertex -36 57 17.1588
      vertex 69.5 57 20
    endloop
  endfacet
  facet normal 0 -1 0
    outer loop
      vertex -35.1 57 15.6
      vertex 69.5 57 20
      vertex -36 57 17.1588
    endloop
  endfacet
  facet normal 0 -1 0
    outer loop
      vertex 65.5 57 0
      vertex -35.1 57 15.6
      vertex -36 57 14.0412
    endloop
  endfacet
  facet normal 0 -1 0
    outer loop
      vertex -47.8419 57 6.74847
      vertex -38.7 57 15.6
      vertex -49.5922 57 7.66713
    endloop
  endfacet
  facet normal 0 -1 -0
    outer loop
      vertex -38.7 57 15.6
      vertex -47.8419 57 6.74847
      vertex -37.8 57 14.0412
    endloop
  endfacet
  facet normal 0 -1 0
    outer loop
      vertex -46.3622 57 5.4376
      vertex -37.8 57 14.0412
      vertex -47.8419 57 6.74847
    endloop
  endfacet
  facet normal 0 -1 0
    outer loop
      vertex -45.2393 57 3.81073
      vertex -37.8 57 14.0412
      vertex -46.3622 57 5.4376
    endloop
  endfacet
  facet normal 0 -1 0
    outer loop
      vertex -44.5383 57 1.96239
      vertex -37.8 57 14.0412
      vertex -45.2393 57 3.81073
    endloop
  endfacet
  facet normal 0 -1 -0
    outer loop
      vertex -37.8 57 14.0412
      vertex -44.5383 57 1.96239
      vertex -36 57 14.0412
    endloop
  endfacet
  facet normal 0 -1 0
    outer loop
      vertex -44.3 57 0
      vertex -36 57 14.0412
      vertex -44.5383 57 1.96239
    endloop
  endfacet
  facet normal 0 -1 0
    outer loop
      vertex -36 57 -14.0412
      vertex -44.3 57 0
      vertex -44.5383 57 -1.96239
    endloop
  endfacet
  facet normal 0 -1 0
    outer loop
      vertex -35.1 57 15.6
      vertex 65.5 57 0
      vertex 69.5 57 20
    endloop
  endfacet
  facet normal 0 -1 -0
    outer loop
      vertex 69.5 57 20
      vertex 65.5 57 0
      vertex 69.5 57 0
    endloop
  endfacet
  facet normal 0 -1 0
    outer loop
      vertex -44.5383 57 -1.96239
      vertex -37.8 57 -14.0412
      vertex -36 57 -14.0412
    endloop
  endfacet
  facet normal 0 -1 0
    outer loop
      vertex -36 57 14.0412
      vertex -35.1 57 -15.6
      vertex 65.5 57 0
    endloop
  endfacet
  facet normal 0 -1 -0
    outer loop
      vertex 65.5 57 0
      vertex -35.1 57 -15.6
      vertex 65.5 57 -10
    endloop
  endfacet
  facet normal 0 -1 0
    outer loop
      vertex 69.5 57 -20
      vertex 65.5 57 -10
      vertex -35.1 57 -15.6
    endloop
  endfacet
  facet normal 0 -1 0
    outer loop
      vertex 69.5 57 -20
      vertex -35.1 57 -15.6
      vertex -36 57 -17.1588
    endloop
  endfacet
  facet normal 0 -1 0
    outer loop
      vertex 69.5 57 -20
      vertex -36 57 -17.1588
      vertex -72.5 57 -20
    endloop
  endfacet
  facet normal 0 -1 0
    outer loop
      vertex 65.5 57 -10
      vertex 69.5 57 -20
      vertex 69.5 57 -10
    endloop
  endfacet
  facet normal 0 1 0
    outer loop
      vertex -51.2979 -57 -11.437
      vertex -37.8 -57 -17.1588
      vertex -53.7021 -57 -11.437
    endloop
  endfacet
  facet normal 0 1 0
    outer loop
      vertex -53.7021 -57 -11.437
      vertex -66.3 -57 -15.6
      vertex -67.2 -57 -14.0412
    endloop
  endfacet
  facet normal 0 1 0
    outer loop
      vertex -67.2 -57 -17.1588
      vertex -53.7021 -57 -11.437
      vertex -37.8 -57 -17.1588
    endloop
  endfacet
  facet normal 0 1 0
    outer loop
      vertex -53.7021 -57 -11.437
      vertex -67.2 -57 -17.1588
      vertex -66.3 -57 -15.6
    endloop
  endfacet
  facet normal 0 1 -0
    outer loop
      vertex 69.5 -57 -20
      vertex 65.5 -57 -10
      vertex 69.5 -57 -10
    endloop
  endfacet
  facet normal 0 1 0
    outer loop
      vertex 65.5 -57 -10
      vertex -36 -57 -14.0412
      vertex -48.9463 -57 -10.9371
    endloop
  endfacet
  facet normal 0 1 -0
    outer loop
      vertex -38.7 -57 -15.6
      vertex -48.9463 -57 -10.9371
      vertex -37.8 -57 -14.0412
    endloop
  endfacet
  facet normal 0 1 -0
    outer loop
      vertex -37.8 -57 -14.0412
      vertex -48.9463 -57 -10.9371
      vertex -36 -57 -14.0412
    endloop
  endfacet
  facet normal 0 1 0
    outer loop
      vertex 65.5 -57 -10
      vertex -35.1 -57 -15.6
      vertex -36 -57 -14.0412
    endloop
  endfacet
  facet normal 0 1 0
    outer loop
      vertex 65.5 -57 -10
      vertex 69.5 -57 -20
      vertex -35.1 -57 -15.6
    endloop
  endfacet
  facet normal 0 1 0
    outer loop
      vertex -72.5 -57 -20
      vertex -37.8 -57 -17.1588
      vertex -36 -57 -17.1588
    endloop
  endfacet
  facet normal 0 1 0
    outer loop
      vertex -37.8 -57 -17.1588
      vertex -72.5 -57 -20
      vertex -67.2 -57 -17.1588
    endloop
  endfacet
  facet normal 0 1 0
    outer loop
      vertex -72.5 -57 -20
      vertex -36 -57 -17.1588
      vertex 69.5 -57 -20
    endloop
  endfacet
  facet normal 0 1 0
    outer loop
      vertex -35.1 -57 -15.6
      vertex 69.5 -57 -20
      vertex -36 -57 -17.1588
    endloop
  endfacet
  facet normal 0 1 0
    outer loop
      vertex -51.2979 -57 11.437
      vertex -37.8 -57 17.1588
      vertex -38.7 -57 15.6
    endloop
  endfacet
  facet normal 0 1 0
    outer loop
      vertex -37.8 -57 17.1588
      vertex -51.2979 -57 11.437
      vertex -67.2 -57 17.1588
    endloop
  endfacet
  facet normal 0 1 0
    outer loop
      vertex -44.805 -57 8.54617
      vertex -38.7 -57 15.6
      vertex -37.8 -57 14.0412
    endloop
  endfacet
  facet normal 0 1 -0
    outer loop
      vertex -53.7021 -57 11.437
      vertex -67.2 -57 17.1588
      vertex -51.2979 -57 11.437
    endloop
  endfacet
  facet normal 0 1 0
    outer loop
      vertex 69.5 -57 20
      vertex -36 -57 17.1588
      vertex -72.5 -57 20
    endloop
  endfacet
  facet normal 0 1 0
    outer loop
      vertex 69.5 -57 20
      vertex -35.1 -57 15.6
      vertex -36 -57 17.1588
    endloop
  endfacet
  facet normal 0 1 -0
    outer loop
      vertex 65.5 -57 0
      vertex -35.1 -57 15.6
      vertex 69.5 -57 20
    endloop
  endfacet
  facet normal 0 1 0
    outer loop
      vertex -41.9942 -57 4.67747
      vertex -37.8 -57 14.0412
      vertex -36 -57 14.0412
    endloop
  endfacet
  facet normal 0 1 0
    outer loop
      vertex -67.2 -57 17.1588
      vertex -53.7021 -57 11.437
      vertex -66.3 -57 15.6
    endloop
  endfacet
  facet normal 0 1 -0
    outer loop
      vertex -56.0537 -57 10.9371
      vertex -66.3 -57 15.6
      vertex -53.7021 -57 11.437
    endloop
  endfacet
  facet normal 0 1 -0
    outer loop
      vertex 65.5 -57 -10
      vertex -35.1 -57 15.6
      vertex 65.5 -57 0
    endloop
  endfacet
  facet normal 0 1 0
    outer loop
      vertex -38.7 -57 15.6
      vertex -48.9463 -57 10.9371
      vertex -51.2979 -57 11.437
    endloop
  endfacet
  facet normal 0 1 0
    outer loop
      vertex -38.7 -57 15.6
      vertex -46.75 -57 9.95929
      vertex -48.9463 -57 10.9371
    endloop
  endfacet
  facet normal 0 1 0
    outer loop
      vertex -38.7 -57 15.6
      vertex -44.805 -57 8.54617
      vertex -46.75 -57 9.95929
    endloop
  endfacet
  facet normal 0 1 0
    outer loop
      vertex -37.8 -57 14.0412
      vertex -43.1963 -57 6.75953
      vertex -44.805 -57 8.54617
    endloop
  endfacet
  facet normal 0 1 0
    outer loop
      vertex -37.8 -57 14.0412
      vertex -41.9942 -57 4.67747
      vertex -43.1963 -57 6.75953
    endloop
  endfacet
  facet normal 0 1 0
    outer loop
      vertex -36 -57 14.0412
      vertex -41.2513 -57 2.39098
      vertex -41.9942 -57 4.67747
    endloop
  endfacet
  facet normal 0 1 0
    outer loop
      vertex 65.5 -57 0
      vertex 69.5 -57 20
      vertex 69.5 -57 0
    endloop
  endfacet
  facet normal -0 1 0
    outer loop
      vertex -41.2513 -57 -2.39098
      vertex -35.1 -57 15.6
      vertex 65.5 -57 -10
    endloop
  endfacet
  facet normal 0 1 0
    outer loop
      vertex -36 -57 14.0412
      vertex -41 -57 0
      vertex -41.2513 -57 2.39098
    endloop
  endfacet
  facet normal 0 1 0
    outer loop
      vertex -35.1 -57 15.6
      vertex -41.2513 -57 -2.39098
      vertex -36 -57 14.0412
    endloop
  endfacet
  facet normal 0 1 0
    outer loop
      vertex -36 -57 14.0412
      vertex -41.2513 -57 -2.39098
      vertex -41 -57 0
    endloop
  endfacet
  facet normal 0 1 0
    outer loop
      vertex -41.2513 -57 -2.39098
      vertex 65.5 -57 -10
      vertex -41.9942 -57 -4.67747
    endloop
  endfacet
  facet normal 0 1 0
    outer loop
      vertex -41.9942 -57 -4.67747
      vertex 65.5 -57 -10
      vertex -43.1963 -57 -6.75953
    endloop
  endfacet
  facet normal 0 1 0
    outer loop
      vertex -43.1963 -57 -6.75953
      vertex 65.5 -57 -10
      vertex -44.805 -57 -8.54617
    endloop
  endfacet
  facet normal 0 1 0
    outer loop
      vertex -44.805 -57 -8.54617
      vertex 65.5 -57 -10
      vertex -46.75 -57 -9.95929
    endloop
  endfacet
  facet normal 0 1 0
    outer loop
      vertex -46.75 -57 -9.95929
      vertex 65.5 -57 -10
      vertex -48.9463 -57 -10.9371
    endloop
  endfacet
  facet normal 0 1 -0
    outer loop
      vertex -37.8 -57 17.1588
      vertex -72.5 -57 20
      vertex -36 -57 17.1588
    endloop
  endfacet
  facet normal 0 1 -0
    outer loop
      vertex -67.2 -57 17.1588
      vertex -72.5 -57 20
      vertex -37.8 -57 17.1588
    endloop
  endfacet
  facet normal 0 1 -0
    outer loop
      vertex -69 -57 17.1588
      vertex -72.5 -57 20
      vertex -67.2 -57 17.1588
    endloop
  endfacet
  facet normal 0 1 -0
    outer loop
      vertex -69.9 -57 15.6
      vertex -72.5 -57 20
      vertex -69 -57 17.1588
    endloop
  endfacet
  facet normal 0 1 0
    outer loop
      vertex -69.9 -57 -15.6
      vertex -69.9 -57 15.6
      vertex -69 -57 14.0412
    endloop
  endfacet
  facet normal 0 1 -0
    outer loop
      vertex -58.25 -57 9.95929
      vertex -66.3 -57 15.6
      vertex -56.0537 -57 10.9371
    endloop
  endfacet
  facet normal 0 1 -0
    outer loop
      vertex -60.195 -57 8.54617
      vertex -66.3 -57 15.6
      vertex -58.25 -57 9.95929
    endloop
  endfacet
  facet normal 0 1 0
    outer loop
      vertex -66.3 -57 15.6
      vertex -60.195 -57 8.54617
      vertex -67.2 -57 14.0412
    endloop
  endfacet
  facet normal 0 1 -0
    outer loop
      vertex -61.8037 -57 6.75953
      vertex -67.2 -57 14.0412
      vertex -60.195 -57 8.54617
    endloop
  endfacet
  facet normal 0 1 -0
    outer loop
      vertex -63.0058 -57 4.67747
      vertex -67.2 -57 14.0412
      vertex -61.8037 -57 6.75953
    endloop
  endfacet
  facet normal 0 1 0
    outer loop
      vertex -67.2 -57 14.0412
      vertex -63.0058 -57 4.67747
      vertex -69 -57 14.0412
    endloop
  endfacet
  facet normal 0 1 -0
    outer loop
      vertex -63.7487 -57 2.39098
      vertex -69 -57 14.0412
      vertex -63.0058 -57 4.67747
    endloop
  endfacet
  facet normal 0 1 -0
    outer loop
      vertex -64 -57 0
      vertex -69 -57 14.0412
      vertex -63.7487 -57 2.39098
    endloop
  endfacet
  facet normal 0 1 0
    outer loop
      vertex -69 -57 -14.0412
      vertex -69 -57 14.0412
      vertex -64 -57 0
    endloop
  endfacet
  facet normal 0 1 0
    outer loop
      vertex -69 -57 -14.0412
      vertex -64 -57 0
      vertex -63.7487 -57 -2.39098
    endloop
  endfacet
  facet normal 0 1 0
    outer loop
      vertex -69 -57 -14.0412
      vertex -63.7487 -57 -2.39098
      vertex -63.0058 -57 -4.67747
    endloop
  endfacet
  facet normal 0 1 0
    outer loop
      vertex -48.9463 -57 -10.9371
      vertex -38.7 -57 -15.6
      vertex -51.2979 -57 -11.437
    endloop
  endfacet
  facet normal 0 1 0
    outer loop
      vertex -37.8 -57 -17.1588
      vertex -51.2979 -57 -11.437
      vertex -38.7 -57 -15.6
    endloop
  endfacet
  facet normal 0 1 0
    outer loop
      vertex -67.2 -57 -14.0412
      vertex -56.0537 -57 -10.9371
      vertex -53.7021 -57 -11.437
    endloop
  endfacet
  facet normal 0 1 0
    outer loop
      vertex -67.2 -57 -14.0412
      vertex -58.25 -57 -9.95929
      vertex -56.0537 -57 -10.9371
    endloop
  endfacet
  facet normal 0 1 0
    outer loop
      vertex -67.2 -57 -14.0412
      vertex -60.195 -57 -8.54617
      vertex -58.25 -57 -9.95929
    endloop
  endfacet
  facet normal 0 1 0
    outer loop
      vertex -67.2 -57 -14.0412
      vertex -61.8037 -57 -6.75953
      vertex -60.195 -57 -8.54617
    endloop
  endfacet
  facet normal 0 1 0
    outer loop
      vertex -67.2 -57 -14.0412
      vertex -63.0058 -57 -4.67747
      vertex -61.8037 -57 -6.75953
    endloop
  endfacet
  facet normal 0 1 0
    outer loop
      vertex -69 -57 -14.0412
      vertex -63.0058 -57 -4.67747
      vertex -67.2 -57 -14.0412
    endloop
  endfacet
  facet normal 0 1 0
    outer loop
      vertex -69.9 -57 -15.6
      vertex -69 -57 14.0412
      vertex -69 -57 -14.0412
    endloop
  endfacet
  facet normal 0 1 0
    outer loop
      vertex -69.9 -57 15.6
      vertex -69.9 -57 -15.6
      vertex -72.5 -57 20
    endloop
  endfacet
  facet normal 0 1 0
    outer loop
      vertex -69.9 -57 -15.6
      vertex -72.5 -57 -20
      vertex -72.5 -57 20
    endloop
  endfacet
  facet normal 0 1 0
    outer loop
      vertex -69 -57 -17.1588
      vertex -72.5 -57 -20
      vertex -69.9 -57 -15.6
    endloop
  endfacet
  facet normal 0 1 0
    outer loop
      vertex -67.2 -57 -17.1588
      vertex -72.5 -57 -20
      vertex -69 -57 -17.1588
    endloop
  endfacet
  facet normal 0 0 -1
    outer loop
      vertex 72.5 -60 0
      vertex 69.5 -57 0
      vertex 72.5 60 0
    endloop
  endfacet
  facet normal 0 0 -1
    outer loop
      vertex 65.5 -60 0
      vertex 69.5 -57 0
      vertex 72.5 -60 0
    endloop
  endfacet
  facet normal -0 0 -1
    outer loop
      vertex 69.5 -57 0
      vertex 65.5 -60 0
      vertex 65.5 -57 0
    endloop
  endfacet
  facet normal 0 0 -1
    outer loop
      vertex 69.5 57 0
      vertex 72.5 60 0
      vertex 69.5 -57 0
    endloop
  endfacet
  facet normal 0 0 -1
    outer loop
      vertex 65.5 60 0
      vertex 69.5 57 0
      vertex 65.5 57 0
    endloop
  endfacet
  facet normal 0 0 -1
    outer loop
      vertex 69.5 57 0
      vertex 65.5 60 0
      vertex 72.5 60 0
    endloop
  endfacet
  facet normal 1 -0 0
    outer loop
      vertex 65.5 -60 0
      vertex 65.5 -57 -10
      vertex 65.5 -57 0
    endloop
  endfacet
  facet normal 1 0 0
    outer loop
      vertex 65.5 -57 -10
      vertex 65.5 -60 0
      vertex 65.5 -60 -10
    endloop
  endfacet
  facet normal 1 -0 0
    outer loop
      vertex 65.5 57 0
      vertex 65.5 60 -10
      vertex 65.5 60 0
    endloop
  endfacet
  facet normal 1 0 0
    outer loop
      vertex 65.5 60 -10
      vertex 65.5 57 0
      vertex 65.5 57 -10
    endloop
  endfacet
  facet normal -0 0 1
    outer loop
      vertex 65.5 -57 -10
      vertex 69.5 -60 -10
      vertex 69.5 -57 -10
    endloop
  endfacet
  facet normal 0 0 1
    outer loop
      vertex 69.5 -60 -10
      vertex 65.5 -57 -10
      vertex 65.5 -60 -10
    endloop
  endfacet
  facet normal -0 0 1
    outer loop
      vertex 65.5 60 -10
      vertex 69.5 57 -10
      vertex 69.5 60 -10
    endloop
  endfacet
  facet normal 0 0 1
    outer loop
      vertex 69.5 57 -10
      vertex 65.5 60 -10
      vertex 65.5 57 -10
    endloop
  endfacet
  facet normal -0.994522 0 -0.104528
    outer loop
      vertex -41 -60 0
      vertex -41.2513 -57 2.39098
      vertex -41 -57 0
    endloop
  endfacet
  facet normal -0.994522 -0 -0.104528
    outer loop
      vertex -41.2513 -57 2.39098
      vertex -41 -60 0
      vertex -41.2513 -60 2.39098
    endloop
  endfacet
  facet normal -0.951057 0 -0.309017
    outer loop
      vertex -41.2513 -60 2.39098
      vertex -41.9942 -57 4.67747
      vertex -41.2513 -57 2.39098
    endloop
  endfacet
  facet normal -0.951057 -0 -0.309017
    outer loop
      vertex -41.9942 -57 4.67747
      vertex -41.2513 -60 2.39098
      vertex -41.9942 -60 4.67747
    endloop
  endfacet
  facet normal 0.994522 0 -0.104529
    outer loop
      vertex -63.7487 -60 2.39098
      vertex -64 -57 0
      vertex -63.7487 -57 2.39098
    endloop
  endfacet
  facet normal 0.994522 0 -0.104529
    outer loop
      vertex -64 -57 0
      vertex -63.7487 -60 2.39098
      vertex -64 -60 0
    endloop
  endfacet
  facet normal 0 0 -1
    outer loop
      vertex -53.7021 -60 11.437
      vertex -51.2979 -57 11.437
      vertex -51.2979 -60 11.437
    endloop
  endfacet
  facet normal -0 0 -1
    outer loop
      vertex -51.2979 -57 11.437
      vertex -53.7021 -60 11.437
      vertex -53.7021 -57 11.437
    endloop
  endfacet
  facet normal -0.743145 0 -0.66913
    outer loop
      vertex -43.1963 -60 6.75953
      vertex -44.805 -57 8.54617
      vertex -43.1963 -57 6.75953
    endloop
  endfacet
  facet normal -0.743145 -0 -0.66913
    outer loop
      vertex -44.805 -57 8.54617
      vertex -43.1963 -60 6.75953
      vertex -44.805 -60 8.54617
    endloop
  endfacet
  facet normal 0.587786 0 -0.809017
    outer loop
      vertex -60.195 -60 8.54617
      vertex -58.25 -57 9.95929
      vertex -58.25 -60 9.95929
    endloop
  endfacet
  facet normal 0.587786 0 -0.809017
    outer loop
      vertex -58.25 -57 9.95929
      vertex -60.195 -60 8.54617
      vertex -60.195 -57 8.54617
    endloop
  endfacet
  facet normal 0.406737 0 -0.913545
    outer loop
      vertex -58.25 -60 9.95929
      vertex -56.0537 -57 10.9371
      vertex -56.0537 -60 10.9371
    endloop
  endfacet
  facet normal 0.406737 0 -0.913545
    outer loop
      vertex -56.0537 -57 10.9371
      vertex -58.25 -60 9.95929
      vertex -58.25 -57 9.95929
    endloop
  endfacet
  facet normal -0.866025 0 0.500001
    outer loop
      vertex -43.1963 -60 -6.75953
      vertex -41.9942 -57 -4.67747
      vertex -43.1963 -57 -6.75953
    endloop
  endfacet
  facet normal -0.866025 0 0.500001
    outer loop
      vertex -41.9942 -57 -4.67747
      vertex -43.1963 -60 -6.75953
      vertex -41.9942 -60 -4.67747
    endloop
  endfacet
  facet normal -0.406737 0 -0.913545
    outer loop
      vertex -48.9463 -60 10.9371
      vertex -46.75 -57 9.95929
      vertex -46.75 -60 9.95929
    endloop
  endfacet
  facet normal -0.406737 0 -0.913545
    outer loop
      vertex -46.75 -57 9.95929
      vertex -48.9463 -60 10.9371
      vertex -48.9463 -57 10.9371
    endloop
  endfacet
  facet normal -0.587785 0 -0.809017
    outer loop
      vertex -46.75 -60 9.95929
      vertex -44.805 -57 8.54617
      vertex -44.805 -60 8.54617
    endloop
  endfacet
  facet normal -0.587785 0 -0.809017
    outer loop
      vertex -44.805 -57 8.54617
      vertex -46.75 -60 9.95929
      vertex -46.75 -57 9.95929
    endloop
  endfacet
  facet normal 0.866026 0 -0.5
    outer loop
      vertex -61.8037 -60 6.75953
      vertex -63.0058 -57 4.67747
      vertex -61.8037 -57 6.75953
    endloop
  endfacet
  facet normal 0.866026 0 -0.5
    outer loop
      vertex -63.0058 -57 4.67747
      vertex -61.8037 -60 6.75953
      vertex -63.0058 -60 4.67747
    endloop
  endfacet
  facet normal 0.743144 0 -0.669131
    outer loop
      vertex -60.195 -60 8.54617
      vertex -61.8037 -57 6.75953
      vertex -60.195 -57 8.54617
    endloop
  endfacet
  facet normal 0.743144 0 -0.669131
    outer loop
      vertex -61.8037 -57 6.75953
      vertex -60.195 -60 8.54617
      vertex -61.8037 -60 6.75953
    endloop
  endfacet
  facet normal 0.207912 0 -0.978148
    outer loop
      vertex -56.0537 -60 10.9371
      vertex -53.7021 -57 11.437
      vertex -53.7021 -60 11.437
    endloop
  endfacet
  facet normal 0.207912 0 -0.978148
    outer loop
      vertex -53.7021 -57 11.437
      vertex -56.0537 -60 10.9371
      vertex -56.0537 -57 10.9371
    endloop
  endfacet
  facet normal 0.207912 0 0.978148
    outer loop
      vertex -56.0537 -57 -10.9371
      vertex -53.7021 -60 -11.437
      vertex -53.7021 -57 -11.437
    endloop
  endfacet
  facet normal 0.207912 0 0.978148
    outer loop
      vertex -53.7021 -60 -11.437
      vertex -56.0537 -57 -10.9371
      vertex -56.0537 -60 -10.9371
    endloop
  endfacet
  facet normal 0.951057 -0 0.309017
    outer loop
      vertex -63.7487 -60 -2.39098
      vertex -63.0058 -57 -4.67747
      vertex -63.7487 -57 -2.39098
    endloop
  endfacet
  facet normal 0.951057 0 0.309017
    outer loop
      vertex -63.0058 -57 -4.67747
      vertex -63.7487 -60 -2.39098
      vertex -63.0058 -60 -4.67747
    endloop
  endfacet
  facet normal -0 0 1
    outer loop
      vertex -53.7021 -57 -11.437
      vertex -51.2979 -60 -11.437
      vertex -51.2979 -57 -11.437
    endloop
  endfacet
  facet normal 0 0 1
    outer loop
      vertex -51.2979 -60 -11.437
      vertex -53.7021 -57 -11.437
      vertex -53.7021 -60 -11.437
    endloop
  endfacet
  facet normal -0.866025 0 -0.500001
    outer loop
      vertex -41.9942 -60 4.67747
      vertex -43.1963 -57 6.75953
      vertex -41.9942 -57 4.67747
    endloop
  endfacet
  facet normal -0.866025 -0 -0.500001
    outer loop
      vertex -43.1963 -57 6.75953
      vertex -41.9942 -60 4.67747
      vertex -43.1963 -60 6.75953
    endloop
  endfacet
  facet normal -0.207912 0 -0.978148
    outer loop
      vertex -51.2979 -60 11.437
      vertex -48.9463 -57 10.9371
      vertex -48.9463 -60 10.9371
    endloop
  endfacet
  facet normal -0.207912 0 -0.978148
    outer loop
      vertex -48.9463 -57 10.9371
      vertex -51.2979 -60 11.437
      vertex -51.2979 -57 11.437
    endloop
  endfacet
  facet normal 0.951057 0 -0.309017
    outer loop
      vertex -63.0058 -60 4.67747
      vertex -63.7487 -57 2.39098
      vertex -63.0058 -57 4.67747
    endloop
  endfacet
  facet normal 0.951057 0 -0.309017
    outer loop
      vertex -63.7487 -57 2.39098
      vertex -63.0058 -60 4.67747
      vertex -63.7487 -60 2.39098
    endloop
  endfacet
  facet normal -0.587785 0 0.809017
    outer loop
      vertex -46.75 -57 -9.95929
      vertex -44.805 -60 -8.54617
      vertex -44.805 -57 -8.54617
    endloop
  endfacet
  facet normal -0.587785 0 0.809017
    outer loop
      vertex -44.805 -60 -8.54617
      vertex -46.75 -57 -9.95929
      vertex -46.75 -60 -9.95929
    endloop
  endfacet
  facet normal -0.951057 0 0.309017
    outer loop
      vertex -41.9942 -60 -4.67747
      vertex -41.2513 -57 -2.39098
      vertex -41.9942 -57 -4.67747
    endloop
  endfacet
  facet normal -0.951057 0 0.309017
    outer loop
      vertex -41.2513 -57 -2.39098
      vertex -41.9942 -60 -4.67747
      vertex -41.2513 -60 -2.39098
    endloop
  endfacet
  facet normal -0.994522 0 0.104528
    outer loop
      vertex -41.2513 -60 -2.39098
      vertex -41 -57 0
      vertex -41.2513 -57 -2.39098
    endloop
  endfacet
  facet normal -0.994522 0 0.104528
    outer loop
      vertex -41 -57 0
      vertex -41.2513 -60 -2.39098
      vertex -41 -60 0
    endloop
  endfacet
  facet normal 0.743144 -0 0.669131
    outer loop
      vertex -61.8037 -60 -6.75953
      vertex -60.195 -57 -8.54617
      vertex -61.8037 -57 -6.75953
    endloop
  endfacet
  facet normal 0.743144 0 0.669131
    outer loop
      vertex -60.195 -57 -8.54617
      vertex -61.8037 -60 -6.75953
      vertex -60.195 -60 -8.54617
    endloop
  endfacet
  facet normal 0.866026 -0 0.5
    outer loop
      vertex -63.0058 -60 -4.67747
      vertex -61.8037 -57 -6.75953
      vertex -63.0058 -57 -4.67747
    endloop
  endfacet
  facet normal 0.866026 0 0.5
    outer loop
      vertex -61.8037 -57 -6.75953
      vertex -63.0058 -60 -4.67747
      vertex -61.8037 -60 -6.75953
    endloop
  endfacet
  facet normal 0.994522 -0 0.104529
    outer loop
      vertex -64 -60 0
      vertex -63.7487 -57 -2.39098
      vertex -64 -57 0
    endloop
  endfacet
  facet normal 0.994522 0 0.104529
    outer loop
      vertex -63.7487 -57 -2.39098
      vertex -64 -60 0
      vertex -63.7487 -60 -2.39098
    endloop
  endfacet
  facet normal -0.207912 0 0.978148
    outer loop
      vertex -51.2979 -57 -11.437
      vertex -48.9463 -60 -10.9371
      vertex -48.9463 -57 -10.9371
    endloop
  endfacet
  facet normal -0.207912 0 0.978148
    outer loop
      vertex -48.9463 -60 -10.9371
      vertex -51.2979 -57 -11.437
      vertex -51.2979 -60 -11.437
    endloop
  endfacet
  facet normal -0.743145 0 0.66913
    outer loop
      vertex -44.805 -60 -8.54617
      vertex -43.1963 -57 -6.75953
      vertex -44.805 -57 -8.54617
    endloop
  endfacet
  facet normal -0.743145 0 0.66913
    outer loop
      vertex -43.1963 -57 -6.75953
      vertex -44.805 -60 -8.54617
      vertex -43.1963 -60 -6.75953
    endloop
  endfacet
  facet normal 0.587786 0 0.809017
    outer loop
      vertex -60.195 -57 -8.54617
      vertex -58.25 -60 -9.95929
      vertex -58.25 -57 -9.95929
    endloop
  endfacet
  facet normal 0.587786 0 0.809017
    outer loop
      vertex -58.25 -60 -9.95929
      vertex -60.195 -57 -8.54617
      vertex -60.195 -60 -8.54617
    endloop
  endfacet
  facet normal -0.406737 0 0.913545
    outer loop
      vertex -48.9463 -57 -10.9371
      vertex -46.75 -60 -9.95929
      vertex -46.75 -57 -9.95929
    endloop
  endfacet
  facet normal -0.406737 0 0.913545
    outer loop
      vertex -46.75 -60 -9.95929
      vertex -48.9463 -57 -10.9371
      vertex -48.9463 -60 -10.9371
    endloop
  endfacet
  facet normal 0.406737 0 0.913545
    outer loop
      vertex -58.25 -57 -9.95929
      vertex -56.0537 -60 -10.9371
      vertex -56.0537 -57 -10.9371
    endloop
  endfacet
  facet normal 0.406737 0 0.913545
    outer loop
      vertex -56.0537 -60 -10.9371
      vertex -58.25 -57 -9.95929
      vertex -58.25 -60 -9.95929
    endloop
  endfacet
  facet normal -0.992709 0 -0.120537
    outer loop
      vertex -44.3 57 0
      vertex -44.5383 60 1.96239
      vertex -44.3 60 0
    endloop
  endfacet
  facet normal -0.992709 -0 -0.120537
    outer loop
      vertex -44.5383 60 1.96239
      vertex -44.3 57 0
      vertex -44.5383 57 1.96239
    endloop
  endfacet
  facet normal -0.935017 0 -0.354604
    outer loop
      vertex -44.5383 57 1.96239
      vertex -45.2393 60 3.81073
      vertex -44.5383 60 1.96239
    endloop
  endfacet
  facet normal -0.935017 -0 -0.354604
    outer loop
      vertex -45.2393 60 3.81073
      vertex -44.5383 57 1.96239
      vertex -45.2393 57 3.81073
    endloop
  endfacet
  facet normal 0.992709 0 -0.120537
    outer loop
      vertex -60.4617 57 1.96239
      vertex -60.7 60 0
      vertex -60.4617 60 1.96239
    endloop
  endfacet
  facet normal 0.992709 0 -0.120537
    outer loop
      vertex -60.7 60 0
      vertex -60.4617 57 1.96239
      vertex -60.7 57 0
    endloop
  endfacet
  facet normal 0 0 -1
    outer loop
      vertex -53.4884 57 8.14021
      vertex -51.5116 60 8.14021
      vertex -51.5116 57 8.14021
    endloop
  endfacet
  facet normal -0 0 -1
    outer loop
      vertex -51.5116 60 8.14021
      vertex -53.4884 57 8.14021
      vertex -53.4884 60 8.14021
    endloop
  endfacet
  facet normal -0.663123 0 -0.74851
    outer loop
      vertex -47.8419 57 6.74847
      vertex -46.3622 60 5.4376
      vertex -46.3622 57 5.4376
    endloop
  endfacet
  facet normal -0.663123 0 -0.74851
    outer loop
      vertex -46.3622 60 5.4376
      vertex -47.8419 57 6.74847
      vertex -47.8419 60 6.74847
    endloop
  endfacet
  facet normal 0.663123 0 -0.74851
    outer loop
      vertex -58.6378 57 5.4376
      vertex -57.1581 60 6.74847
      vertex -57.1581 57 6.74847
    endloop
  endfacet
  facet normal 0.663123 0 -0.74851
    outer loop
      vertex -57.1581 60 6.74847
      vertex -58.6378 57 5.4376
      vertex -58.6378 60 5.4376
    endloop
  endfacet
  facet normal 0.464723 0 -0.885456
    outer loop
      vertex -57.1581 57 6.74847
      vertex -55.4078 60 7.66713
      vertex -55.4078 57 7.66713
    endloop
  endfacet
  facet normal 0.464723 0 -0.885456
    outer loop
      vertex -55.4078 60 7.66713
      vertex -57.1581 57 6.74847
      vertex -57.1581 60 6.74847
    endloop
  endfacet
  facet normal -0.663123 0 0.74851
    outer loop
      vertex -47.8419 60 -6.74847
      vertex -46.3622 57 -5.4376
      vertex -46.3622 60 -5.4376
    endloop
  endfacet
  facet normal -0.663123 0 0.74851
    outer loop
      vertex -46.3622 57 -5.4376
      vertex -47.8419 60 -6.74847
      vertex -47.8419 57 -6.74847
    endloop
  endfacet
  facet normal -0.239316 0 -0.970942
    outer loop
      vertex -51.5116 57 8.14021
      vertex -49.5922 60 7.66713
      vertex -49.5922 57 7.66713
    endloop
  endfacet
  facet normal -0.239316 0 -0.970942
    outer loop
      vertex -49.5922 60 7.66713
      vertex -51.5116 57 8.14021
      vertex -51.5116 60 8.14021
    endloop
  endfacet
  facet normal -0.464723 0 -0.885456
    outer loop
      vertex -49.5922 57 7.66713
      vertex -47.8419 60 6.74847
      vertex -47.8419 57 6.74847
    endloop
  endfacet
  facet normal -0.464723 0 -0.885456
    outer loop
      vertex -47.8419 60 6.74847
      vertex -49.5922 57 7.66713
      vertex -49.5922 60 7.66713
    endloop
  endfacet
  facet normal 0.822984 0 -0.568065
    outer loop
      vertex -58.6378 57 5.4376
      vertex -59.7607 60 3.81073
      vertex -58.6378 60 5.4376
    endloop
  endfacet
  facet normal 0.822984 0 -0.568065
    outer loop
      vertex -59.7607 60 3.81073
      vertex -58.6378 57 5.4376
      vertex -59.7607 57 3.81073
    endloop
  endfacet
  facet normal 0.239316 0 -0.970942
    outer loop
      vertex -55.4078 57 7.66713
      vertex -53.4884 60 8.14021
      vertex -53.4884 57 8.14021
    endloop
  endfacet
  facet normal 0.239316 0 -0.970942
    outer loop
      vertex -53.4884 60 8.14021
      vertex -55.4078 57 7.66713
      vertex -55.4078 60 7.66713
    endloop
  endfacet
  facet normal -0 0 1
    outer loop
      vertex -53.4884 60 -8.14021
      vertex -51.5116 57 -8.14021
      vertex -51.5116 60 -8.14021
    endloop
  endfacet
  facet normal 0 0 1
    outer loop
      vertex -51.5116 57 -8.14021
      vertex -53.4884 60 -8.14021
      vertex -53.4884 57 -8.14021
    endloop
  endfacet
  facet normal -0.464723 0 0.885456
    outer loop
      vertex -49.5922 60 -7.66713
      vertex -47.8419 57 -6.74847
      vertex -47.8419 60 -6.74847
    endloop
  endfacet
  facet normal -0.464723 0 0.885456
    outer loop
      vertex -47.8419 57 -6.74847
      vertex -49.5922 60 -7.66713
      vertex -49.5922 57 -7.66713
    endloop
  endfacet
  facet normal -0.822983 0 -0.568066
    outer loop
      vertex -45.2393 57 3.81073
      vertex -46.3622 60 5.4376
      vertex -45.2393 60 3.81073
    endloop
  endfacet
  facet normal -0.822983 -0 -0.568066
    outer loop
      vertex -46.3622 60 5.4376
      vertex -45.2393 57 3.81073
      vertex -46.3622 57 5.4376
    endloop
  endfacet
  facet normal 0.935016 0 -0.354605
    outer loop
      vertex -59.7607 57 3.81073
      vertex -60.4617 60 1.96239
      vertex -59.7607 60 3.81073
    endloop
  endfacet
  facet normal 0.935016 0 -0.354605
    outer loop
      vertex -60.4617 60 1.96239
      vertex -59.7607 57 3.81073
      vertex -60.4617 57 1.96239
    endloop
  endfacet
  facet normal 0.822984 -0 0.568065
    outer loop
      vertex -59.7607 57 -3.81073
      vertex -58.6378 60 -5.4376
      vertex -59.7607 60 -3.81073
    endloop
  endfacet
  facet normal 0.822984 0 0.568065
    outer loop
      vertex -58.6378 60 -5.4376
      vertex -59.7607 57 -3.81073
      vertex -58.6378 57 -5.4376
    endloop
  endfacet
  facet normal 0.935016 -0 0.354605
    outer loop
      vertex -60.4617 57 -1.96239
      vertex -59.7607 60 -3.81073
      vertex -60.4617 60 -1.96239
    endloop
  endfacet
  facet normal 0.935016 0 0.354605
    outer loop
      vertex -59.7607 60 -3.81073
      vertex -60.4617 57 -1.96239
      vertex -59.7607 57 -3.81073
    endloop
  endfacet
  facet normal 0.992709 -0 0.120537
    outer loop
      vertex -60.7 57 0
      vertex -60.4617 60 -1.96239
      vertex -60.7 60 0
    endloop
  endfacet
  facet normal 0.992709 0 0.120537
    outer loop
      vertex -60.4617 60 -1.96239
      vertex -60.7 57 0
      vertex -60.4617 57 -1.96239
    endloop
  endfacet
  facet normal -0.239316 0 0.970942
    outer loop
      vertex -51.5116 60 -8.14021
      vertex -49.5922 57 -7.66713
      vertex -49.5922 60 -7.66713
    endloop
  endfacet
  facet normal -0.239316 0 0.970942
    outer loop
      vertex -49.5922 57 -7.66713
      vertex -51.5116 60 -8.14021
      vertex -51.5116 57 -8.14021
    endloop
  endfacet
  facet normal -0.935017 0 0.354604
    outer loop
      vertex -45.2393 57 -3.81073
      vertex -44.5383 60 -1.96239
      vertex -45.2393 60 -3.81073
    endloop
  endfacet
  facet normal -0.935017 0 0.354604
    outer loop
      vertex -44.5383 60 -1.96239
      vertex -45.2393 57 -3.81073
      vertex -44.5383 57 -1.96239
    endloop
  endfacet
  facet normal -0.992709 0 0.120537
    outer loop
      vertex -44.5383 57 -1.96239
      vertex -44.3 60 0
      vertex -44.5383 60 -1.96239
    endloop
  endfacet
  facet normal -0.992709 0 0.120537
    outer loop
      vertex -44.3 60 0
      vertex -44.5383 57 -1.96239
      vertex -44.3 57 0
    endloop
  endfacet
  facet normal 0.663123 0 0.74851
    outer loop
      vertex -58.6378 60 -5.4376
      vertex -57.1581 57 -6.74847
      vertex -57.1581 60 -6.74847
    endloop
  endfacet
  facet normal 0.663123 0 0.74851
    outer loop
      vertex -57.1581 57 -6.74847
      vertex -58.6378 60 -5.4376
      vertex -58.6378 57 -5.4376
    endloop
  endfacet
  facet normal -0.822983 0 0.568066
    outer loop
      vertex -46.3622 57 -5.4376
      vertex -45.2393 60 -3.81073
      vertex -46.3622 60 -5.4376
    endloop
  endfacet
  facet normal -0.822983 0 0.568066
    outer loop
      vertex -45.2393 60 -3.81073
      vertex -46.3622 57 -5.4376
      vertex -45.2393 57 -3.81073
    endloop
  endfacet
  facet normal 0.464723 0 0.885456
    outer loop
      vertex -57.1581 60 -6.74847
      vertex -55.4078 57 -7.66713
      vertex -55.4078 60 -7.66713
    endloop
  endfacet
  facet normal 0.464723 0 0.885456
    outer loop
      vertex -55.4078 57 -7.66713
      vertex -57.1581 60 -6.74847
      vertex -57.1581 57 -6.74847
    endloop
  endfacet
  facet normal 0.239316 0 0.970942
    outer loop
      vertex -55.4078 60 -7.66713
      vertex -53.4884 57 -8.14021
      vertex -53.4884 60 -8.14021
    endloop
  endfacet
  facet normal 0.239316 0 0.970942
    outer loop
      vertex -53.4884 57 -8.14021
      vertex -55.4078 60 -7.66713
      vertex -55.4078 57 -7.66713
    endloop
  endfacet
  facet normal -0.866025 0 -0.500001
    outer loop
      vertex -35.1 57 -15.6
      vertex -36 60 -14.0412
      vertex -35.1 60 -15.6
    endloop
  endfacet
  facet normal -0.866025 -0 -0.500001
    outer loop
      vertex -36 60 -14.0412
      vertex -35.1 57 -15.6
      vertex -36 57 -14.0412
    endloop
  endfacet
  facet normal -0.866025 0 -0.500001
    outer loop
      vertex -35.1 -60 -15.6
      vertex -36 -57 -14.0412
      vertex -35.1 -57 -15.6
    endloop
  endfacet
  facet normal -0.866025 -0 -0.500001
    outer loop
      vertex -36 -57 -14.0412
      vertex -35.1 -60 -15.6
      vertex -36 -60 -14.0412
    endloop
  endfacet
  facet normal 0 0 -1
    outer loop
      vertex -37.8 57 -14.0412
      vertex -36 60 -14.0412
      vertex -36 57 -14.0412
    endloop
  endfacet
  facet normal -0 0 -1
    outer loop
      vertex -36 60 -14.0412
      vertex -37.8 57 -14.0412
      vertex -37.8 60 -14.0412
    endloop
  endfacet
  facet normal 0 0 -1
    outer loop
      vertex -37.8 -60 -14.0412
      vertex -36 -57 -14.0412
      vertex -36 -60 -14.0412
    endloop
  endfacet
  facet normal -0 0 -1
    outer loop
      vertex -36 -57 -14.0412
      vertex -37.8 -60 -14.0412
      vertex -37.8 -57 -14.0412
    endloop
  endfacet
  facet normal 0.866025 0 -0.500001
    outer loop
      vertex -37.8 -60 -14.0412
      vertex -38.7 -57 -15.6
      vertex -37.8 -57 -14.0412
    endloop
  endfacet
  facet normal 0.866025 0 -0.500001
    outer loop
      vertex -38.7 -57 -15.6
      vertex -37.8 -60 -14.0412
      vertex -38.7 -60 -15.6
    endloop
  endfacet
  facet normal 0.866025 0 -0.500001
    outer loop
      vertex -37.8 57 -14.0412
      vertex -38.7 60 -15.6
      vertex -37.8 60 -14.0412
    endloop
  endfacet
  facet normal 0.866025 0 -0.500001
    outer loop
      vertex -38.7 60 -15.6
      vertex -37.8 57 -14.0412
      vertex -38.7 57 -15.6
    endloop
  endfacet
  facet normal 0.866025 -0 0.500001
    outer loop
      vertex -38.7 -60 -15.6
      vertex -37.8 -57 -17.1588
      vertex -38.7 -57 -15.6
    endloop
  endfacet
  facet normal 0.866025 0 0.500001
    outer loop
      vertex -37.8 -57 -17.1588
      vertex -38.7 -60 -15.6
      vertex -37.8 -60 -17.1588
    endloop
  endfacet
  facet normal 0.866025 -0 0.500001
    outer loop
      vertex -38.7 57 -15.6
      vertex -37.8 60 -17.1588
      vertex -38.7 60 -15.6
    endloop
  endfacet
  facet normal 0.866025 0 0.500001
    outer loop
      vertex -37.8 60 -17.1588
      vertex -38.7 57 -15.6
      vertex -37.8 57 -17.1588
    endloop
  endfacet
  facet normal -0 0 1
    outer loop
      vertex -37.8 60 -17.1588
      vertex -36 57 -17.1588
      vertex -36 60 -17.1588
    endloop
  endfacet
  facet normal 0 0 1
    outer loop
      vertex -36 57 -17.1588
      vertex -37.8 60 -17.1588
      vertex -37.8 57 -17.1588
    endloop
  endfacet
  facet normal -0 0 1
    outer loop
      vertex -37.8 -57 -17.1588
      vertex -36 -60 -17.1588
      vertex -36 -57 -17.1588
    endloop
  endfacet
  facet normal 0 0 1
    outer loop
      vertex -36 -60 -17.1588
      vertex -37.8 -57 -17.1588
      vertex -37.8 -60 -17.1588
    endloop
  endfacet
  facet normal -0.866025 0 0.500001
    outer loop
      vertex -36 57 -17.1588
      vertex -35.1 60 -15.6
      vertex -36 60 -17.1588
    endloop
  endfacet
  facet normal -0.866025 0 0.500001
    outer loop
      vertex -35.1 60 -15.6
      vertex -36 57 -17.1588
      vertex -35.1 57 -15.6
    endloop
  endfacet
  facet normal -0.866025 0 0.500001
    outer loop
      vertex -36 -60 -17.1588
      vertex -35.1 -57 -15.6
      vertex -36 -57 -17.1588
    endloop
  endfacet
  facet normal -0.866025 0 0.500001
    outer loop
      vertex -35.1 -57 -15.6
      vertex -36 -60 -17.1588
      vertex -35.1 -60 -15.6
    endloop
  endfacet
  facet normal -0.866025 0 -0.500001
    outer loop
      vertex -35.1 57 15.6
      vertex -36 60 17.1588
      vertex -35.1 60 15.6
    endloop
  endfacet
  facet normal -0.866025 -0 -0.500001
    outer loop
      vertex -36 60 17.1588
      vertex -35.1 57 15.6
      vertex -36 57 17.1588
    endloop
  endfacet
  facet normal -0.866025 0 -0.500001
    outer loop
      vertex -35.1 -60 15.6
      vertex -36 -57 17.1588
      vertex -35.1 -57 15.6
    endloop
  endfacet
  facet normal -0.866025 -0 -0.500001
    outer loop
      vertex -36 -57 17.1588
      vertex -35.1 -60 15.6
      vertex -36 -60 17.1588
    endloop
  endfacet
  facet normal 0 0 -1
    outer loop
      vertex -37.8 57 17.1588
      vertex -36 60 17.1588
      vertex -36 57 17.1588
    endloop
  endfacet
  facet normal -0 0 -1
    outer loop
      vertex -36 60 17.1588
      vertex -37.8 57 17.1588
      vertex -37.8 60 17.1588
    endloop
  endfacet
  facet normal 0 0 -1
    outer loop
      vertex -37.8 -60 17.1588
      vertex -36 -57 17.1588
      vertex -36 -60 17.1588
    endloop
  endfacet
  facet normal -0 0 -1
    outer loop
      vertex -36 -57 17.1588
      vertex -37.8 -60 17.1588
      vertex -37.8 -57 17.1588
    endloop
  endfacet
  facet normal 0.866025 0 -0.500001
    outer loop
      vertex -37.8 -60 17.1588
      vertex -38.7 -57 15.6
      vertex -37.8 -57 17.1588
    endloop
  endfacet
  facet normal 0.866025 0 -0.500001
    outer loop
      vertex -38.7 -57 15.6
      vertex -37.8 -60 17.1588
      vertex -38.7 -60 15.6
    endloop
  endfacet
  facet normal 0.866025 0 -0.500001
    outer loop
      vertex -37.8 57 17.1588
      vertex -38.7 60 15.6
      vertex -37.8 60 17.1588
    endloop
  endfacet
  facet normal 0.866025 0 -0.500001
    outer loop
      vertex -38.7 60 15.6
      vertex -37.8 57 17.1588
      vertex -38.7 57 15.6
    endloop
  endfacet
  facet normal 0.866025 -0 0.500001
    outer loop
      vertex -38.7 -60 15.6
      vertex -37.8 -57 14.0412
      vertex -38.7 -57 15.6
    endloop
  endfacet
  facet normal 0.866025 0 0.500001
    outer loop
      vertex -37.8 -57 14.0412
      vertex -38.7 -60 15.6
      vertex -37.8 -60 14.0412
    endloop
  endfacet
  facet normal 0.866025 -0 0.500001
    outer loop
      vertex -38.7 57 15.6
      vertex -37.8 60 14.0412
      vertex -38.7 60 15.6
    endloop
  endfacet
  facet normal 0.866025 0 0.500001
    outer loop
      vertex -37.8 60 14.0412
      vertex -38.7 57 15.6
      vertex -37.8 57 14.0412
    endloop
  endfacet
  facet normal -0 0 1
    outer loop
      vertex -37.8 60 14.0412
      vertex -36 57 14.0412
      vertex -36 60 14.0412
    endloop
  endfacet
  facet normal 0 0 1
    outer loop
      vertex -36 57 14.0412
      vertex -37.8 60 14.0412
      vertex -37.8 57 14.0412
    endloop
  endfacet
  facet normal -0 0 1
    outer loop
      vertex -37.8 -57 14.0412
      vertex -36 -60 14.0412
      vertex -36 -57 14.0412
    endloop
  endfacet
  facet normal 0 0 1
    outer loop
      vertex -36 -60 14.0412
      vertex -37.8 -57 14.0412
      vertex -37.8 -60 14.0412
    endloop
  endfacet
  facet normal -0.866025 0 0.500001
    outer loop
      vertex -36 57 14.0412
      vertex -35.1 60 15.6
      vertex -36 60 14.0412
    endloop
  endfacet
  facet normal -0.866025 0 0.500001
    outer loop
      vertex -35.1 60 15.6
      vertex -36 57 14.0412
      vertex -35.1 57 15.6
    endloop
  endfacet
  facet normal -0.866025 0 0.500001
    outer loop
      vertex -36 -60 14.0412
      vertex -35.1 -57 15.6
      vertex -36 -57 14.0412
    endloop
  endfacet
  facet normal -0.866025 0 0.500001
    outer loop
      vertex -35.1 -57 15.6
      vertex -36 -60 14.0412
      vertex -35.1 -60 15.6
    endloop
  endfacet
  facet normal -0.866027 0 -0.499998
    outer loop
      vertex -66.3 57 -15.6
      vertex -67.2 60 -14.0412
      vertex -66.3 60 -15.6
    endloop
  endfacet
  facet normal -0.866027 -0 -0.499998
    outer loop
      vertex -67.2 60 -14.0412
      vertex -66.3 57 -15.6
      vertex -67.2 57 -14.0412
    endloop
  endfacet
  facet normal -0.866027 0 -0.499998
    outer loop
      vertex -66.3 -60 -15.6
      vertex -67.2 -57 -14.0412
      vertex -66.3 -57 -15.6
    endloop
  endfacet
  facet normal -0.866027 -0 -0.499998
    outer loop
      vertex -67.2 -57 -14.0412
      vertex -66.3 -60 -15.6
      vertex -67.2 -60 -14.0412
    endloop
  endfacet
  facet normal 0 0 -1
    outer loop
      vertex -69 57 -14.0412
      vertex -67.2 60 -14.0412
      vertex -67.2 57 -14.0412
    endloop
  endfacet
  facet normal -0 0 -1
    outer loop
      vertex -67.2 60 -14.0412
      vertex -69 57 -14.0412
      vertex -69 60 -14.0412
    endloop
  endfacet
  facet normal 0 0 -1
    outer loop
      vertex -69 -60 -14.0412
      vertex -67.2 -57 -14.0412
      vertex -67.2 -60 -14.0412
    endloop
  endfacet
  facet normal -0 0 -1
    outer loop
      vertex -67.2 -57 -14.0412
      vertex -69 -60 -14.0412
      vertex -69 -57 -14.0412
    endloop
  endfacet
  facet normal -0 0 1
    outer loop
      vertex -69 -57 -17.1588
      vertex -67.2 -60 -17.1588
      vertex -67.2 -57 -17.1588
    endloop
  endfacet
  facet normal 0 0 1
    outer loop
      vertex -67.2 -60 -17.1588
      vertex -69 -57 -17.1588
      vertex -69 -60 -17.1588
    endloop
  endfacet
  facet normal -0 0 1
    outer loop
      vertex -69 60 -17.1588
      vertex -67.2 57 -17.1588
      vertex -67.2 60 -17.1588
    endloop
  endfacet
  facet normal 0 0 1
    outer loop
      vertex -67.2 57 -17.1588
      vertex -69 60 -17.1588
      vertex -69 57 -17.1588
    endloop
  endfacet
  facet normal -0.866027 0 0.499998
    outer loop
      vertex -67.2 -60 -17.1588
      vertex -66.3 -57 -15.6
      vertex -67.2 -57 -17.1588
    endloop
  endfacet
  facet normal -0.866027 0 0.499998
    outer loop
      vertex -66.3 -57 -15.6
      vertex -67.2 -60 -17.1588
      vertex -66.3 -60 -15.6
    endloop
  endfacet
  facet normal -0.866027 0 0.499998
    outer loop
      vertex -67.2 57 -17.1588
      vertex -66.3 60 -15.6
      vertex -67.2 60 -17.1588
    endloop
  endfacet
  facet normal -0.866027 0 0.499998
    outer loop
      vertex -66.3 60 -15.6
      vertex -67.2 57 -17.1588
      vertex -66.3 57 -15.6
    endloop
  endfacet
  facet normal 0.866025 0 -0.500001
    outer loop
      vertex -69 57 -14.0412
      vertex -69.9 60 -15.6
      vertex -69 60 -14.0412
    endloop
  endfacet
  facet normal 0.866025 0 -0.500001
    outer loop
      vertex -69.9 60 -15.6
      vertex -69 57 -14.0412
      vertex -69.9 57 -15.6
    endloop
  endfacet
  facet normal 0.866025 0 -0.500001
    outer loop
      vertex -69 -60 -14.0412
      vertex -69.9 -57 -15.6
      vertex -69 -57 -14.0412
    endloop
  endfacet
  facet normal 0.866025 0 -0.500001
    outer loop
      vertex -69.9 -57 -15.6
      vertex -69 -60 -14.0412
      vertex -69.9 -60 -15.6
    endloop
  endfacet
  facet normal 0.866025 -0 0.500001
    outer loop
      vertex -69.9 57 -15.6
      vertex -69 60 -17.1588
      vertex -69.9 60 -15.6
    endloop
  endfacet
  facet normal 0.866025 0 0.500001
    outer loop
      vertex -69 60 -17.1588
      vertex -69.9 57 -15.6
      vertex -69 57 -17.1588
    endloop
  endfacet
  facet normal 0.866025 -0 0.500001
    outer loop
      vertex -69.9 -60 -15.6
      vertex -69 -57 -17.1588
      vertex -69.9 -57 -15.6
    endloop
  endfacet
  facet normal 0.866025 0 0.500001
    outer loop
      vertex -69 -57 -17.1588
      vertex -69.9 -60 -15.6
      vertex -69 -60 -17.1588
    endloop
  endfacet
  facet normal -0.866027 0 -0.499998
    outer loop
      vertex -66.3 57 15.6
      vertex -67.2 60 17.1588
      vertex -66.3 60 15.6
    endloop
  endfacet
  facet normal -0.866027 -0 -0.499998
    outer loop
      vertex -67.2 60 17.1588
      vertex -66.3 57 15.6
      vertex -67.2 57 17.1588
    endloop
  endfacet
  facet normal -0.866027 0 -0.499998
    outer loop
      vertex -66.3 -60 15.6
      vertex -67.2 -57 17.1588
      vertex -66.3 -57 15.6
    endloop
  endfacet
  facet normal -0.866027 -0 -0.499998
    outer loop
      vertex -67.2 -57 17.1588
      vertex -66.3 -60 15.6
      vertex -67.2 -60 17.1588
    endloop
  endfacet
  facet normal 0 0 -1
    outer loop
      vertex -69 57 17.1588
      vertex -67.2 60 17.1588
      vertex -67.2 57 17.1588
    endloop
  endfacet
  facet normal -0 0 -1
    outer loop
      vertex -67.2 60 17.1588
      vertex -69 57 17.1588
      vertex -69 60 17.1588
    endloop
  endfacet
  facet normal 0 0 -1
    outer loop
      vertex -69 -60 17.1588
      vertex -67.2 -57 17.1588
      vertex -67.2 -60 17.1588
    endloop
  endfacet
  facet normal -0 0 -1
    outer loop
      vertex -67.2 -57 17.1588
      vertex -69 -60 17.1588
      vertex -69 -57 17.1588
    endloop
  endfacet
  facet normal -0 0 1
    outer loop
      vertex -69 -57 14.0412
      vertex -67.2 -60 14.0412
      vertex -67.2 -57 14.0412
    endloop
  endfacet
  facet normal 0 0 1
    outer loop
      vertex -67.2 -60 14.0412
      vertex -69 -57 14.0412
      vertex -69 -60 14.0412
    endloop
  endfacet
  facet normal -0 0 1
    outer loop
      vertex -69 60 14.0412
      vertex -67.2 57 14.0412
      vertex -67.2 60 14.0412
    endloop
  endfacet
  facet normal 0 0 1
    outer loop
      vertex -67.2 57 14.0412
      vertex -69 60 14.0412
      vertex -69 57 14.0412
    endloop
  endfacet
  facet normal -0.866027 0 0.499998
    outer loop
      vertex -67.2 -60 14.0412
      vertex -66.3 -57 15.6
      vertex -67.2 -57 14.0412
    endloop
  endfacet
  facet normal -0.866027 0 0.499998
    outer loop
      vertex -66.3 -57 15.6
      vertex -67.2 -60 14.0412
      vertex -66.3 -60 15.6
    endloop
  endfacet
  facet normal -0.866027 0 0.499998
    outer loop
      vertex -67.2 57 14.0412
      vertex -66.3 60 15.6
      vertex -67.2 60 14.0412
    endloop
  endfacet
  facet normal -0.866027 0 0.499998
    outer loop
      vertex -66.3 60 15.6
      vertex -67.2 57 14.0412
      vertex -66.3 57 15.6
    endloop
  endfacet
  facet normal 0.866025 0 -0.500001
    outer loop
      vertex -69 57 17.1588
      vertex -69.9 60 15.6
      vertex -69 60 17.1588
    endloop
  endfacet
  facet normal 0.866025 0 -0.500001
    outer loop
      vertex -69.9 60 15.6
      vertex -69 57 17.1588
      vertex -69.9 57 15.6
    endloop
  endfacet
  facet normal 0.866025 0 -0.500001
    outer loop
      vertex -69 -60 17.1588
      vertex -69.9 -57 15.6
      vertex -69 -57 17.1588
    endloop
  endfacet
  facet normal 0.866025 0 -0.500001
    outer loop
      vertex -69.9 -57 15.6
      vertex -69 -60 17.1588
      vertex -69.9 -60 15.6
    endloop
  endfacet
  facet normal 0.866025 -0 0.500001
    outer loop
      vertex -69.9 57 15.6
      vertex -69 60 14.0412
      vertex -69.9 60 15.6
    endloop
  endfacet
  facet normal 0.866025 0 0.500001
    outer loop
      vertex -69 60 14.0412
      vertex -69.9 57 15.6
      vertex -69 57 14.0412
    endloop
  endfacet
  facet normal 0.866025 -0 0.500001
    outer loop
      vertex -69.9 -60 15.6
      vertex -69 -57 14.0412
      vertex -69.9 -57 15.6
    endloop
  endfacet
  facet normal 0.866025 0 0.500001
    outer loop
      vertex -69 -57 14.0412
      vertex -69.9 -60 15.6
      vertex -69 -60 14.0412
    endloop
  endfacet
endsolid OpenSCAD_Model
