solid OpenSCAD_Model
  facet normal 0.994522 -0 0.104529
    outer loop
      vertex 37.8423 91 -16
      vertex 38 96 -17.5
      vertex 37.8423 96 -16
    endloop
  endfacet
  facet normal 0.994522 0 0.104529
    outer loop
      vertex 38 96 -17.5
      vertex 37.8423 91 -16
      vertex 38 91 -17.5
    endloop
  endfacet
  facet normal -0.994522 0 0.104529
    outer loop
      vertex 18 91 -17.5
      vertex 18.1577 96 -16
      vertex 18 96 -17.5
    endloop
  endfacet
  facet normal -0.994522 0 0.104529
    outer loop
      vertex 18.1577 96 -16
      vertex 18 91 -17.5
      vertex 18.1577 91 -16
    endloop
  endfacet
  facet normal 0.994522 0 -0.104529
    outer loop
      vertex 38 91 -17.5
      vertex 37.8423 96 -19
      vertex 38 96 -17.5
    endloop
  endfacet
  facet normal 0.994522 0 -0.104529
    outer loop
      vertex 37.8423 96 -19
      vertex 38 91 -17.5
      vertex 37.8423 91 -19
    endloop
  endfacet
  facet normal -0.994522 0 -0.104529
    outer loop
      vertex 18.1577 91 -19
      vertex 18 96 -17.5
      vertex 18.1577 96 -19
    endloop
  endfacet
  facet normal -0.994522 -0 -0.104529
    outer loop
      vertex 18 96 -17.5
      vertex 18.1577 91 -19
      vertex 18 91 -17.5
    endloop
  endfacet
  facet normal 0.994522 -0 0.104529
    outer loop
      vertex 37.8423 -96 -16
      vertex 38 -91 -17.5
      vertex 37.8423 -91 -16
    endloop
  endfacet
  facet normal 0.994522 0 0.104529
    outer loop
      vertex 38 -91 -17.5
      vertex 37.8423 -96 -16
      vertex 38 -96 -17.5
    endloop
  endfacet
  facet normal -0.994522 0 0.104529
    outer loop
      vertex 18 -96 -17.5
      vertex 18.1577 -91 -16
      vertex 18 -91 -17.5
    endloop
  endfacet
  facet normal -0.994522 0 0.104529
    outer loop
      vertex 18.1577 -91 -16
      vertex 18 -96 -17.5
      vertex 18.1577 -96 -16
    endloop
  endfacet
  facet normal 0.994522 0 -0.104529
    outer loop
      vertex 38 -96 -17.5
      vertex 37.8423 -91 -19
      vertex 38 -91 -17.5
    endloop
  endfacet
  facet normal 0.994522 0 -0.104529
    outer loop
      vertex 37.8423 -91 -19
      vertex 38 -96 -17.5
      vertex 37.8423 -96 -19
    endloop
  endfacet
  facet normal -0.994522 0 -0.104529
    outer loop
      vertex 18.1577 -96 -19
      vertex 18 -91 -17.5
      vertex 18.1577 -91 -19
    endloop
  endfacet
  facet normal -0.994522 -0 -0.104529
    outer loop
      vertex 18 -91 -17.5
      vertex 18.1577 -96 -19
      vertex 18 -96 -17.5
    endloop
  endfacet
  facet normal -1 0 0
    outer loop
      vertex -90 -67 -19
      vertex -90 67 -16
      vertex -90 67 -19
    endloop
  endfacet
  facet normal -1 -0 0
    outer loop
      vertex -90 67 -16
      vertex -90 -67 -19
      vertex -90 -67 -16
    endloop
  endfacet
  facet normal -0 0 1
    outer loop
      vertex 87 67 19
      vertex 90 60 19
      vertex 90 67 19
    endloop
  endfacet
  facet normal 0 0 1
    outer loop
      vertex 90 60 19
      vertex 87 67 19
      vertex 87 60 19
    endloop
  endfacet
  facet normal -0 0 1
    outer loop
      vertex 87 -60 19
      vertex 90 -67 19
      vertex 90 -60 19
    endloop
  endfacet
  facet normal 0 0 1
    outer loop
      vertex 90 -67 19
      vertex 87 -60 19
      vertex 87 -67 19
    endloop
  endfacet
  facet normal -0 0 1
    outer loop
      vertex 87 55 19
      vertex 90 -55 19
      vertex 90 55 19
    endloop
  endfacet
  facet normal 0 0 1
    outer loop
      vertex 90 -55 19
      vertex 87 55 19
      vertex 87 -55 19
    endloop
  endfacet
  facet normal 1 -0 0
    outer loop
      vertex 90 -67 19
      vertex 90 -60 8
      vertex 90 -60 19
    endloop
  endfacet
  facet normal 1 0 0
    outer loop
      vertex 90 -60 8
      vertex 90 -67 19
      vertex 90 -60 0
    endloop
  endfacet
  facet normal 1 0 0
    outer loop
      vertex 90 -67 -19
      vertex 90 -60 0
      vertex 90 -67 19
    endloop
  endfacet
  facet normal 1 -0 0
    outer loop
      vertex 90 -60 8
      vertex 90 -55 0
      vertex 90 -55 8
    endloop
  endfacet
  facet normal 1 0 0
    outer loop
      vertex 90 -55 0
      vertex 90 -60 8
      vertex 90 -60 0
    endloop
  endfacet
  facet normal 1 0 0
    outer loop
      vertex 90 -55 8
      vertex 90 55 8
      vertex 90 55 19
    endloop
  endfacet
  facet normal 1 0 0
    outer loop
      vertex 90 55 8
      vertex 90 -55 8
      vertex 90 55 0
    endloop
  endfacet
  facet normal 1 0 0
    outer loop
      vertex 90 -55 8
      vertex 90 55 19
      vertex 90 -55 19
    endloop
  endfacet
  facet normal 1 -0 0
    outer loop
      vertex 90 55 8
      vertex 90 60 0
      vertex 90 60 8
    endloop
  endfacet
  facet normal 1 0 0
    outer loop
      vertex 90 60 0
      vertex 90 55 8
      vertex 90 55 0
    endloop
  endfacet
  facet normal 1 0 0
    outer loop
      vertex 90 60 8
      vertex 90 67 19
      vertex 90 60 19
    endloop
  endfacet
  facet normal 1 0 0
    outer loop
      vertex 90 60 0
      vertex 90 67 19
      vertex 90 60 8
    endloop
  endfacet
  facet normal 1 0 0
    outer loop
      vertex 90 67 19
      vertex 90 60 0
      vertex 90 67 -19
    endloop
  endfacet
  facet normal 1 -0 0
    outer loop
      vertex 90 60 -12
      vertex 90 67 -19
      vertex 90 60 0
    endloop
  endfacet
  facet normal 1 -0 0
    outer loop
      vertex 90 55 -12
      vertex 90 67 -19
      vertex 90 60 -12
    endloop
  endfacet
  facet normal 1 0 0
    outer loop
      vertex 90 -55 0
      vertex 90 55 0
      vertex 90 -55 8
    endloop
  endfacet
  facet normal 1 0 0
    outer loop
      vertex 90 55 0
      vertex 90 -55 0
      vertex 90 55 -12
    endloop
  endfacet
  facet normal 1 0 0
    outer loop
      vertex 90 -55 -12
      vertex 90 55 -12
      vertex 90 -55 0
    endloop
  endfacet
  facet normal 1 0 0
    outer loop
      vertex 90 55 -12
      vertex 90 -55 -12
      vertex 90 67 -19
    endloop
  endfacet
  facet normal 1 0 0
    outer loop
      vertex 90 -67 -19
      vertex 90 -55 -12
      vertex 90 -60 -12
    endloop
  endfacet
  facet normal 1 0 0
    outer loop
      vertex 90 -55 -12
      vertex 90 -67 -19
      vertex 90 67 -19
    endloop
  endfacet
  facet normal 1 0 0
    outer loop
      vertex 90 -60 0
      vertex 90 -67 -19
      vertex 90 -60 -12
    endloop
  endfacet
  facet normal 0 1 0
    outer loop
      vertex 37.8423 96 -19
      vertex 37.8423 96 -16
      vertex 38 96 -17.5
    endloop
  endfacet
  facet normal 0 1 0
    outer loop
      vertex 37.8423 96 -16
      vertex 37.8423 96 -19
      vertex 18.1577 96 -16
    endloop
  endfacet
  facet normal 0 1 0
    outer loop
      vertex 18.1577 96 -19
      vertex 18.1577 96 -16
      vertex 37.8423 96 -19
    endloop
  endfacet
  facet normal 0 1 0
    outer loop
      vertex 18.1577 96 -16
      vertex 18.1577 96 -19
      vertex 18 96 -17.5
    endloop
  endfacet
  facet normal 0 0 -1
    outer loop
      vertex -35 0 -19
      vertex -30 30 -19
      vertex -10 43.3013 -19
    endloop
  endfacet
  facet normal 0 0 -1
    outer loop
      vertex -42.5 8.34936 -19
      vertex -35 0 -19
      vertex -42.5 -8.34936 -19
    endloop
  endfacet
  facet normal 0 0 -1
    outer loop
      vertex -35 0 -19
      vertex -42.5 8.34936 -19
      vertex -30 30 -19
    endloop
  endfacet
  facet normal 0 0 -1
    outer loop
      vertex -67.5 -8.34936 -19
      vertex -42.5 8.34936 -19
      vertex -42.5 -8.34936 -19
    endloop
  endfacet
  facet normal 0 0 -1
    outer loop
      vertex -67.5 -8.34936 -19
      vertex -67.5 8.34936 -19
      vertex -42.5 8.34936 -19
    endloop
  endfacet
  facet normal 0 0 -1
    outer loop
      vertex -80 -30 -19
      vertex -67.5 8.34936 -19
      vertex -67.5 -8.34936 -19
    endloop
  endfacet
  facet normal -0 0 -1
    outer loop
      vertex -67.5 8.34936 -19
      vertex -80 -30 -19
      vertex -80 30 -19
    endloop
  endfacet
  facet normal 0 0 -1
    outer loop
      vertex 37.8423 -96 -19
      vertex 36.665 -91 -19
      vertex 37.8423 -91 -19
    endloop
  endfacet
  facet normal 0 0 -1
    outer loop
      vertex 36.665 -91 -19
      vertex 19.335 -91 -19
      vertex 36.665 -76 -19
    endloop
  endfacet
  facet normal 0 0 -1
    outer loop
      vertex 37.8423 -96 -19
      vertex 19.335 -91 -19
      vertex 36.665 -91 -19
    endloop
  endfacet
  facet normal 0 0 -1
    outer loop
      vertex 18.1577 -96 -19
      vertex 19.335 -91 -19
      vertex 37.8423 -96 -19
    endloop
  endfacet
  facet normal -0 0 -1
    outer loop
      vertex 19.335 -91 -19
      vertex 18.1577 -96 -19
      vertex 18.1577 -91 -19
    endloop
  endfacet
  facet normal 0 0 -1
    outer loop
      vertex 36.665 -76 -19
      vertex 40 -67 -19
      vertex 40 -76 -19
    endloop
  endfacet
  facet normal 0 0 -1
    outer loop
      vertex 16 -67 -19
      vertex 40 -67 -19
      vertex 36.665 -76 -19
    endloop
  endfacet
  facet normal 0 0 -1
    outer loop
      vertex 19.335 -76 -19
      vertex 36.665 -76 -19
      vertex 19.335 -91 -19
    endloop
  endfacet
  facet normal 0 0 -1
    outer loop
      vertex 16 -67 -19
      vertex 36.665 -76 -19
      vertex 19.335 -76 -19
    endloop
  endfacet
  facet normal 0 0 -1
    outer loop
      vertex 16 -67 -19
      vertex 19.335 -76 -19
      vertex 16 -76 -19
    endloop
  endfacet
  facet normal 0 0 -1
    outer loop
      vertex 40 -67 -19
      vertex 16 -67 -19
      vertex 40 -43.3013 -19
    endloop
  endfacet
  facet normal 0 0 -1
    outer loop
      vertex 16 -67 -19
      vertex -10 -43.3013 -19
      vertex 40 -43.3013 -19
    endloop
  endfacet
  facet normal 0 0 -1
    outer loop
      vertex -42.5 -51.6506 -19
      vertex -10 -43.3013 -19
      vertex 16 -67 -19
    endloop
  endfacet
  facet normal -0 0 -1
    outer loop
      vertex -10 -43.3013 -19
      vertex -42.5 -51.6506 -19
      vertex -30 -30 -19
    endloop
  endfacet
  facet normal 0 0 -1
    outer loop
      vertex -90 -67 -19
      vertex -42.5 -51.6506 -19
      vertex 16 -67 -19
    endloop
  endfacet
  facet normal -0 0 -1
    outer loop
      vertex -80 -30 -19
      vertex -90 -67 -19
      vertex -80 30 -19
    endloop
  endfacet
  facet normal -0 0 -1
    outer loop
      vertex -67.5 -51.6506 -19
      vertex -90 -67 -19
      vertex -80 -30 -19
    endloop
  endfacet
  facet normal -0 0 -1
    outer loop
      vertex -42.5 -51.6506 -19
      vertex -90 -67 -19
      vertex -67.5 -51.6506 -19
    endloop
  endfacet
  facet normal 0 0 -1
    outer loop
      vertex 36.665 91 -19
      vertex 37.8423 96 -19
      vertex 37.8423 91 -19
    endloop
  endfacet
  facet normal 0 0 -1
    outer loop
      vertex 19.335 91 -19
      vertex 36.665 91 -19
      vertex 19.335 76 -19
    endloop
  endfacet
  facet normal 0 0 -1
    outer loop
      vertex 36.665 91 -19
      vertex 19.335 91 -19
      vertex 37.8423 96 -19
    endloop
  endfacet
  facet normal 0 0 -1
    outer loop
      vertex 18.1577 96 -19
      vertex 19.335 91 -19
      vertex 18.1577 91 -19
    endloop
  endfacet
  facet normal 0 0 -1
    outer loop
      vertex 19.335 91 -19
      vertex 18.1577 96 -19
      vertex 37.8423 96 -19
    endloop
  endfacet
  facet normal -0 0 -1
    outer loop
      vertex 19.335 76 -19
      vertex 16 67 -19
      vertex 16 76 -19
    endloop
  endfacet
  facet normal 0 0 -1
    outer loop
      vertex -30 -30 -19
      vertex -35 0 -19
      vertex -10 -43.3013 -19
    endloop
  endfacet
  facet normal 0 -0 -1
    outer loop
      vertex -35 0 -19
      vertex -30 -30 -19
      vertex -42.5 -8.34936 -19
    endloop
  endfacet
  facet normal 0 0 -1
    outer loop
      vertex 90 67 -19
      vertex 62.111 48.1697 -19
      vertex 62.5 50 -19
    endloop
  endfacet
  facet normal 0 0 -1
    outer loop
      vertex 65 0 -19
      vertex 61.0111 46.6558 -19
      vertex 62.111 48.1697 -19
    endloop
  endfacet
  facet normal 0 0 -1
    outer loop
      vertex 65 0 -19
      vertex 59.3906 45.7202 -19
      vertex 61.0111 46.6558 -19
    endloop
  endfacet
  facet normal 0 0 -1
    outer loop
      vertex 65 0 -19
      vertex 57.5296 45.5247 -19
      vertex 59.3906 45.7202 -19
    endloop
  endfacet
  facet normal 0 0 -1
    outer loop
      vertex 40 43.3013 -19
      vertex 57.5296 45.5247 -19
      vertex 65 0 -19
    endloop
  endfacet
  facet normal -0 0 -1
    outer loop
      vertex 57.5296 45.5247 -19
      vertex 40 43.3013 -19
      vertex 55.75 46.1029 -19
    endloop
  endfacet
  facet normal -0 0 -1
    outer loop
      vertex 55.75 46.1029 -19
      vertex 40 43.3013 -19
      vertex 54.3594 47.355 -19
    endloop
  endfacet
  facet normal -0 0 -1
    outer loop
      vertex 53.5983 49.0644 -19
      vertex 40 43.3013 -19
      vertex 53.5983 50.9356 -19
    endloop
  endfacet
  facet normal -0 0 -1
    outer loop
      vertex 54.3594 47.355 -19
      vertex 40 43.3013 -19
      vertex 53.5983 49.0644 -19
    endloop
  endfacet
  facet normal 0 0 -1
    outer loop
      vertex 90 -67 -19
      vertex 65 0 -19
      vertex 90 67 -19
    endloop
  endfacet
  facet normal 0 0 -1
    outer loop
      vertex 62.111 -48.1697 -19
      vertex 90 -67 -19
      vertex 62.5 -50 -19
    endloop
  endfacet
  facet normal 0 0 -1
    outer loop
      vertex 90 -67 -19
      vertex 62.111 -51.8303 -19
      vertex 62.5 -50 -19
    endloop
  endfacet
  facet normal 0 0 -1
    outer loop
      vertex 90 -67 -19
      vertex 61.0111 -53.3442 -19
      vertex 62.111 -51.8303 -19
    endloop
  endfacet
  facet normal 0 0 -1
    outer loop
      vertex 90 -67 -19
      vertex 59.3906 -54.2798 -19
      vertex 61.0111 -53.3442 -19
    endloop
  endfacet
  facet normal 0 0 -1
    outer loop
      vertex 40 -67 -19
      vertex 59.3906 -54.2798 -19
      vertex 90 -67 -19
    endloop
  endfacet
  facet normal 0 0 -1
    outer loop
      vertex 59.3906 -54.2798 -19
      vertex 40 -67 -19
      vertex 57.5296 -54.4753 -19
    endloop
  endfacet
  facet normal 0 0 -1
    outer loop
      vertex 40 -43.3013 -19
      vertex 53.5983 -50.9356 -19
      vertex 40 -67 -19
    endloop
  endfacet
  facet normal -0 0 -1
    outer loop
      vertex 54.3594 -52.645 -19
      vertex 40 -67 -19
      vertex 53.5983 -50.9356 -19
    endloop
  endfacet
  facet normal -0 0 -1
    outer loop
      vertex 55.75 -53.8971 -19
      vertex 40 -67 -19
      vertex 54.3594 -52.645 -19
    endloop
  endfacet
  facet normal -0 0 -1
    outer loop
      vertex 57.5296 -54.4753 -19
      vertex 40 -67 -19
      vertex 55.75 -53.8971 -19
    endloop
  endfacet
  facet normal 0 0 -1
    outer loop
      vertex 62.111 48.1697 -19
      vertex 90 67 -19
      vertex 65 0 -19
    endloop
  endfacet
  facet normal 0 0 -1
    outer loop
      vertex 62.111 51.8303 -19
      vertex 90 67 -19
      vertex 62.5 50 -19
    endloop
  endfacet
  facet normal 0 0 -1
    outer loop
      vertex 61.0111 53.3442 -19
      vertex 90 67 -19
      vertex 62.111 51.8303 -19
    endloop
  endfacet
  facet normal 0 0 -1
    outer loop
      vertex 59.3906 54.2798 -19
      vertex 90 67 -19
      vertex 61.0111 53.3442 -19
    endloop
  endfacet
  facet normal 0 0 -1
    outer loop
      vertex 40 67 -19
      vertex 59.3906 54.2798 -19
      vertex 57.5296 54.4753 -19
    endloop
  endfacet
  facet normal 0 0 -1
    outer loop
      vertex 40 67 -19
      vertex 57.5296 54.4753 -19
      vertex 55.75 53.8971 -19
    endloop
  endfacet
  facet normal 0 0 -1
    outer loop
      vertex 40 67 -19
      vertex 53.5983 50.9356 -19
      vertex 40 43.3013 -19
    endloop
  endfacet
  facet normal 0 0 -1
    outer loop
      vertex 53.5983 50.9356 -19
      vertex 40 67 -19
      vertex 54.3594 52.645 -19
    endloop
  endfacet
  facet normal 0 0 -1
    outer loop
      vertex 59.3906 54.2798 -19
      vertex 40 67 -19
      vertex 90 67 -19
    endloop
  endfacet
  facet normal 0 0 -1
    outer loop
      vertex 54.3594 52.645 -19
      vertex 40 67 -19
      vertex 55.75 53.8971 -19
    endloop
  endfacet
  facet normal 0 0 -1
    outer loop
      vertex 16 67 -19
      vertex 40 67 -19
      vertex 40 43.3013 -19
    endloop
  endfacet
  facet normal 0 0 -1
    outer loop
      vertex 40 67 -19
      vertex 36.665 76 -19
      vertex 40 76 -19
    endloop
  endfacet
  facet normal 0 0 -1
    outer loop
      vertex 36.665 76 -19
      vertex 19.335 76 -19
      vertex 36.665 91 -19
    endloop
  endfacet
  facet normal 0 0 -1
    outer loop
      vertex 40 67 -19
      vertex 16 67 -19
      vertex 36.665 76 -19
    endloop
  endfacet
  facet normal -0 0 -1
    outer loop
      vertex 36.665 76 -19
      vertex 16 67 -19
      vertex 19.335 76 -19
    endloop
  endfacet
  facet normal 0 0 -1
    outer loop
      vertex -10 43.3013 -19
      vertex 16 67 -19
      vertex 40 43.3013 -19
    endloop
  endfacet
  facet normal 0 0 -1
    outer loop
      vertex -42.5 51.6506 -19
      vertex -10 43.3013 -19
      vertex -30 30 -19
    endloop
  endfacet
  facet normal 0 0 -1
    outer loop
      vertex -10 43.3013 -19
      vertex -42.5 51.6506 -19
      vertex 16 67 -19
    endloop
  endfacet
  facet normal 0 0 -1
    outer loop
      vertex -90 67 -19
      vertex -42.5 51.6506 -19
      vertex -67.5 51.6506 -19
    endloop
  endfacet
  facet normal 0 0 -1
    outer loop
      vertex -42.5 51.6506 -19
      vertex -90 67 -19
      vertex 16 67 -19
    endloop
  endfacet
  facet normal 0 0 -1
    outer loop
      vertex -80 30 -19
      vertex -90 67 -19
      vertex -67.5 51.6506 -19
    endloop
  endfacet
  facet normal 0 0 -1
    outer loop
      vertex -90 67 -19
      vertex -80 30 -19
      vertex -90 -67 -19
    endloop
  endfacet
  facet normal 0 0 -1
    outer loop
      vertex 90 -67 -19
      vertex 62.111 -48.1697 -19
      vertex 65 0 -19
    endloop
  endfacet
  facet normal 0 0 -1
    outer loop
      vertex 61.0111 -46.6558 -19
      vertex 65 0 -19
      vertex 62.111 -48.1697 -19
    endloop
  endfacet
  facet normal 0 0 -1
    outer loop
      vertex 59.3906 -45.7202 -19
      vertex 65 0 -19
      vertex 61.0111 -46.6558 -19
    endloop
  endfacet
  facet normal 0 0 -1
    outer loop
      vertex 57.5296 -45.5247 -19
      vertex 65 0 -19
      vertex 59.3906 -45.7202 -19
    endloop
  endfacet
  facet normal 0 0 -1
    outer loop
      vertex 40 -43.3013 -19
      vertex 57.5296 -45.5247 -19
      vertex 55.75 -46.1029 -19
    endloop
  endfacet
  facet normal 0 0 -1
    outer loop
      vertex 40 -43.3013 -19
      vertex 55.75 -46.1029 -19
      vertex 54.3594 -47.355 -19
    endloop
  endfacet
  facet normal 0 0 -1
    outer loop
      vertex 40 -43.3013 -19
      vertex 54.3594 -47.355 -19
      vertex 53.5983 -49.0644 -19
    endloop
  endfacet
  facet normal 0 0 -1
    outer loop
      vertex 53.5983 -50.9356 -19
      vertex 40 -43.3013 -19
      vertex 53.5983 -49.0644 -19
    endloop
  endfacet
  facet normal 0 0 -1
    outer loop
      vertex 57.5296 -45.5247 -19
      vertex 40 -43.3013 -19
      vertex 65 0 -19
    endloop
  endfacet
  facet normal 0 -1 0
    outer loop
      vertex 18.1577 -96 -19
      vertex 18.1577 -96 -16
      vertex 18 -96 -17.5
    endloop
  endfacet
  facet normal 0 -1 0
    outer loop
      vertex 18.1577 -96 -16
      vertex 18.1577 -96 -19
      vertex 37.8423 -96 -16
    endloop
  endfacet
  facet normal 0 -1 0
    outer loop
      vertex 37.8423 -96 -19
      vertex 37.8423 -96 -16
      vertex 18.1577 -96 -19
    endloop
  endfacet
  facet normal 0 -1 0
    outer loop
      vertex 37.8423 -96 -16
      vertex 37.8423 -96 -19
      vertex 38 -96 -17.5
    endloop
  endfacet
  facet normal -1 0 0
    outer loop
      vertex 87 -60 0
      vertex 87 -55 8
      vertex 87 -55 0
    endloop
  endfacet
  facet normal -1 -0 0
    outer loop
      vertex 87 -55 8
      vertex 87 -60 0
      vertex 87 -60 8
    endloop
  endfacet
  facet normal -1 0 0
    outer loop
      vertex 87 55 0
      vertex 87 60 8
      vertex 87 60 0
    endloop
  endfacet
  facet normal -1 -0 0
    outer loop
      vertex 87 60 8
      vertex 87 55 0
      vertex 87 55 8
    endloop
  endfacet
  facet normal -1 0 0
    outer loop
      vertex 87 60 0
      vertex 87 67 -16
      vertex 87 60 -12
    endloop
  endfacet
  facet normal -1 0 0
    outer loop
      vertex 87 67 -16
      vertex 87 55 -12
      vertex 87 60 -12
    endloop
  endfacet
  facet normal -1 0 0
    outer loop
      vertex 87 -55 0
      vertex 87 55 0
      vertex 87 55 -12
    endloop
  endfacet
  facet normal -1 0 0
    outer loop
      vertex 87 55 0
      vertex 87 -55 0
      vertex 87 55 8
    endloop
  endfacet
  facet normal -1 0 0
    outer loop
      vertex 87 -55 0
      vertex 87 55 -12
      vertex 87 -55 -12
    endloop
  endfacet
  facet normal -1 0 0
    outer loop
      vertex 87 67 -16
      vertex 87 -55 -12
      vertex 87 55 -12
    endloop
  endfacet
  facet normal -1 0 0
    outer loop
      vertex 87 -67 -16
      vertex 87 -55 -12
      vertex 87 67 -16
    endloop
  endfacet
  facet normal -1 0 0
    outer loop
      vertex 87 -67 -16
      vertex 87 -60 0
      vertex 87 -60 -12
    endloop
  endfacet
  facet normal -1 0 0
    outer loop
      vertex 87 -67 19
      vertex 87 -60 0
      vertex 87 -67 -16
    endloop
  endfacet
  facet normal -1 -0 0
    outer loop
      vertex 87 -55 -12
      vertex 87 -67 -16
      vertex 87 -60 -12
    endloop
  endfacet
  facet normal -1 0 0
    outer loop
      vertex 87 -60 0
      vertex 87 -67 19
      vertex 87 -60 8
    endloop
  endfacet
  facet normal -1 0 0
    outer loop
      vertex 87 -60 8
      vertex 87 -67 19
      vertex 87 -60 19
    endloop
  endfacet
  facet normal -1 0 0
    outer loop
      vertex 87 67 -16
      vertex 87 60 0
      vertex 87 67 19
    endloop
  endfacet
  facet normal -1 0 0
    outer loop
      vertex 87 60 8
      vertex 87 67 19
      vertex 87 60 0
    endloop
  endfacet
  facet normal -1 -0 0
    outer loop
      vertex 87 67 19
      vertex 87 60 8
      vertex 87 60 19
    endloop
  endfacet
  facet normal -1 0 0
    outer loop
      vertex 87 -55 8
      vertex 87 55 8
      vertex 87 -55 0
    endloop
  endfacet
  facet normal -1 0 0
    outer loop
      vertex 87 55 8
      vertex 87 -55 8
      vertex 87 55 19
    endloop
  endfacet
  facet normal -1 -0 0
    outer loop
      vertex 87 55 19
      vertex 87 -55 8
      vertex 87 -55 19
    endloop
  endfacet
  facet normal 0 0 1
    outer loop
      vertex -35 0 -16
      vertex -30 -30 -16
      vertex -10 -43.3013 -16
    endloop
  endfacet
  facet normal 0 0 1
    outer loop
      vertex -42.5 -8.34936 -16
      vertex -35 0 -16
      vertex -42.5 8.34936 -16
    endloop
  endfacet
  facet normal 0 0 1
    outer loop
      vertex -35 0 -16
      vertex -42.5 -8.34936 -16
      vertex -30 -30 -16
    endloop
  endfacet
  facet normal -0 0 1
    outer loop
      vertex -67.5 8.34936 -16
      vertex -42.5 -8.34936 -16
      vertex -42.5 8.34936 -16
    endloop
  endfacet
  facet normal 0 0 1
    outer loop
      vertex -67.5 8.34936 -16
      vertex -67.5 -8.34936 -16
      vertex -42.5 -8.34936 -16
    endloop
  endfacet
  facet normal 0 0 1
    outer loop
      vertex -80 30 -16
      vertex -67.5 -8.34936 -16
      vertex -67.5 8.34936 -16
    endloop
  endfacet
  facet normal 0 0 1
    outer loop
      vertex -67.5 -8.34936 -16
      vertex -80 30 -16
      vertex -80 -30 -16
    endloop
  endfacet
  facet normal 0 0 1
    outer loop
      vertex 37.8423 96 -16
      vertex 36.665 91 -16
      vertex 37.8423 91 -16
    endloop
  endfacet
  facet normal 0 0 1
    outer loop
      vertex 36.665 91 -16
      vertex 19.335 91 -16
      vertex 36.665 76 -16
    endloop
  endfacet
  facet normal 0 0 1
    outer loop
      vertex 37.8423 96 -16
      vertex 19.335 91 -16
      vertex 36.665 91 -16
    endloop
  endfacet
  facet normal -0 0 1
    outer loop
      vertex 18.1577 96 -16
      vertex 19.335 91 -16
      vertex 37.8423 96 -16
    endloop
  endfacet
  facet normal 0 0 1
    outer loop
      vertex 19.335 91 -16
      vertex 18.1577 96 -16
      vertex 18.1577 91 -16
    endloop
  endfacet
  facet normal -0 0 1
    outer loop
      vertex 36.665 76 -16
      vertex 40 67 -16
      vertex 40 76 -16
    endloop
  endfacet
  facet normal 0 0 1
    outer loop
      vertex 16 67 -16
      vertex 40 67 -16
      vertex 36.665 76 -16
    endloop
  endfacet
  facet normal 0 0 1
    outer loop
      vertex 19.335 76 -16
      vertex 36.665 76 -16
      vertex 19.335 91 -16
    endloop
  endfacet
  facet normal 0 0 1
    outer loop
      vertex 16 67 -16
      vertex 36.665 76 -16
      vertex 19.335 76 -16
    endloop
  endfacet
  facet normal 0 0 1
    outer loop
      vertex 16 67 -16
      vertex 19.335 76 -16
      vertex 16 76 -16
    endloop
  endfacet
  facet normal 0 0 1
    outer loop
      vertex 40 67 -16
      vertex 16 67 -16
      vertex 40 43.3013 -16
    endloop
  endfacet
  facet normal 0 0 1
    outer loop
      vertex 16 67 -16
      vertex -10 43.3013 -16
      vertex 40 43.3013 -16
    endloop
  endfacet
  facet normal -0 0 1
    outer loop
      vertex -42.5 51.6506 -16
      vertex -10 43.3013 -16
      vertex 16 67 -16
    endloop
  endfacet
  facet normal 0 0 1
    outer loop
      vertex -10 43.3013 -16
      vertex -42.5 51.6506 -16
      vertex -30 30 -16
    endloop
  endfacet
  facet normal -0 0 1
    outer loop
      vertex -90 67 -16
      vertex -42.5 51.6506 -16
      vertex 16 67 -16
    endloop
  endfacet
  facet normal 0 0 1
    outer loop
      vertex -80 30 -16
      vertex -90 67 -16
      vertex -80 -30 -16
    endloop
  endfacet
  facet normal 0 0 1
    outer loop
      vertex -67.5 51.6506 -16
      vertex -90 67 -16
      vertex -80 30 -16
    endloop
  endfacet
  facet normal 0 0 1
    outer loop
      vertex -42.5 51.6506 -16
      vertex -90 67 -16
      vertex -67.5 51.6506 -16
    endloop
  endfacet
  facet normal -0 0 1
    outer loop
      vertex 36.665 -91 -16
      vertex 37.8423 -96 -16
      vertex 37.8423 -91 -16
    endloop
  endfacet
  facet normal 0 0 1
    outer loop
      vertex 19.335 -91 -16
      vertex 36.665 -91 -16
      vertex 19.335 -76 -16
    endloop
  endfacet
  facet normal 0 0 1
    outer loop
      vertex 36.665 -91 -16
      vertex 19.335 -91 -16
      vertex 37.8423 -96 -16
    endloop
  endfacet
  facet normal 0 0 1
    outer loop
      vertex 18.1577 -96 -16
      vertex 19.335 -91 -16
      vertex 18.1577 -91 -16
    endloop
  endfacet
  facet normal 0 0 1
    outer loop
      vertex 19.335 -91 -16
      vertex 18.1577 -96 -16
      vertex 37.8423 -96 -16
    endloop
  endfacet
  facet normal 0 0 1
    outer loop
      vertex 19.335 -76 -16
      vertex 16 -67 -16
      vertex 16 -76 -16
    endloop
  endfacet
  facet normal -0 0 1
    outer loop
      vertex -30 30 -16
      vertex -35 0 -16
      vertex -10 43.3013 -16
    endloop
  endfacet
  facet normal 0 -0 1
    outer loop
      vertex -35 0 -16
      vertex -30 30 -16
      vertex -42.5 8.34936 -16
    endloop
  endfacet
  facet normal 0 0 1
    outer loop
      vertex 87 -67 -16
      vertex 62.111 -48.1697 -16
      vertex 62.5 -50 -16
    endloop
  endfacet
  facet normal 0 0 1
    outer loop
      vertex 65 0 -16
      vertex 61.0111 -46.6558 -16
      vertex 62.111 -48.1697 -16
    endloop
  endfacet
  facet normal 0 0 1
    outer loop
      vertex 65 0 -16
      vertex 59.3906 -45.7202 -16
      vertex 61.0111 -46.6558 -16
    endloop
  endfacet
  facet normal 0 0 1
    outer loop
      vertex 65 0 -16
      vertex 57.5296 -45.5247 -16
      vertex 59.3906 -45.7202 -16
    endloop
  endfacet
  facet normal -0 0 1
    outer loop
      vertex 40 -43.3013 -16
      vertex 57.5296 -45.5247 -16
      vertex 65 0 -16
    endloop
  endfacet
  facet normal 0 0 1
    outer loop
      vertex 57.5296 -45.5247 -16
      vertex 40 -43.3013 -16
      vertex 55.75 -46.1029 -16
    endloop
  endfacet
  facet normal 0 0 1
    outer loop
      vertex 55.75 -46.1029 -16
      vertex 40 -43.3013 -16
      vertex 54.3594 -47.355 -16
    endloop
  endfacet
  facet normal 0 0 1
    outer loop
      vertex 53.5983 -49.0644 -16
      vertex 40 -43.3013 -16
      vertex 53.5983 -50.9356 -16
    endloop
  endfacet
  facet normal 0 0 1
    outer loop
      vertex 54.3594 -47.355 -16
      vertex 40 -43.3013 -16
      vertex 53.5983 -49.0644 -16
    endloop
  endfacet
  facet normal 0 0 1
    outer loop
      vertex 87 67 -16
      vertex 65 0 -16
      vertex 87 -67 -16
    endloop
  endfacet
  facet normal 0 0 1
    outer loop
      vertex 62.111 48.1697 -16
      vertex 87 67 -16
      vertex 62.5 50 -16
    endloop
  endfacet
  facet normal 0 0 1
    outer loop
      vertex 87 67 -16
      vertex 62.111 51.8303 -16
      vertex 62.5 50 -16
    endloop
  endfacet
  facet normal 0 0 1
    outer loop
      vertex 87 67 -16
      vertex 61.0111 53.3442 -16
      vertex 62.111 51.8303 -16
    endloop
  endfacet
  facet normal 0 0 1
    outer loop
      vertex 87 67 -16
      vertex 59.3906 54.2798 -16
      vertex 61.0111 53.3442 -16
    endloop
  endfacet
  facet normal -0 0 1
    outer loop
      vertex 40 67 -16
      vertex 59.3906 54.2798 -16
      vertex 87 67 -16
    endloop
  endfacet
  facet normal 0 0 1
    outer loop
      vertex 59.3906 54.2798 -16
      vertex 40 67 -16
      vertex 57.5296 54.4753 -16
    endloop
  endfacet
  facet normal 0 0 1
    outer loop
      vertex 40 43.3013 -16
      vertex 53.5983 50.9356 -16
      vertex 40 67 -16
    endloop
  endfacet
  facet normal 0 0 1
    outer loop
      vertex 54.3594 52.645 -16
      vertex 40 67 -16
      vertex 53.5983 50.9356 -16
    endloop
  endfacet
  facet normal 0 0 1
    outer loop
      vertex 55.75 53.8971 -16
      vertex 40 67 -16
      vertex 54.3594 52.645 -16
    endloop
  endfacet
  facet normal 0 0 1
    outer loop
      vertex 57.5296 54.4753 -16
      vertex 40 67 -16
      vertex 55.75 53.8971 -16
    endloop
  endfacet
  facet normal -0 0 1
    outer loop
      vertex 62.111 -48.1697 -16
      vertex 87 -67 -16
      vertex 65 0 -16
    endloop
  endfacet
  facet normal -0 0 1
    outer loop
      vertex 62.111 -51.8303 -16
      vertex 87 -67 -16
      vertex 62.5 -50 -16
    endloop
  endfacet
  facet normal -0 0 1
    outer loop
      vertex 61.0111 -53.3442 -16
      vertex 87 -67 -16
      vertex 62.111 -51.8303 -16
    endloop
  endfacet
  facet normal -0 0 1
    outer loop
      vertex 59.3906 -54.2798 -16
      vertex 87 -67 -16
      vertex 61.0111 -53.3442 -16
    endloop
  endfacet
  facet normal 0 0 1
    outer loop
      vertex 40 -67 -16
      vertex 59.3906 -54.2798 -16
      vertex 57.5296 -54.4753 -16
    endloop
  endfacet
  facet normal 0 0 1
    outer loop
      vertex 40 -67 -16
      vertex 57.5296 -54.4753 -16
      vertex 55.75 -53.8971 -16
    endloop
  endfacet
  facet normal 0 0 1
    outer loop
      vertex 40 -67 -16
      vertex 53.5983 -50.9356 -16
      vertex 40 -43.3013 -16
    endloop
  endfacet
  facet normal 0 0 1
    outer loop
      vertex 53.5983 -50.9356 -16
      vertex 40 -67 -16
      vertex 54.3594 -52.645 -16
    endloop
  endfacet
  facet normal 0 0 1
    outer loop
      vertex 59.3906 -54.2798 -16
      vertex 40 -67 -16
      vertex 87 -67 -16
    endloop
  endfacet
  facet normal 0 0 1
    outer loop
      vertex 54.3594 -52.645 -16
      vertex 40 -67 -16
      vertex 55.75 -53.8971 -16
    endloop
  endfacet
  facet normal 0 0 1
    outer loop
      vertex 16 -67 -16
      vertex 40 -67 -16
      vertex 40 -43.3013 -16
    endloop
  endfacet
  facet normal 0 0 1
    outer loop
      vertex 40 -67 -16
      vertex 36.665 -76 -16
      vertex 40 -76 -16
    endloop
  endfacet
  facet normal 0 0 1
    outer loop
      vertex 36.665 -76 -16
      vertex 19.335 -76 -16
      vertex 36.665 -91 -16
    endloop
  endfacet
  facet normal 0 0 1
    outer loop
      vertex 40 -67 -16
      vertex 16 -67 -16
      vertex 36.665 -76 -16
    endloop
  endfacet
  facet normal 0 0 1
    outer loop
      vertex 36.665 -76 -16
      vertex 16 -67 -16
      vertex 19.335 -76 -16
    endloop
  endfacet
  facet normal -0 0 1
    outer loop
      vertex -10 -43.3013 -16
      vertex 16 -67 -16
      vertex 40 -43.3013 -16
    endloop
  endfacet
  facet normal 0 0 1
    outer loop
      vertex -42.5 -51.6506 -16
      vertex -10 -43.3013 -16
      vertex -30 -30 -16
    endloop
  endfacet
  facet normal 0 0 1
    outer loop
      vertex -10 -43.3013 -16
      vertex -42.5 -51.6506 -16
      vertex 16 -67 -16
    endloop
  endfacet
  facet normal 0 0 1
    outer loop
      vertex -90 -67 -16
      vertex -42.5 -51.6506 -16
      vertex -67.5 -51.6506 -16
    endloop
  endfacet
  facet normal 0 0 1
    outer loop
      vertex -42.5 -51.6506 -16
      vertex -90 -67 -16
      vertex 16 -67 -16
    endloop
  endfacet
  facet normal 0 0 1
    outer loop
      vertex -80 -30 -16
      vertex -90 -67 -16
      vertex -67.5 -51.6506 -16
    endloop
  endfacet
  facet normal 0 0 1
    outer loop
      vertex -90 -67 -16
      vertex -80 -30 -16
      vertex -90 67 -16
    endloop
  endfacet
  facet normal 0 0 1
    outer loop
      vertex 87 67 -16
      vertex 62.111 48.1697 -16
      vertex 65 0 -16
    endloop
  endfacet
  facet normal -0 0 1
    outer loop
      vertex 61.0111 46.6558 -16
      vertex 65 0 -16
      vertex 62.111 48.1697 -16
    endloop
  endfacet
  facet normal -0 0 1
    outer loop
      vertex 59.3906 45.7202 -16
      vertex 65 0 -16
      vertex 61.0111 46.6558 -16
    endloop
  endfacet
  facet normal -0 0 1
    outer loop
      vertex 57.5296 45.5247 -16
      vertex 65 0 -16
      vertex 59.3906 45.7202 -16
    endloop
  endfacet
  facet normal 0 0 1
    outer loop
      vertex 40 43.3013 -16
      vertex 57.5296 45.5247 -16
      vertex 55.75 46.1029 -16
    endloop
  endfacet
  facet normal 0 0 1
    outer loop
      vertex 40 43.3013 -16
      vertex 55.75 46.1029 -16
      vertex 54.3594 47.355 -16
    endloop
  endfacet
  facet normal 0 0 1
    outer loop
      vertex 40 43.3013 -16
      vertex 54.3594 47.355 -16
      vertex 53.5983 49.0644 -16
    endloop
  endfacet
  facet normal 0 0 1
    outer loop
      vertex 53.5983 50.9356 -16
      vertex 40 43.3013 -16
      vertex 53.5983 49.0644 -16
    endloop
  endfacet
  facet normal 0 0 1
    outer loop
      vertex 57.5296 45.5247 -16
      vertex 40 43.3013 -16
      vertex 65 0 -16
    endloop
  endfacet
  facet normal 1 -0 0
    outer loop
      vertex 40 67 -16
      vertex 40 76 -19
      vertex 40 76 -16
    endloop
  endfacet
  facet normal 1 0 0
    outer loop
      vertex 40 76 -19
      vertex 40 67 -16
      vertex 40 67 -19
    endloop
  endfacet
  facet normal 0 1 0
    outer loop
      vertex 90 67 19
      vertex 87 67 -16
      vertex 87 67 19
    endloop
  endfacet
  facet normal 0 1 -0
    outer loop
      vertex 90 67 -19
      vertex 87 67 -16
      vertex 90 67 19
    endloop
  endfacet
  facet normal 0 1 0
    outer loop
      vertex 40 67 -19
      vertex 87 67 -16
      vertex 90 67 -19
    endloop
  endfacet
  facet normal 0 1 0
    outer loop
      vertex 87 67 -16
      vertex 40 67 -19
      vertex 40 67 -16
    endloop
  endfacet
  facet normal 1 -0 0
    outer loop
      vertex 40 -76 -16
      vertex 40 -67 -19
      vertex 40 -67 -16
    endloop
  endfacet
  facet normal 1 0 0
    outer loop
      vertex 40 -67 -19
      vertex 40 -76 -16
      vertex 40 -76 -19
    endloop
  endfacet
  facet normal 0 -1 0
    outer loop
      vertex 40 -67 -16
      vertex 40 -67 -19
      vertex 87 -67 -16
    endloop
  endfacet
  facet normal 0 -1 0
    outer loop
      vertex 87 -67 -16
      vertex 90 -67 19
      vertex 87 -67 19
    endloop
  endfacet
  facet normal 0 -1 0
    outer loop
      vertex 87 -67 -16
      vertex 90 -67 -19
      vertex 90 -67 19
    endloop
  endfacet
  facet normal 0 -1 0
    outer loop
      vertex 90 -67 -19
      vertex 87 -67 -16
      vertex 40 -67 -19
    endloop
  endfacet
  facet normal -1 0 0
    outer loop
      vertex 16 67 -19
      vertex 16 76 -16
      vertex 16 76 -19
    endloop
  endfacet
  facet normal -1 -0 0
    outer loop
      vertex 16 76 -16
      vertex 16 67 -19
      vertex 16 67 -16
    endloop
  endfacet
  facet normal 0 1 -0
    outer loop
      vertex 16 67 -19
      vertex -90 67 -16
      vertex 16 67 -16
    endloop
  endfacet
  facet normal 0 1 0
    outer loop
      vertex -90 67 -16
      vertex 16 67 -19
      vertex -90 67 -19
    endloop
  endfacet
  facet normal -1 0 0
    outer loop
      vertex 16 -76 -19
      vertex 16 -67 -16
      vertex 16 -67 -19
    endloop
  endfacet
  facet normal -1 -0 0
    outer loop
      vertex 16 -67 -16
      vertex 16 -76 -19
      vertex 16 -76 -16
    endloop
  endfacet
  facet normal 0 -1 0
    outer loop
      vertex -90 -67 -19
      vertex 16 -67 -16
      vertex -90 -67 -16
    endloop
  endfacet
  facet normal 0 -1 -0
    outer loop
      vertex 16 -67 -16
      vertex -90 -67 -19
      vertex 16 -67 -19
    endloop
  endfacet
  facet normal -1 0 0
    outer loop
      vertex 19.335 76 -19
      vertex 19.335 91 -16
      vertex 19.335 91 -19
    endloop
  endfacet
  facet normal -1 -0 0
    outer loop
      vertex 19.335 91 -16
      vertex 19.335 76 -19
      vertex 19.335 76 -16
    endloop
  endfacet
  facet normal 0 1 -0
    outer loop
      vertex 19.335 76 -19
      vertex 16 76 -16
      vertex 19.335 76 -16
    endloop
  endfacet
  facet normal 0 1 0
    outer loop
      vertex 16 76 -16
      vertex 19.335 76 -19
      vertex 16 76 -19
    endloop
  endfacet
  facet normal 0 -1 0
    outer loop
      vertex 18 91 -17.5
      vertex 19.335 91 -16
      vertex 18.1577 91 -16
    endloop
  endfacet
  facet normal 0 -1 0
    outer loop
      vertex 19.335 91 -19
      vertex 18 91 -17.5
      vertex 18.1577 91 -19
    endloop
  endfacet
  facet normal 0 -1 0
    outer loop
      vertex 18 91 -17.5
      vertex 19.335 91 -19
      vertex 19.335 91 -16
    endloop
  endfacet
  facet normal 1 -0 0
    outer loop
      vertex 36.665 76 -16
      vertex 36.665 91 -19
      vertex 36.665 91 -16
    endloop
  endfacet
  facet normal 1 0 0
    outer loop
      vertex 36.665 91 -19
      vertex 36.665 76 -16
      vertex 36.665 76 -19
    endloop
  endfacet
  facet normal 0 -1 0
    outer loop
      vertex 36.665 91 -16
      vertex 38 91 -17.5
      vertex 37.8423 91 -16
    endloop
  endfacet
  facet normal 0 -1 0
    outer loop
      vertex 36.665 91 -19
      vertex 38 91 -17.5
      vertex 36.665 91 -16
    endloop
  endfacet
  facet normal 0 -1 0
    outer loop
      vertex 38 91 -17.5
      vertex 36.665 91 -19
      vertex 37.8423 91 -19
    endloop
  endfacet
  facet normal 0 1 -0
    outer loop
      vertex 40 76 -19
      vertex 36.665 76 -16
      vertex 40 76 -16
    endloop
  endfacet
  facet normal 0 1 0
    outer loop
      vertex 36.665 76 -16
      vertex 40 76 -19
      vertex 36.665 76 -19
    endloop
  endfacet
  facet normal -1 0 0
    outer loop
      vertex 19.335 -91 -19
      vertex 19.335 -76 -16
      vertex 19.335 -76 -19
    endloop
  endfacet
  facet normal -1 -0 0
    outer loop
      vertex 19.335 -76 -16
      vertex 19.335 -91 -19
      vertex 19.335 -91 -16
    endloop
  endfacet
  facet normal 0 -1 0
    outer loop
      vertex 16 -76 -19
      vertex 19.335 -76 -16
      vertex 16 -76 -16
    endloop
  endfacet
  facet normal 0 -1 -0
    outer loop
      vertex 19.335 -76 -16
      vertex 16 -76 -19
      vertex 19.335 -76 -19
    endloop
  endfacet
  facet normal 0 1 0
    outer loop
      vertex 19.335 -91 -16
      vertex 18 -91 -17.5
      vertex 18.1577 -91 -16
    endloop
  endfacet
  facet normal 0 1 -0
    outer loop
      vertex 19.335 -91 -19
      vertex 18 -91 -17.5
      vertex 19.335 -91 -16
    endloop
  endfacet
  facet normal 0 1 0
    outer loop
      vertex 18 -91 -17.5
      vertex 19.335 -91 -19
      vertex 18.1577 -91 -19
    endloop
  endfacet
  facet normal 1 -0 0
    outer loop
      vertex 36.665 -91 -16
      vertex 36.665 -76 -19
      vertex 36.665 -76 -16
    endloop
  endfacet
  facet normal 1 0 0
    outer loop
      vertex 36.665 -76 -19
      vertex 36.665 -91 -16
      vertex 36.665 -91 -19
    endloop
  endfacet
  facet normal 0 -1 0
    outer loop
      vertex 36.665 -76 -19
      vertex 40 -76 -16
      vertex 36.665 -76 -16
    endloop
  endfacet
  facet normal 0 -1 -0
    outer loop
      vertex 40 -76 -16
      vertex 36.665 -76 -19
      vertex 40 -76 -19
    endloop
  endfacet
  facet normal 0 1 0
    outer loop
      vertex 38 -91 -17.5
      vertex 36.665 -91 -16
      vertex 37.8423 -91 -16
    endloop
  endfacet
  facet normal 0 1 0
    outer loop
      vertex 36.665 -91 -19
      vertex 38 -91 -17.5
      vertex 37.8423 -91 -19
    endloop
  endfacet
  facet normal 0 1 0
    outer loop
      vertex 38 -91 -17.5
      vertex 36.665 -91 -19
      vertex 36.665 -91 -16
    endloop
  endfacet
  facet normal 0 0 -1
    outer loop
      vertex 87 55 0
      vertex 90 60 0
      vertex 90 55 0
    endloop
  endfacet
  facet normal -0 0 -1
    outer loop
      vertex 90 60 0
      vertex 87 55 0
      vertex 87 60 0
    endloop
  endfacet
  facet normal 0 -1 0
    outer loop
      vertex 87 60 -12
      vertex 90 60 0
      vertex 87 60 0
    endloop
  endfacet
  facet normal 0 -1 -0
    outer loop
      vertex 90 60 0
      vertex 87 60 -12
      vertex 90 60 -12
    endloop
  endfacet
  facet normal -0 0 1
    outer loop
      vertex 87 60 -12
      vertex 90 55 -12
      vertex 90 60 -12
    endloop
  endfacet
  facet normal 0 0 1
    outer loop
      vertex 90 55 -12
      vertex 87 60 -12
      vertex 87 55 -12
    endloop
  endfacet
  facet normal 0 1 -0
    outer loop
      vertex 90 55 -12
      vertex 87 55 0
      vertex 90 55 0
    endloop
  endfacet
  facet normal 0 1 0
    outer loop
      vertex 87 55 0
      vertex 90 55 -12
      vertex 87 55 -12
    endloop
  endfacet
  facet normal 0 0 -1
    outer loop
      vertex 87 -60 0
      vertex 90 -55 0
      vertex 90 -60 0
    endloop
  endfacet
  facet normal -0 0 -1
    outer loop
      vertex 90 -55 0
      vertex 87 -60 0
      vertex 87 -55 0
    endloop
  endfacet
  facet normal -0 0 1
    outer loop
      vertex 87 -55 -12
      vertex 90 -60 -12
      vertex 90 -55 -12
    endloop
  endfacet
  facet normal 0 0 1
    outer loop
      vertex 90 -60 -12
      vertex 87 -55 -12
      vertex 87 -60 -12
    endloop
  endfacet
  facet normal 0 1 -0
    outer loop
      vertex 90 -60 -12
      vertex 87 -60 0
      vertex 90 -60 0
    endloop
  endfacet
  facet normal 0 1 0
    outer loop
      vertex 87 -60 0
      vertex 90 -60 -12
      vertex 87 -60 -12
    endloop
  endfacet
  facet normal 0 -1 0
    outer loop
      vertex 87 -55 -12
      vertex 90 -55 0
      vertex 87 -55 0
    endloop
  endfacet
  facet normal 0 -1 -0
    outer loop
      vertex 90 -55 0
      vertex 87 -55 -12
      vertex 90 -55 -12
    endloop
  endfacet
  facet normal -0 0 1
    outer loop
      vertex 87 60 8
      vertex 90 55 8
      vertex 90 60 8
    endloop
  endfacet
  facet normal 0 0 1
    outer loop
      vertex 90 55 8
      vertex 87 60 8
      vertex 87 55 8
    endloop
  endfacet
  facet normal 0 1 -0
    outer loop
      vertex 90 55 8
      vertex 87 55 19
      vertex 90 55 19
    endloop
  endfacet
  facet normal 0 1 0
    outer loop
      vertex 87 55 19
      vertex 90 55 8
      vertex 87 55 8
    endloop
  endfacet
  facet normal 0 -1 0
    outer loop
      vertex 87 60 8
      vertex 90 60 19
      vertex 87 60 19
    endloop
  endfacet
  facet normal 0 -1 -0
    outer loop
      vertex 90 60 19
      vertex 87 60 8
      vertex 90 60 8
    endloop
  endfacet
  facet normal -0 0 1
    outer loop
      vertex 87 -55 8
      vertex 90 -60 8
      vertex 90 -55 8
    endloop
  endfacet
  facet normal 0 0 1
    outer loop
      vertex 90 -60 8
      vertex 87 -55 8
      vertex 87 -60 8
    endloop
  endfacet
  facet normal 0 1 -0
    outer loop
      vertex 90 -60 8
      vertex 87 -60 19
      vertex 90 -60 19
    endloop
  endfacet
  facet normal 0 1 0
    outer loop
      vertex 87 -60 19
      vertex 90 -60 8
      vertex 87 -60 8
    endloop
  endfacet
  facet normal 0 -1 0
    outer loop
      vertex 87 -55 8
      vertex 90 -55 19
      vertex 87 -55 19
    endloop
  endfacet
  facet normal 0 -1 -0
    outer loop
      vertex 90 -55 19
      vertex 87 -55 8
      vertex 90 -55 8
    endloop
  endfacet
  facet normal -0.978148 -0.207912 0
    outer loop
      vertex 62.5 50 -19
      vertex 62.111 51.8303 -16
      vertex 62.111 51.8303 -19
    endloop
  endfacet
  facet normal -0.978148 -0.207912 0
    outer loop
      vertex 62.111 51.8303 -16
      vertex 62.5 50 -19
      vertex 62.5 50 -16
    endloop
  endfacet
  facet normal 1 -0 0
    outer loop
      vertex 53.5983 49.0644 -16
      vertex 53.5983 50.9356 -19
      vertex 53.5983 50.9356 -16
    endloop
  endfacet
  facet normal 1 0 0
    outer loop
      vertex 53.5983 50.9356 -19
      vertex 53.5983 49.0644 -16
      vertex 53.5983 49.0644 -19
    endloop
  endfacet
  facet normal -0.104529 -0.994522 0
    outer loop
      vertex 57.5296 54.4753 -19
      vertex 59.3906 54.2798 -16
      vertex 57.5296 54.4753 -16
    endloop
  endfacet
  facet normal -0.104529 -0.994522 -0
    outer loop
      vertex 59.3906 54.2798 -16
      vertex 57.5296 54.4753 -19
      vertex 59.3906 54.2798 -19
    endloop
  endfacet
  facet normal -0.809016 -0.587786 0
    outer loop
      vertex 62.111 51.8303 -19
      vertex 61.0111 53.3442 -16
      vertex 61.0111 53.3442 -19
    endloop
  endfacet
  facet normal -0.809016 -0.587786 0
    outer loop
      vertex 61.0111 53.3442 -16
      vertex 62.111 51.8303 -19
      vertex 62.111 51.8303 -16
    endloop
  endfacet
  facet normal -0.500001 -0.866025 0
    outer loop
      vertex 59.3906 54.2798 -19
      vertex 61.0111 53.3442 -16
      vertex 59.3906 54.2798 -16
    endloop
  endfacet
  facet normal -0.500001 -0.866025 -0
    outer loop
      vertex 61.0111 53.3442 -16
      vertex 59.3906 54.2798 -19
      vertex 61.0111 53.3442 -19
    endloop
  endfacet
  facet normal 0.309018 -0.951056 0
    outer loop
      vertex 55.75 53.8971 -19
      vertex 57.5296 54.4753 -16
      vertex 55.75 53.8971 -16
    endloop
  endfacet
  facet normal 0.309018 -0.951056 0
    outer loop
      vertex 57.5296 54.4753 -16
      vertex 55.75 53.8971 -19
      vertex 57.5296 54.4753 -19
    endloop
  endfacet
  facet normal 0.669129 -0.743146 0
    outer loop
      vertex 54.3594 52.645 -19
      vertex 55.75 53.8971 -16
      vertex 54.3594 52.645 -16
    endloop
  endfacet
  facet normal 0.669129 -0.743146 0
    outer loop
      vertex 55.75 53.8971 -16
      vertex 54.3594 52.645 -19
      vertex 55.75 53.8971 -19
    endloop
  endfacet
  facet normal 0.913546 0.406736 0
    outer loop
      vertex 54.3594 47.355 -16
      vertex 53.5983 49.0644 -19
      vertex 53.5983 49.0644 -16
    endloop
  endfacet
  facet normal 0.913546 0.406736 0
    outer loop
      vertex 53.5983 49.0644 -19
      vertex 54.3594 47.355 -16
      vertex 54.3594 47.355 -19
    endloop
  endfacet
  facet normal -0.104529 0.994522 0
    outer loop
      vertex 59.3906 45.7202 -19
      vertex 57.5296 45.5247 -16
      vertex 59.3906 45.7202 -16
    endloop
  endfacet
  facet normal -0.104529 0.994522 0
    outer loop
      vertex 57.5296 45.5247 -16
      vertex 59.3906 45.7202 -19
      vertex 57.5296 45.5247 -19
    endloop
  endfacet
  facet normal 0.669129 0.743146 -0
    outer loop
      vertex 55.75 46.1029 -19
      vertex 54.3594 47.355 -16
      vertex 55.75 46.1029 -16
    endloop
  endfacet
  facet normal 0.669129 0.743146 0
    outer loop
      vertex 54.3594 47.355 -16
      vertex 55.75 46.1029 -19
      vertex 54.3594 47.355 -19
    endloop
  endfacet
  facet normal 0.913546 -0.406735 0
    outer loop
      vertex 53.5983 50.9356 -16
      vertex 54.3594 52.645 -19
      vertex 54.3594 52.645 -16
    endloop
  endfacet
  facet normal 0.913546 -0.406735 0
    outer loop
      vertex 54.3594 52.645 -19
      vertex 53.5983 50.9356 -16
      vertex 53.5983 50.9356 -19
    endloop
  endfacet
  facet normal 0.309018 0.951056 -0
    outer loop
      vertex 57.5296 45.5247 -19
      vertex 55.75 46.1029 -16
      vertex 57.5296 45.5247 -16
    endloop
  endfacet
  facet normal 0.309018 0.951056 0
    outer loop
      vertex 55.75 46.1029 -16
      vertex 57.5296 45.5247 -19
      vertex 55.75 46.1029 -19
    endloop
  endfacet
  facet normal -0.499999 0.866026 0
    outer loop
      vertex 61.0111 46.6558 -19
      vertex 59.3906 45.7202 -16
      vertex 61.0111 46.6558 -16
    endloop
  endfacet
  facet normal -0.499999 0.866026 0
    outer loop
      vertex 59.3906 45.7202 -16
      vertex 61.0111 46.6558 -19
      vertex 59.3906 45.7202 -19
    endloop
  endfacet
  facet normal -0.809017 0.587785 0
    outer loop
      vertex 61.0111 46.6558 -19
      vertex 62.111 48.1697 -16
      vertex 62.111 48.1697 -19
    endloop
  endfacet
  facet normal -0.809017 0.587785 0
    outer loop
      vertex 62.111 48.1697 -16
      vertex 61.0111 46.6558 -19
      vertex 61.0111 46.6558 -16
    endloop
  endfacet
  facet normal -0.978148 0.207912 0
    outer loop
      vertex 62.111 48.1697 -19
      vertex 62.5 50 -16
      vertex 62.5 50 -19
    endloop
  endfacet
  facet normal -0.978148 0.207912 0
    outer loop
      vertex 62.5 50 -16
      vertex 62.111 48.1697 -19
      vertex 62.111 48.1697 -16
    endloop
  endfacet
  facet normal -0.978148 -0.207912 0
    outer loop
      vertex 62.5 -50 -19
      vertex 62.111 -48.1697 -16
      vertex 62.111 -48.1697 -19
    endloop
  endfacet
  facet normal -0.978148 -0.207912 0
    outer loop
      vertex 62.111 -48.1697 -16
      vertex 62.5 -50 -19
      vertex 62.5 -50 -16
    endloop
  endfacet
  facet normal 1 -0 0
    outer loop
      vertex 53.5983 -50.9356 -16
      vertex 53.5983 -49.0644 -19
      vertex 53.5983 -49.0644 -16
    endloop
  endfacet
  facet normal 1 0 0
    outer loop
      vertex 53.5983 -49.0644 -19
      vertex 53.5983 -50.9356 -16
      vertex 53.5983 -50.9356 -19
    endloop
  endfacet
  facet normal -0.104529 0.994522 0
    outer loop
      vertex 59.3906 -54.2798 -19
      vertex 57.5296 -54.4753 -16
      vertex 59.3906 -54.2798 -16
    endloop
  endfacet
  facet normal -0.104529 0.994522 0
    outer loop
      vertex 57.5296 -54.4753 -16
      vertex 59.3906 -54.2798 -19
      vertex 57.5296 -54.4753 -19
    endloop
  endfacet
  facet normal -0.104529 -0.994522 0
    outer loop
      vertex 57.5296 -45.5247 -19
      vertex 59.3906 -45.7202 -16
      vertex 57.5296 -45.5247 -16
    endloop
  endfacet
  facet normal -0.104529 -0.994522 -0
    outer loop
      vertex 59.3906 -45.7202 -16
      vertex 57.5296 -45.5247 -19
      vertex 59.3906 -45.7202 -19
    endloop
  endfacet
  facet normal -0.809017 -0.587785 0
    outer loop
      vertex 62.111 -48.1697 -19
      vertex 61.0111 -46.6558 -16
      vertex 61.0111 -46.6558 -19
    endloop
  endfacet
  facet normal -0.809017 -0.587785 0
    outer loop
      vertex 61.0111 -46.6558 -16
      vertex 62.111 -48.1697 -19
      vertex 62.111 -48.1697 -16
    endloop
  endfacet
  facet normal -0.499999 -0.866026 0
    outer loop
      vertex 59.3906 -45.7202 -19
      vertex 61.0111 -46.6558 -16
      vertex 59.3906 -45.7202 -16
    endloop
  endfacet
  facet normal -0.499999 -0.866026 -0
    outer loop
      vertex 61.0111 -46.6558 -16
      vertex 59.3906 -45.7202 -19
      vertex 61.0111 -46.6558 -19
    endloop
  endfacet
  facet normal 0.669129 -0.743146 0
    outer loop
      vertex 54.3594 -47.355 -19
      vertex 55.75 -46.1029 -16
      vertex 54.3594 -47.355 -16
    endloop
  endfacet
  facet normal 0.669129 -0.743146 0
    outer loop
      vertex 55.75 -46.1029 -16
      vertex 54.3594 -47.355 -19
      vertex 55.75 -46.1029 -19
    endloop
  endfacet
  facet normal 0.913546 -0.406736 0
    outer loop
      vertex 53.5983 -49.0644 -16
      vertex 54.3594 -47.355 -19
      vertex 54.3594 -47.355 -16
    endloop
  endfacet
  facet normal 0.913546 -0.406736 0
    outer loop
      vertex 54.3594 -47.355 -19
      vertex 53.5983 -49.0644 -16
      vertex 53.5983 -49.0644 -19
    endloop
  endfacet
  facet normal 0.309018 -0.951056 0
    outer loop
      vertex 55.75 -46.1029 -19
      vertex 57.5296 -45.5247 -16
      vertex 55.75 -46.1029 -16
    endloop
  endfacet
  facet normal 0.309018 -0.951056 0
    outer loop
      vertex 57.5296 -45.5247 -16
      vertex 55.75 -46.1029 -19
      vertex 57.5296 -45.5247 -19
    endloop
  endfacet
  facet normal -0.978148 0.207912 0
    outer loop
      vertex 62.111 -51.8303 -19
      vertex 62.5 -50 -16
      vertex 62.5 -50 -19
    endloop
  endfacet
  facet normal -0.978148 0.207912 0
    outer loop
      vertex 62.5 -50 -16
      vertex 62.111 -51.8303 -19
      vertex 62.111 -51.8303 -16
    endloop
  endfacet
  facet normal 0.913546 0.406735 0
    outer loop
      vertex 54.3594 -52.645 -16
      vertex 53.5983 -50.9356 -19
      vertex 53.5983 -50.9356 -16
    endloop
  endfacet
  facet normal 0.913546 0.406735 0
    outer loop
      vertex 53.5983 -50.9356 -19
      vertex 54.3594 -52.645 -16
      vertex 54.3594 -52.645 -19
    endloop
  endfacet
  facet normal -0.500001 0.866025 0
    outer loop
      vertex 61.0111 -53.3442 -19
      vertex 59.3906 -54.2798 -16
      vertex 61.0111 -53.3442 -16
    endloop
  endfacet
  facet normal -0.500001 0.866025 0
    outer loop
      vertex 59.3906 -54.2798 -16
      vertex 61.0111 -53.3442 -19
      vertex 59.3906 -54.2798 -19
    endloop
  endfacet
  facet normal 0.309018 0.951056 -0
    outer loop
      vertex 57.5296 -54.4753 -19
      vertex 55.75 -53.8971 -16
      vertex 57.5296 -54.4753 -16
    endloop
  endfacet
  facet normal 0.309018 0.951056 0
    outer loop
      vertex 55.75 -53.8971 -16
      vertex 57.5296 -54.4753 -19
      vertex 55.75 -53.8971 -19
    endloop
  endfacet
  facet normal 0.669129 0.743146 -0
    outer loop
      vertex 55.75 -53.8971 -19
      vertex 54.3594 -52.645 -16
      vertex 55.75 -53.8971 -16
    endloop
  endfacet
  facet normal 0.669129 0.743146 0
    outer loop
      vertex 54.3594 -52.645 -16
      vertex 55.75 -53.8971 -19
      vertex 54.3594 -52.645 -19
    endloop
  endfacet
  facet normal -0.809016 0.587786 0
    outer loop
      vertex 61.0111 -53.3442 -19
      vertex 62.111 -51.8303 -16
      vertex 62.111 -51.8303 -19
    endloop
  endfacet
  facet normal -0.809016 0.587786 0
    outer loop
      vertex 62.111 -51.8303 -16
      vertex 61.0111 -53.3442 -19
      vertex 61.0111 -53.3442 -16
    endloop
  endfacet
  facet normal -0.866025 -0.5 0
    outer loop
      vertex 65 0 -19
      vertex 40 43.3013 -16
      vertex 40 43.3013 -19
    endloop
  endfacet
  facet normal -0.866025 -0.5 0
    outer loop
      vertex 40 43.3013 -16
      vertex 65 0 -19
      vertex 65 0 -16
    endloop
  endfacet
  facet normal 0.866025 -0.5 0
    outer loop
      vertex -35 0 -16
      vertex -10 43.3013 -19
      vertex -10 43.3013 -16
    endloop
  endfacet
  facet normal 0.866025 -0.5 0
    outer loop
      vertex -10 43.3013 -19
      vertex -35 0 -16
      vertex -35 0 -19
    endloop
  endfacet
  facet normal 0 -1 0
    outer loop
      vertex -10 43.3013 -19
      vertex 40 43.3013 -16
      vertex -10 43.3013 -16
    endloop
  endfacet
  facet normal 0 -1 -0
    outer loop
      vertex 40 43.3013 -16
      vertex -10 43.3013 -19
      vertex 40 43.3013 -19
    endloop
  endfacet
  facet normal 0 1 -0
    outer loop
      vertex 40 -43.3013 -19
      vertex -10 -43.3013 -16
      vertex 40 -43.3013 -16
    endloop
  endfacet
  facet normal 0 1 0
    outer loop
      vertex -10 -43.3013 -16
      vertex 40 -43.3013 -19
      vertex -10 -43.3013 -19
    endloop
  endfacet
  facet normal 0.866025 0.5 0
    outer loop
      vertex -10 -43.3013 -16
      vertex -35 0 -19
      vertex -35 0 -16
    endloop
  endfacet
  facet normal 0.866025 0.5 0
    outer loop
      vertex -35 0 -19
      vertex -10 -43.3013 -16
      vertex -10 -43.3013 -19
    endloop
  endfacet
  facet normal -0.866025 0.5 0
    outer loop
      vertex 40 -43.3013 -19
      vertex 65 0 -16
      vertex 65 0 -19
    endloop
  endfacet
  facet normal -0.866025 0.5 0
    outer loop
      vertex 65 0 -16
      vertex 40 -43.3013 -19
      vertex 40 -43.3013 -16
    endloop
  endfacet
  facet normal -0.866025 -0.5 0
    outer loop
      vertex -30 -30 -19
      vertex -42.5 -8.34936 -16
      vertex -42.5 -8.34936 -19
    endloop
  endfacet
  facet normal -0.866025 -0.5 0
    outer loop
      vertex -42.5 -8.34936 -16
      vertex -30 -30 -19
      vertex -30 -30 -16
    endloop
  endfacet
  facet normal 0.866025 -0.5 0
    outer loop
      vertex -80 -30 -16
      vertex -67.5 -8.34936 -19
      vertex -67.5 -8.34936 -16
    endloop
  endfacet
  facet normal 0.866025 -0.5 0
    outer loop
      vertex -67.5 -8.34936 -19
      vertex -80 -30 -16
      vertex -80 -30 -19
    endloop
  endfacet
  facet normal 0 -1 0
    outer loop
      vertex -67.5 -8.34936 -19
      vertex -42.5 -8.34936 -16
      vertex -67.5 -8.34936 -16
    endloop
  endfacet
  facet normal 0 -1 -0
    outer loop
      vertex -42.5 -8.34936 -16
      vertex -67.5 -8.34936 -19
      vertex -42.5 -8.34936 -19
    endloop
  endfacet
  facet normal 0.866025 0.5 0
    outer loop
      vertex -67.5 -51.6506 -16
      vertex -80 -30 -19
      vertex -80 -30 -16
    endloop
  endfacet
  facet normal 0.866025 0.5 0
    outer loop
      vertex -80 -30 -19
      vertex -67.5 -51.6506 -16
      vertex -67.5 -51.6506 -19
    endloop
  endfacet
  facet normal 0 1 -0
    outer loop
      vertex -42.5 -51.6506 -19
      vertex -67.5 -51.6506 -16
      vertex -42.5 -51.6506 -16
    endloop
  endfacet
  facet normal 0 1 0
    outer loop
      vertex -67.5 -51.6506 -16
      vertex -42.5 -51.6506 -19
      vertex -67.5 -51.6506 -19
    endloop
  endfacet
  facet normal -0.866025 0.5 0
    outer loop
      vertex -42.5 -51.6506 -19
      vertex -30 -30 -16
      vertex -30 -30 -19
    endloop
  endfacet
  facet normal -0.866025 0.5 0
    outer loop
      vertex -30 -30 -16
      vertex -42.5 -51.6506 -19
      vertex -42.5 -51.6506 -16
    endloop
  endfacet
  facet normal -0.866025 -0.5 0
    outer loop
      vertex -30 30 -19
      vertex -42.5 51.6506 -16
      vertex -42.5 51.6506 -19
    endloop
  endfacet
  facet normal -0.866025 -0.5 0
    outer loop
      vertex -42.5 51.6506 -16
      vertex -30 30 -19
      vertex -30 30 -16
    endloop
  endfacet
  facet normal 0 1 -0
    outer loop
      vertex -42.5 8.34936 -19
      vertex -67.5 8.34936 -16
      vertex -42.5 8.34936 -16
    endloop
  endfacet
  facet normal 0 1 0
    outer loop
      vertex -67.5 8.34936 -16
      vertex -42.5 8.34936 -19
      vertex -67.5 8.34936 -19
    endloop
  endfacet
  facet normal 0.866025 -0.5 0
    outer loop
      vertex -80 30 -16
      vertex -67.5 51.6506 -19
      vertex -67.5 51.6506 -16
    endloop
  endfacet
  facet normal 0.866025 -0.5 0
    outer loop
      vertex -67.5 51.6506 -19
      vertex -80 30 -16
      vertex -80 30 -19
    endloop
  endfacet
  facet normal 0 -1 0
    outer loop
      vertex -67.5 51.6506 -19
      vertex -42.5 51.6506 -16
      vertex -67.5 51.6506 -16
    endloop
  endfacet
  facet normal 0 -1 -0
    outer loop
      vertex -42.5 51.6506 -16
      vertex -67.5 51.6506 -19
      vertex -42.5 51.6506 -19
    endloop
  endfacet
  facet normal 0.866025 0.5 0
    outer loop
      vertex -67.5 8.34936 -16
      vertex -80 30 -19
      vertex -80 30 -16
    endloop
  endfacet
  facet normal 0.866025 0.5 0
    outer loop
      vertex -80 30 -19
      vertex -67.5 8.34936 -16
      vertex -67.5 8.34936 -19
    endloop
  endfacet
  facet normal -0.866025 0.5 0
    outer loop
      vertex -42.5 8.34936 -19
      vertex -30 30 -16
      vertex -30 30 -19
    endloop
  endfacet
  facet normal -0.866025 0.5 0
    outer loop
      vertex -30 30 -16
      vertex -42.5 8.34936 -19
      vertex -42.5 8.34936 -16
    endloop
  endfacet
endsolid OpenSCAD_Model
