solid OpenSCAD_Model
  facet normal 0 -1 0
    outer loop
      vertex -22 -11.1213 3
      vertex -20.5 -11.1213 0
      vertex -20.5 -11.1213 3
    endloop
  endfacet
  facet normal 0 -1 0
    outer loop
      vertex -22 -11.1213 -3
      vertex -20.5 -11.1213 0
      vertex -22 -11.1213 3
    endloop
  endfacet
  facet normal 0 -1 0
    outer loop
      vertex -12.5 -11.1213 -3
      vertex -20.5 -11.1213 0
      vertex -22 -11.1213 -3
    endloop
  endfacet
  facet normal 0 -1 0
    outer loop
      vertex -20.5 -11.1213 0
      vertex -12.5 -11.1213 -3
      vertex -12.5 -11.1213 0
    endloop
  endfacet
  facet normal 0 -1 0
    outer loop
      vertex 12.5 -11.1213 0
      vertex 12.5 -11.1213 -3
      vertex 20.5 -11.1213 0
    endloop
  endfacet
  facet normal 0 -1 0
    outer loop
      vertex 20.5 -11.1213 0
      vertex 22 -11.1213 3
      vertex 20.5 -11.1213 3
    endloop
  endfacet
  facet normal 0 -1 0
    outer loop
      vertex 20.5 -11.1213 0
      vertex 22 -11.1213 -3
      vertex 22 -11.1213 3
    endloop
  endfacet
  facet normal 0 -1 0
    outer loop
      vertex 22 -11.1213 -3
      vertex 20.5 -11.1213 0
      vertex 12.5 -11.1213 -3
    endloop
  endfacet
  facet normal 0 1 -0
    outer loop
      vertex 22 11.1213 -3
      vertex -22 11.1213 3
      vertex 22 11.1213 3
    endloop
  endfacet
  facet normal 0 1 0
    outer loop
      vertex -22 11.1213 3
      vertex 22 11.1213 -3
      vertex -22 11.1213 -3
    endloop
  endfacet
  facet normal -0.707107 -0.707107 0
    outer loop
      vertex -22 -11.1213 -3
      vertex -24.1213 -9 3
      vertex -24.1213 -9 -3
    endloop
  endfacet
  facet normal -0.707107 -0.707107 0
    outer loop
      vertex -24.1213 -9 3
      vertex -22 -11.1213 -3
      vertex -22 -11.1213 3
    endloop
  endfacet
  facet normal 0.707107 0.707107 0
    outer loop
      vertex 24.1213 9 3
      vertex 22 11.1213 -3
      vertex 22 11.1213 3
    endloop
  endfacet
  facet normal 0.707107 0.707107 0
    outer loop
      vertex 22 11.1213 -3
      vertex 24.1213 9 3
      vertex 24.1213 9 -3
    endloop
  endfacet
  facet normal 0 0 -1
    outer loop
      vertex -12.5 -11.1213 -3
      vertex -20 -9.12132 -3
      vertex -12.5 -9.12132 -3
    endloop
  endfacet
  facet normal 0 0 -1
    outer loop
      vertex -22 -11.1213 -3
      vertex -20 -9.12132 -3
      vertex -12.5 -11.1213 -3
    endloop
  endfacet
  facet normal 0 0 -1
    outer loop
      vertex -22 -11.1213 -3
      vertex -22.1213 -7 -3
      vertex -20 -9.12132 -3
    endloop
  endfacet
  facet normal -0 0 -1
    outer loop
      vertex -22.1213 -7 -3
      vertex -24.1213 -9 -3
      vertex -22.1213 7 -3
    endloop
  endfacet
  facet normal 0 0 -1
    outer loop
      vertex -24.1213 -9 -3
      vertex -22.1213 -7 -3
      vertex -22 -11.1213 -3
    endloop
  endfacet
  facet normal 0 0 -1
    outer loop
      vertex 24.1213 -9 -3
      vertex 22.1213 -7 -3
      vertex 24.1213 9 -3
    endloop
  endfacet
  facet normal 0 0 -1
    outer loop
      vertex 22 -11.1213 -3
      vertex 22.1213 -7 -3
      vertex 24.1213 -9 -3
    endloop
  endfacet
  facet normal 0 0 -1
    outer loop
      vertex 22 -11.1213 -3
      vertex 20 -9.12132 -3
      vertex 22.1213 -7 -3
    endloop
  endfacet
  facet normal 0 0 -1
    outer loop
      vertex 12.5 -11.1213 -3
      vertex 20 -9.12132 -3
      vertex 22 -11.1213 -3
    endloop
  endfacet
  facet normal -0 0 -1
    outer loop
      vertex 20 -9.12132 -3
      vertex 12.5 -11.1213 -3
      vertex 12.5 -9.12132 -3
    endloop
  endfacet
  facet normal 0 0 -1
    outer loop
      vertex 22.1213 7 -3
      vertex 24.1213 9 -3
      vertex 22.1213 -7 -3
    endloop
  endfacet
  facet normal 0 0 -1
    outer loop
      vertex 22.1213 7 -3
      vertex 22 11.1213 -3
      vertex 24.1213 9 -3
    endloop
  endfacet
  facet normal 0 0 -1
    outer loop
      vertex 20 9.12132 -3
      vertex 22 11.1213 -3
      vertex 22.1213 7 -3
    endloop
  endfacet
  facet normal 0 0 -1
    outer loop
      vertex -20 9.12132 -3
      vertex 22 11.1213 -3
      vertex 20 9.12132 -3
    endloop
  endfacet
  facet normal 0 0 -1
    outer loop
      vertex -20 9.12132 -3
      vertex -22 11.1213 -3
      vertex 22 11.1213 -3
    endloop
  endfacet
  facet normal 0 0 -1
    outer loop
      vertex -22.1213 7 -3
      vertex -22 11.1213 -3
      vertex -20 9.12132 -3
    endloop
  endfacet
  facet normal 0 0 -1
    outer loop
      vertex -24.1213 9 -3
      vertex -22.1213 7 -3
      vertex -24.1213 -9 -3
    endloop
  endfacet
  facet normal 0 0 -1
    outer loop
      vertex -22.1213 7 -3
      vertex -24.1213 9 -3
      vertex -22 11.1213 -3
    endloop
  endfacet
  facet normal 0 0 1
    outer loop
      vertex -22.1213 -4 3
      vertex -24.1213 -4 3
      vertex -22.1213 -7 3
    endloop
  endfacet
  facet normal -0 0 1
    outer loop
      vertex -20 -9.12132 3
      vertex -12.5 -9.2 3
      vertex -12.5 -9.12132 3
    endloop
  endfacet
  facet normal 0 0 1
    outer loop
      vertex -20 -9.12132 3
      vertex -20.5 -9.2 3
      vertex -12.5 -9.2 3
    endloop
  endfacet
  facet normal 0 0 1
    outer loop
      vertex -20.5 -9.2 3
      vertex -22 -11.1213 3
      vertex -20.5 -11.1213 3
    endloop
  endfacet
  facet normal 0 0 1
    outer loop
      vertex -22.1213 -7 3
      vertex -20.5 -9.2 3
      vertex -20 -9.12132 3
    endloop
  endfacet
  facet normal -0 0 1
    outer loop
      vertex -24.1213 -9 3
      vertex -20.5 -9.2 3
      vertex -22.1213 -7 3
    endloop
  endfacet
  facet normal 0 0 1
    outer loop
      vertex -24.1213 -9 3
      vertex -22.1213 -7 3
      vertex -24.1213 -4 3
    endloop
  endfacet
  facet normal 0 0 1
    outer loop
      vertex -20.5 -9.2 3
      vertex -24.1213 -9 3
      vertex -22 -11.1213 3
    endloop
  endfacet
  facet normal 0 0 1
    outer loop
      vertex 24.1213 9 3
      vertex 22.1213 7 3
      vertex 24.1213 -9 3
    endloop
  endfacet
  facet normal 0 0 1
    outer loop
      vertex 22 11.1213 3
      vertex 22.1213 7 3
      vertex 24.1213 9 3
    endloop
  endfacet
  facet normal 0 0 1
    outer loop
      vertex 22 11.1213 3
      vertex 20 9.12132 3
      vertex 22.1213 7 3
    endloop
  endfacet
  facet normal 0 0 1
    outer loop
      vertex 22 11.1213 3
      vertex -20 9.12132 3
      vertex 20 9.12132 3
    endloop
  endfacet
  facet normal -0 0 1
    outer loop
      vertex -22 11.1213 3
      vertex -20 9.12132 3
      vertex 22 11.1213 3
    endloop
  endfacet
  facet normal 0 0 1
    outer loop
      vertex -22 11.1213 3
      vertex -22.1213 7 3
      vertex -20 9.12132 3
    endloop
  endfacet
  facet normal -0 0 1
    outer loop
      vertex -24.1213 9 3
      vertex -22.1213 7 3
      vertex -22 11.1213 3
    endloop
  endfacet
  facet normal 0 0 1
    outer loop
      vertex -24.1213 4 3
      vertex -22.1213 7 3
      vertex -24.1213 9 3
    endloop
  endfacet
  facet normal 0 0 1
    outer loop
      vertex -22.1213 7 3
      vertex -24.1213 4 3
      vertex -22.1213 4 3
    endloop
  endfacet
  facet normal -0 0 1
    outer loop
      vertex 22.1213 -7 3
      vertex 24.1213 -9 3
      vertex 22.1213 7 3
    endloop
  endfacet
  facet normal 0 0 1
    outer loop
      vertex 20.5 -9.2 3
      vertex 24.1213 -9 3
      vertex 22.1213 -7 3
    endloop
  endfacet
  facet normal 0 0 1
    outer loop
      vertex 24.1213 -9 3
      vertex 20.5 -9.2 3
      vertex 22 -11.1213 3
    endloop
  endfacet
  facet normal -0 0 1
    outer loop
      vertex 20 -9.12132 3
      vertex 20.5 -9.2 3
      vertex 22.1213 -7 3
    endloop
  endfacet
  facet normal 0 0 1
    outer loop
      vertex 12.5 -9.2 3
      vertex 20 -9.12132 3
      vertex 12.5 -9.12132 3
    endloop
  endfacet
  facet normal 0 0 1
    outer loop
      vertex 20 -9.12132 3
      vertex 12.5 -9.2 3
      vertex 20.5 -9.2 3
    endloop
  endfacet
  facet normal 0 0 1
    outer loop
      vertex 22 -11.1213 3
      vertex 20.5 -9.2 3
      vertex 20.5 -11.1213 3
    endloop
  endfacet
  facet normal 0.707107 -0.707107 0
    outer loop
      vertex 22 -11.1213 3
      vertex 24.1213 -9 -3
      vertex 24.1213 -9 3
    endloop
  endfacet
  facet normal 0.707107 -0.707107 0
    outer loop
      vertex 24.1213 -9 -3
      vertex 22 -11.1213 3
      vertex 22 -11.1213 -3
    endloop
  endfacet
  facet normal -1 0 0
    outer loop
      vertex -24.1213 9 -3
      vertex -24.1213 4 1
      vertex -24.1213 9 3
    endloop
  endfacet
  facet normal -1 0 0
    outer loop
      vertex -24.1213 9 -3
      vertex -24.1213 -4 1
      vertex -24.1213 4 1
    endloop
  endfacet
  facet normal -1 0 0
    outer loop
      vertex -24.1213 -9 -3
      vertex -24.1213 -4 1
      vertex -24.1213 9 -3
    endloop
  endfacet
  facet normal -1 0 0
    outer loop
      vertex -24.1213 -9 3
      vertex -24.1213 -4 1
      vertex -24.1213 -9 -3
    endloop
  endfacet
  facet normal -1 0 0
    outer loop
      vertex -24.1213 -4 1
      vertex -24.1213 -9 3
      vertex -24.1213 -4 3
    endloop
  endfacet
  facet normal -1 -0 0
    outer loop
      vertex -24.1213 9 3
      vertex -24.1213 4 1
      vertex -24.1213 4 3
    endloop
  endfacet
  facet normal -0.707107 0.707107 0
    outer loop
      vertex -24.1213 9 -3
      vertex -22 11.1213 3
      vertex -22 11.1213 -3
    endloop
  endfacet
  facet normal -0.707107 0.707107 0
    outer loop
      vertex -22 11.1213 3
      vertex -24.1213 9 -3
      vertex -24.1213 9 3
    endloop
  endfacet
  facet normal 1 -0 0
    outer loop
      vertex 24.1213 -9 3
      vertex 24.1213 9 -3
      vertex 24.1213 9 3
    endloop
  endfacet
  facet normal 1 0 0
    outer loop
      vertex 24.1213 9 -3
      vertex 24.1213 -9 3
      vertex 24.1213 -9 -3
    endloop
  endfacet
  facet normal -1 0 0
    outer loop
      vertex 12.5 -11.1213 0
      vertex 12.5 -9.12132 3
      vertex 12.5 -9.12132 -3
    endloop
  endfacet
  facet normal -1 0 0
    outer loop
      vertex 12.5 -11.1213 0
      vertex 12.5 -9.12132 -3
      vertex 12.5 -11.1213 -3
    endloop
  endfacet
  facet normal -1 -0 0
    outer loop
      vertex 12.5 -9.12132 3
      vertex 12.5 -11.1213 0
      vertex 12.5 -9.2 3
    endloop
  endfacet
  facet normal -1 0 0
    outer loop
      vertex 12.5 -11.2 3
      vertex 12.5 -11.1213 0
      vertex 12.5 -11.2 0
    endloop
  endfacet
  facet normal -1 0 0
    outer loop
      vertex 12.5 -11.1213 0
      vertex 12.5 -11.2 3
      vertex 12.5 -9.2 3
    endloop
  endfacet
  facet normal -1 0 0
    outer loop
      vertex 12.5 -11.2 3
      vertex 12.5 -9.2 12
      vertex 12.5 -9.2 3
    endloop
  endfacet
  facet normal -1 -0 0
    outer loop
      vertex 12.5 -9.2 12
      vertex 12.5 -11.2 3
      vertex 12.5 -11.2 12
    endloop
  endfacet
  facet normal -0 0 1
    outer loop
      vertex 12.5 -9.2 12
      vertex 20.5 -11.2 12
      vertex 20.5 -9.2 12
    endloop
  endfacet
  facet normal 0 0 1
    outer loop
      vertex 20.5 -11.2 12
      vertex 12.5 -9.2 12
      vertex 12.5 -11.2 12
    endloop
  endfacet
  facet normal 1 0 0
    outer loop
      vertex 20.5 -9.2 12
      vertex 20.5 -11.1213 3
      vertex 20.5 -9.2 3
    endloop
  endfacet
  facet normal 1 -0 0
    outer loop
      vertex 20.5 -11.2 12
      vertex 20.5 -11.1213 3
      vertex 20.5 -9.2 12
    endloop
  endfacet
  facet normal 1 0 0
    outer loop
      vertex 20.5 -11.2 0
      vertex 20.5 -11.1213 3
      vertex 20.5 -11.2 12
    endloop
  endfacet
  facet normal 1 0 0
    outer loop
      vertex 20.5 -11.1213 3
      vertex 20.5 -11.2 0
      vertex 20.5 -11.1213 0
    endloop
  endfacet
  facet normal 0 1 0
    outer loop
      vertex 20.5 -9.2 12
      vertex 17.4 -9.2 9.55885
      vertex 12.5 -9.2 12
    endloop
  endfacet
  facet normal 0 1 0
    outer loop
      vertex 20.5 -9.2 12
      vertex 18.3 -9.2 8
      vertex 17.4 -9.2 9.55885
    endloop
  endfacet
  facet normal 0 1 0
    outer loop
      vertex 17.4 -9.2 6.44115
      vertex 20.5 -9.2 3
      vertex 15.6 -9.2 6.44115
    endloop
  endfacet
  facet normal 0 1 0
    outer loop
      vertex 18.3 -9.2 8
      vertex 20.5 -9.2 3
      vertex 17.4 -9.2 6.44115
    endloop
  endfacet
  facet normal 0 1 -0
    outer loop
      vertex 20.5 -9.2 3
      vertex 18.3 -9.2 8
      vertex 20.5 -9.2 12
    endloop
  endfacet
  facet normal 0 1 -0
    outer loop
      vertex 15.6 -9.2 9.55885
      vertex 12.5 -9.2 12
      vertex 17.4 -9.2 9.55885
    endloop
  endfacet
  facet normal 0 1 -0
    outer loop
      vertex 14.7 -9.2 8
      vertex 12.5 -9.2 12
      vertex 15.6 -9.2 9.55885
    endloop
  endfacet
  facet normal 0 1 0
    outer loop
      vertex 14.7 -9.2 8
      vertex 12.5 -9.2 3
      vertex 12.5 -9.2 12
    endloop
  endfacet
  facet normal 0 1 0
    outer loop
      vertex 15.6 -9.2 6.44115
      vertex 12.5 -9.2 3
      vertex 14.7 -9.2 8
    endloop
  endfacet
  facet normal 0 1 0
    outer loop
      vertex 12.5 -9.2 3
      vertex 15.6 -9.2 6.44115
      vertex 20.5 -9.2 3
    endloop
  endfacet
  facet normal 0 0 -1
    outer loop
      vertex 12.5 -11.2 0
      vertex 20.5 -11.1213 0
      vertex 20.5 -11.2 0
    endloop
  endfacet
  facet normal -0 0 -1
    outer loop
      vertex 20.5 -11.1213 0
      vertex 12.5 -11.2 0
      vertex 12.5 -11.1213 0
    endloop
  endfacet
  facet normal 0 -1 0
    outer loop
      vertex 12.5 -11.2 12
      vertex 15.6 -11.2 9.55885
      vertex 20.5 -11.2 12
    endloop
  endfacet
  facet normal 0 -1 0
    outer loop
      vertex 12.5 -11.2 12
      vertex 14.7 -11.2 8
      vertex 15.6 -11.2 9.55885
    endloop
  endfacet
  facet normal 0 -1 -0
    outer loop
      vertex 15.6 -11.2 6.44115
      vertex 12.5 -11.2 3
      vertex 17.4 -11.2 6.44115
    endloop
  endfacet
  facet normal 0 -1 -0
    outer loop
      vertex 14.7 -11.2 8
      vertex 12.5 -11.2 3
      vertex 15.6 -11.2 6.44115
    endloop
  endfacet
  facet normal 0 -1 0
    outer loop
      vertex 12.5 -11.2 3
      vertex 14.7 -11.2 8
      vertex 12.5 -11.2 12
    endloop
  endfacet
  facet normal 0 -1 0
    outer loop
      vertex 17.4 -11.2 9.55885
      vertex 20.5 -11.2 12
      vertex 15.6 -11.2 9.55885
    endloop
  endfacet
  facet normal 0 -1 0
    outer loop
      vertex 18.3 -11.2 8
      vertex 20.5 -11.2 12
      vertex 17.4 -11.2 9.55885
    endloop
  endfacet
  facet normal 0 -1 0
    outer loop
      vertex 20.5 -11.2 0
      vertex 12.5 -11.2 3
      vertex 12.5 -11.2 0
    endloop
  endfacet
  facet normal 0 -1 0
    outer loop
      vertex 18.3 -11.2 8
      vertex 20.5 -11.2 0
      vertex 20.5 -11.2 12
    endloop
  endfacet
  facet normal 0 -1 0
    outer loop
      vertex 17.4 -11.2 6.44115
      vertex 20.5 -11.2 0
      vertex 18.3 -11.2 8
    endloop
  endfacet
  facet normal 0 -1 0
    outer loop
      vertex 12.5 -11.2 3
      vertex 20.5 -11.2 0
      vertex 17.4 -11.2 6.44115
    endloop
  endfacet
  facet normal -1 0 0
    outer loop
      vertex -20.5 -11.1213 0
      vertex -20.5 -11.2 0
      vertex -20.5 -11.1213 3
    endloop
  endfacet
  facet normal -1 0 0
    outer loop
      vertex -20.5 -11.1213 3
      vertex -20.5 -9.2 12
      vertex -20.5 -9.2 3
    endloop
  endfacet
  facet normal -1 0 0
    outer loop
      vertex -20.5 -11.1213 3
      vertex -20.5 -11.2 12
      vertex -20.5 -9.2 12
    endloop
  endfacet
  facet normal -1 0 0
    outer loop
      vertex -20.5 -11.2 12
      vertex -20.5 -11.1213 3
      vertex -20.5 -11.2 0
    endloop
  endfacet
  facet normal -0 0 1
    outer loop
      vertex -20.5 -9.2 12
      vertex -12.5 -11.2 12
      vertex -12.5 -9.2 12
    endloop
  endfacet
  facet normal 0 0 1
    outer loop
      vertex -12.5 -11.2 12
      vertex -20.5 -9.2 12
      vertex -20.5 -11.2 12
    endloop
  endfacet
  facet normal 1 -0 0
    outer loop
      vertex -12.5 -11.2 12
      vertex -12.5 -9.2 3
      vertex -12.5 -9.2 12
    endloop
  endfacet
  facet normal 1 0 0
    outer loop
      vertex -12.5 -9.2 3
      vertex -12.5 -11.2 12
      vertex -12.5 -11.2 3
    endloop
  endfacet
  facet normal 1 -0 0
    outer loop
      vertex -12.5 -11.2 3
      vertex -12.5 -11.1213 0
      vertex -12.5 -9.2 3
    endloop
  endfacet
  facet normal 1 0 0
    outer loop
      vertex -12.5 -11.1213 0
      vertex -12.5 -11.2 3
      vertex -12.5 -11.2 0
    endloop
  endfacet
  facet normal 1 0 0
    outer loop
      vertex -12.5 -11.1213 0
      vertex -12.5 -9.12132 3
      vertex -12.5 -9.2 3
    endloop
  endfacet
  facet normal 1 0 0
    outer loop
      vertex -12.5 -9.12132 3
      vertex -12.5 -11.1213 0
      vertex -12.5 -9.12132 -3
    endloop
  endfacet
  facet normal 1 0 0
    outer loop
      vertex -12.5 -9.12132 -3
      vertex -12.5 -11.1213 0
      vertex -12.5 -11.1213 -3
    endloop
  endfacet
  facet normal 0 1 0
    outer loop
      vertex -12.5 -9.2 12
      vertex -15.6 -9.2 9.55885
      vertex -20.5 -9.2 12
    endloop
  endfacet
  facet normal 0 1 0
    outer loop
      vertex -12.5 -9.2 12
      vertex -14.7 -9.2 8
      vertex -15.6 -9.2 9.55885
    endloop
  endfacet
  facet normal 0 1 0
    outer loop
      vertex -15.6 -9.2 6.44115
      vertex -12.5 -9.2 3
      vertex -17.4 -9.2 6.44115
    endloop
  endfacet
  facet normal 0 1 0
    outer loop
      vertex -14.7 -9.2 8
      vertex -12.5 -9.2 3
      vertex -15.6 -9.2 6.44115
    endloop
  endfacet
  facet normal 0 1 -0
    outer loop
      vertex -12.5 -9.2 3
      vertex -14.7 -9.2 8
      vertex -12.5 -9.2 12
    endloop
  endfacet
  facet normal 0 1 -0
    outer loop
      vertex -17.4 -9.2 9.55885
      vertex -20.5 -9.2 12
      vertex -15.6 -9.2 9.55885
    endloop
  endfacet
  facet normal 0 1 -0
    outer loop
      vertex -18.3 -9.2 8
      vertex -20.5 -9.2 12
      vertex -17.4 -9.2 9.55885
    endloop
  endfacet
  facet normal 0 1 0
    outer loop
      vertex -18.3 -9.2 8
      vertex -20.5 -9.2 3
      vertex -20.5 -9.2 12
    endloop
  endfacet
  facet normal 0 1 0
    outer loop
      vertex -17.4 -9.2 6.44115
      vertex -20.5 -9.2 3
      vertex -18.3 -9.2 8
    endloop
  endfacet
  facet normal 0 1 0
    outer loop
      vertex -20.5 -9.2 3
      vertex -17.4 -9.2 6.44115
      vertex -12.5 -9.2 3
    endloop
  endfacet
  facet normal 0 0 -1
    outer loop
      vertex -20.5 -11.2 0
      vertex -12.5 -11.1213 0
      vertex -12.5 -11.2 0
    endloop
  endfacet
  facet normal -0 0 -1
    outer loop
      vertex -12.5 -11.1213 0
      vertex -20.5 -11.2 0
      vertex -20.5 -11.1213 0
    endloop
  endfacet
  facet normal 0 -1 0
    outer loop
      vertex -20.5 -11.2 12
      vertex -17.4 -11.2 9.55885
      vertex -12.5 -11.2 12
    endloop
  endfacet
  facet normal 0 -1 0
    outer loop
      vertex -20.5 -11.2 12
      vertex -18.3 -11.2 8
      vertex -17.4 -11.2 9.55885
    endloop
  endfacet
  facet normal 0 -1 0
    outer loop
      vertex -17.4 -11.2 6.44115
      vertex -12.5 -11.2 3
      vertex -15.6 -11.2 6.44115
    endloop
  endfacet
  facet normal 0 -1 0
    outer loop
      vertex -20.5 -11.2 0
      vertex -18.3 -11.2 8
      vertex -20.5 -11.2 12
    endloop
  endfacet
  facet normal 0 -1 0
    outer loop
      vertex -20.5 -11.2 0
      vertex -17.4 -11.2 6.44115
      vertex -18.3 -11.2 8
    endloop
  endfacet
  facet normal 0 -1 0
    outer loop
      vertex -20.5 -11.2 0
      vertex -12.5 -11.2 3
      vertex -17.4 -11.2 6.44115
    endloop
  endfacet
  facet normal 0 -1 -0
    outer loop
      vertex -12.5 -11.2 3
      vertex -20.5 -11.2 0
      vertex -12.5 -11.2 0
    endloop
  endfacet
  facet normal 0 -1 0
    outer loop
      vertex -15.6 -11.2 9.55885
      vertex -12.5 -11.2 12
      vertex -17.4 -11.2 9.55885
    endloop
  endfacet
  facet normal 0 -1 0
    outer loop
      vertex -14.7 -11.2 8
      vertex -12.5 -11.2 12
      vertex -15.6 -11.2 9.55885
    endloop
  endfacet
  facet normal 0 -1 0
    outer loop
      vertex -14.7 -11.2 8
      vertex -12.5 -11.2 3
      vertex -12.5 -11.2 12
    endloop
  endfacet
  facet normal 0 -1 0
    outer loop
      vertex -12.5 -11.2 3
      vertex -14.7 -11.2 8
      vertex -15.6 -11.2 6.44115
    endloop
  endfacet
  facet normal 0.70711 0.707104 0
    outer loop
      vertex -22.1213 -7 3
      vertex -22 -7.12132 1
      vertex -22.1213 -7 -3
    endloop
  endfacet
  facet normal 0.707107 0.707107 -3.58948e-07
    outer loop
      vertex -22.1213 -7 3
      vertex -20.1213 -9 1
      vertex -22 -7.12132 1
    endloop
  endfacet
  facet normal 0.70711 0.707104 0
    outer loop
      vertex -20.1213 -9 1
      vertex -20 -9.12132 3
      vertex -20.1213 -9 -1
    endloop
  endfacet
  facet normal 0.707107 0.707107 3.17892e-07
    outer loop
      vertex -20 -9.12132 3
      vertex -20.1213 -9 1
      vertex -22.1213 -7 3
    endloop
  endfacet
  facet normal 0.70711 0.707104 -0
    outer loop
      vertex -22 -7.12132 -1
      vertex -22.1213 -7 -3
      vertex -22 -7.12132 1
    endloop
  endfacet
  facet normal 0.707107 0.707107 3.58948e-07
    outer loop
      vertex -20.1213 -9 -1
      vertex -22.1213 -7 -3
      vertex -22 -7.12132 -1
    endloop
  endfacet
  facet normal 0.707107 0.707107 -3.17892e-07
    outer loop
      vertex -20.1213 -9 -1
      vertex -20 -9.12132 -3
      vertex -22.1213 -7 -3
    endloop
  endfacet
  facet normal 0.70711 0.707104 -0
    outer loop
      vertex -20 -9.12132 -3
      vertex -20.1213 -9 -1
      vertex -20 -9.12132 3
    endloop
  endfacet
  facet normal 0 1 -0
    outer loop
      vertex -12.5 -9.12132 -3
      vertex -20 -9.12132 3
      vertex -12.5 -9.12132 3
    endloop
  endfacet
  facet normal 0 1 0
    outer loop
      vertex -20 -9.12132 3
      vertex -12.5 -9.12132 -3
      vertex -20 -9.12132 -3
    endloop
  endfacet
  facet normal 0 1 -0
    outer loop
      vertex 20 -9.12132 -3
      vertex 12.5 -9.12132 3
      vertex 20 -9.12132 3
    endloop
  endfacet
  facet normal 0 1 0
    outer loop
      vertex 12.5 -9.12132 3
      vertex 20 -9.12132 -3
      vertex 12.5 -9.12132 -3
    endloop
  endfacet
  facet normal -0.70711 -0.707104 0
    outer loop
      vertex 20 9.12132 -3
      vertex 20.1213 9 -1
      vertex 20 9.12132 3
    endloop
  endfacet
  facet normal -0.707107 -0.707107 -3.58948e-07
    outer loop
      vertex 20 9.12132 -3
      vertex 22 7.12132 -1
      vertex 20.1213 9 -1
    endloop
  endfacet
  facet normal -0.70711 -0.707104 0
    outer loop
      vertex 22 7.12132 -1
      vertex 22.1213 7 -3
      vertex 22 7.12132 1
    endloop
  endfacet
  facet normal -0.707107 -0.707107 3.17892e-07
    outer loop
      vertex 22.1213 7 -3
      vertex 22 7.12132 -1
      vertex 20 9.12132 -3
    endloop
  endfacet
  facet normal -0.70711 -0.707104 -0
    outer loop
      vertex 20.1213 9 1
      vertex 20 9.12132 3
      vertex 20.1213 9 -1
    endloop
  endfacet
  facet normal -0.707107 -0.707107 3.58948e-07
    outer loop
      vertex 22 7.12132 1
      vertex 20 9.12132 3
      vertex 20.1213 9 1
    endloop
  endfacet
  facet normal -0.707107 -0.707107 -3.17892e-07
    outer loop
      vertex 22 7.12132 1
      vertex 22.1213 7 3
      vertex 20 9.12132 3
    endloop
  endfacet
  facet normal -0.70711 -0.707104 -0
    outer loop
      vertex 22.1213 7 3
      vertex 22 7.12132 1
      vertex 22.1213 7 -3
    endloop
  endfacet
  facet normal 0 -1 0
    outer loop
      vertex -20 9.12132 -3
      vertex 20 9.12132 3
      vertex -20 9.12132 3
    endloop
  endfacet
  facet normal 0 -1 -0
    outer loop
      vertex 20 9.12132 3
      vertex -20 9.12132 -3
      vertex 20 9.12132 -3
    endloop
  endfacet
  facet normal -0.70711 0.707104 0
    outer loop
      vertex 22.1213 -7 -3
      vertex 22 -7.12132 -1
      vertex 22.1213 -7 3
    endloop
  endfacet
  facet normal -0.707107 0.707107 3.58948e-07
    outer loop
      vertex 22.1213 -7 -3
      vertex 20.1213 -9 -1
      vertex 22 -7.12132 -1
    endloop
  endfacet
  facet normal -0.70711 0.707104 0
    outer loop
      vertex 20.1213 -9 -1
      vertex 20 -9.12132 -3
      vertex 20.1213 -9 1
    endloop
  endfacet
  facet normal -0.707107 0.707107 -3.17892e-07
    outer loop
      vertex 20 -9.12132 -3
      vertex 20.1213 -9 -1
      vertex 22.1213 -7 -3
    endloop
  endfacet
  facet normal -0.70711 0.707104 0
    outer loop
      vertex 22 -7.12132 1
      vertex 22.1213 -7 3
      vertex 22 -7.12132 -1
    endloop
  endfacet
  facet normal -0.707107 0.707107 -3.58948e-07
    outer loop
      vertex 20.1213 -9 1
      vertex 22.1213 -7 3
      vertex 22 -7.12132 1
    endloop
  endfacet
  facet normal -0.707107 0.707107 3.17892e-07
    outer loop
      vertex 20.1213 -9 1
      vertex 20 -9.12132 3
      vertex 22.1213 -7 3
    endloop
  endfacet
  facet normal -0.70711 0.707104 0
    outer loop
      vertex 20 -9.12132 3
      vertex 20.1213 -9 1
      vertex 20 -9.12132 -3
    endloop
  endfacet
  facet normal 0.70711 -0.707104 0
    outer loop
      vertex -20 9.12132 3
      vertex -20.1213 9 1
      vertex -20 9.12132 -3
    endloop
  endfacet
  facet normal 0.707107 -0.707107 3.58948e-07
    outer loop
      vertex -20 9.12132 3
      vertex -22 7.12132 1
      vertex -20.1213 9 1
    endloop
  endfacet
  facet normal 0.70711 -0.707104 0
    outer loop
      vertex -22 7.12132 1
      vertex -22.1213 7 3
      vertex -22 7.12132 -1
    endloop
  endfacet
  facet normal 0.707107 -0.707107 -3.17892e-07
    outer loop
      vertex -22.1213 7 3
      vertex -22 7.12132 1
      vertex -20 9.12132 3
    endloop
  endfacet
  facet normal 0.70711 -0.707104 0
    outer loop
      vertex -20.1213 9 -1
      vertex -20 9.12132 -3
      vertex -20.1213 9 1
    endloop
  endfacet
  facet normal 0.707107 -0.707107 -3.58948e-07
    outer loop
      vertex -22 7.12132 -1
      vertex -20 9.12132 -3
      vertex -20.1213 9 -1
    endloop
  endfacet
  facet normal 0.707107 -0.707107 3.17892e-07
    outer loop
      vertex -22 7.12132 -1
      vertex -22.1213 7 -3
      vertex -20 9.12132 -3
    endloop
  endfacet
  facet normal 0.70711 -0.707104 0
    outer loop
      vertex -22.1213 7 -3
      vertex -22 7.12132 -1
      vertex -22.1213 7 3
    endloop
  endfacet
  facet normal 1 0 0
    outer loop
      vertex -22.1213 -4 3
      vertex -22.1213 -7 3
      vertex -22.1213 -4 1
    endloop
  endfacet
  facet normal 1 0 0
    outer loop
      vertex -22.1213 4 1
      vertex -22.1213 7 3
      vertex -22.1213 4 3
    endloop
  endfacet
  facet normal 1 0 0
    outer loop
      vertex -22.1213 7 3
      vertex -22.1213 4 1
      vertex -22.1213 7 -3
    endloop
  endfacet
  facet normal 1 -0 0
    outer loop
      vertex -22.1213 -4 1
      vertex -22.1213 7 -3
      vertex -22.1213 4 1
    endloop
  endfacet
  facet normal 1 0 0
    outer loop
      vertex -22.1213 -4 1
      vertex -22.1213 -7 -3
      vertex -22.1213 7 -3
    endloop
  endfacet
  facet normal 1 0 0
    outer loop
      vertex -22.1213 -7 -3
      vertex -22.1213 -4 1
      vertex -22.1213 -7 3
    endloop
  endfacet
  facet normal -1 0 0
    outer loop
      vertex 22.1213 -7 -3
      vertex 22.1213 7 3
      vertex 22.1213 7 -3
    endloop
  endfacet
  facet normal -1 -0 0
    outer loop
      vertex 22.1213 7 3
      vertex 22.1213 -7 -3
      vertex 22.1213 -7 3
    endloop
  endfacet
  facet normal 1 -0 0
    outer loop
      vertex -22 -9 1
      vertex -22 -7.12132 -1
      vertex -22 -7.12132 1
    endloop
  endfacet
  facet normal 1 0 0
    outer loop
      vertex -22 -7.12132 -1
      vertex -22 -9 1
      vertex -22 -9 -1
    endloop
  endfacet
  facet normal 1 -0 0
    outer loop
      vertex -22 7.12132 1
      vertex -22 9 -1
      vertex -22 9 1
    endloop
  endfacet
  facet normal 1 0 0
    outer loop
      vertex -22 9 -1
      vertex -22 7.12132 1
      vertex -22 7.12132 -1
    endloop
  endfacet
  facet normal 0 -0 -1
    outer loop
      vertex 22 -7.12132 1
      vertex 22 -9 1
      vertex 20.1213 -9 1
    endloop
  endfacet
  facet normal 0 0 -1
    outer loop
      vertex -22 -7.12132 1
      vertex -20.1213 -9 1
      vertex -22 -9 1
    endloop
  endfacet
  facet normal -0 -0 -1
    outer loop
      vertex 22 9 1
      vertex 22 7.12132 1
      vertex 20.1213 9 1
    endloop
  endfacet
  facet normal 0 0 -1
    outer loop
      vertex -22 9 1
      vertex -20.1213 9 1
      vertex -22 7.12132 1
    endloop
  endfacet
  facet normal -1 0 0
    outer loop
      vertex 22 -9 -1
      vertex 22 -7.12132 1
      vertex 22 -7.12132 -1
    endloop
  endfacet
  facet normal -1 -0 0
    outer loop
      vertex 22 -7.12132 1
      vertex 22 -9 -1
      vertex 22 -9 1
    endloop
  endfacet
  facet normal -1 0 0
    outer loop
      vertex 22 7.12132 -1
      vertex 22 9 1
      vertex 22 9 -1
    endloop
  endfacet
  facet normal -1 -0 0
    outer loop
      vertex 22 9 1
      vertex 22 7.12132 -1
      vertex 22 7.12132 1
    endloop
  endfacet
  facet normal 0 -1 0
    outer loop
      vertex 20.1213 9 -1
      vertex 22 9 1
      vertex 20.1213 9 1
    endloop
  endfacet
  facet normal 0 -1 -0
    outer loop
      vertex 22 9 1
      vertex 20.1213 9 -1
      vertex 22 9 -1
    endloop
  endfacet
  facet normal 0 -1 0
    outer loop
      vertex -22 9 -1
      vertex -20.1213 9 1
      vertex -22 9 1
    endloop
  endfacet
  facet normal 0 -1 -0
    outer loop
      vertex -20.1213 9 1
      vertex -22 9 -1
      vertex -20.1213 9 -1
    endloop
  endfacet
  facet normal 0 0 1
    outer loop
      vertex -20.1213 -9 -1
      vertex -22 -7.12132 -1
      vertex -22 -9 -1
    endloop
  endfacet
  facet normal 0 -0 1
    outer loop
      vertex 22 7.12132 -1
      vertex 22 9 -1
      vertex 20.1213 9 -1
    endloop
  endfacet
  facet normal 0 0 1
    outer loop
      vertex -20.1213 9 -1
      vertex -22 9 -1
      vertex -22 7.12132 -1
    endloop
  endfacet
  facet normal 0 -0 1
    outer loop
      vertex 22 -9 -1
      vertex 22 -7.12132 -1
      vertex 20.1213 -9 -1
    endloop
  endfacet
  facet normal 0 1 -0
    outer loop
      vertex 22 -9 -1
      vertex 20.1213 -9 1
      vertex 22 -9 1
    endloop
  endfacet
  facet normal 0 1 0
    outer loop
      vertex 20.1213 -9 1
      vertex 22 -9 -1
      vertex 20.1213 -9 -1
    endloop
  endfacet
  facet normal 0 1 -0
    outer loop
      vertex -20.1213 -9 -1
      vertex -22 -9 1
      vertex -20.1213 -9 1
    endloop
  endfacet
  facet normal 0 1 0
    outer loop
      vertex -22 -9 1
      vertex -20.1213 -9 -1
      vertex -22 -9 -1
    endloop
  endfacet
  facet normal -0 0 1
    outer loop
      vertex -24.1213 4 1
      vertex -22.1213 -4 1
      vertex -22.1213 4 1
    endloop
  endfacet
  facet normal 0 0 1
    outer loop
      vertex -22.1213 -4 1
      vertex -24.1213 4 1
      vertex -24.1213 -4 1
    endloop
  endfacet
  facet normal 0 1 -0
    outer loop
      vertex -22.1213 -4 1
      vertex -24.1213 -4 3
      vertex -22.1213 -4 3
    endloop
  endfacet
  facet normal 0 1 0
    outer loop
      vertex -24.1213 -4 3
      vertex -22.1213 -4 1
      vertex -24.1213 -4 1
    endloop
  endfacet
  facet normal 0 -1 0
    outer loop
      vertex -24.1213 4 1
      vertex -22.1213 4 3
      vertex -24.1213 4 3
    endloop
  endfacet
  facet normal 0 -1 -0
    outer loop
      vertex -22.1213 4 3
      vertex -24.1213 4 1
      vertex -22.1213 4 1
    endloop
  endfacet
  facet normal -0.866025 0 -0.5
    outer loop
      vertex -14.7 -11.2 8
      vertex -15.6 -9.2 9.55885
      vertex -14.7 -9.2 8
    endloop
  endfacet
  facet normal -0.866025 -0 -0.5
    outer loop
      vertex -15.6 -9.2 9.55885
      vertex -14.7 -11.2 8
      vertex -15.6 -11.2 9.55885
    endloop
  endfacet
  facet normal 0 0 -1
    outer loop
      vertex -17.4 -11.2 9.55885
      vertex -15.6 -9.2 9.55885
      vertex -15.6 -11.2 9.55885
    endloop
  endfacet
  facet normal -0 0 -1
    outer loop
      vertex -15.6 -9.2 9.55885
      vertex -17.4 -11.2 9.55885
      vertex -17.4 -9.2 9.55885
    endloop
  endfacet
  facet normal -0 0 1
    outer loop
      vertex -17.4 -9.2 6.44115
      vertex -15.6 -11.2 6.44115
      vertex -15.6 -9.2 6.44115
    endloop
  endfacet
  facet normal 0 0 1
    outer loop
      vertex -15.6 -11.2 6.44115
      vertex -17.4 -9.2 6.44115
      vertex -17.4 -11.2 6.44115
    endloop
  endfacet
  facet normal -0.866026 0 0.5
    outer loop
      vertex -15.6 -11.2 6.44115
      vertex -14.7 -9.2 8
      vertex -15.6 -9.2 6.44115
    endloop
  endfacet
  facet normal -0.866026 0 0.5
    outer loop
      vertex -14.7 -9.2 8
      vertex -15.6 -11.2 6.44115
      vertex -14.7 -11.2 8
    endloop
  endfacet
  facet normal 0.866025 0 -0.5
    outer loop
      vertex -17.4 -11.2 9.55885
      vertex -18.3 -9.2 8
      vertex -17.4 -9.2 9.55885
    endloop
  endfacet
  facet normal 0.866025 0 -0.5
    outer loop
      vertex -18.3 -9.2 8
      vertex -17.4 -11.2 9.55885
      vertex -18.3 -11.2 8
    endloop
  endfacet
  facet normal 0.866026 -0 0.5
    outer loop
      vertex -18.3 -11.2 8
      vertex -17.4 -9.2 6.44115
      vertex -18.3 -9.2 8
    endloop
  endfacet
  facet normal 0.866026 0 0.5
    outer loop
      vertex -17.4 -9.2 6.44115
      vertex -18.3 -11.2 8
      vertex -17.4 -11.2 6.44115
    endloop
  endfacet
  facet normal -0.866025 0 -0.5
    outer loop
      vertex 18.3 -11.2 8
      vertex 17.4 -9.2 9.55885
      vertex 18.3 -9.2 8
    endloop
  endfacet
  facet normal -0.866025 -0 -0.5
    outer loop
      vertex 17.4 -9.2 9.55885
      vertex 18.3 -11.2 8
      vertex 17.4 -11.2 9.55885
    endloop
  endfacet
  facet normal 0 0 -1
    outer loop
      vertex 15.6 -11.2 9.55885
      vertex 17.4 -9.2 9.55885
      vertex 17.4 -11.2 9.55885
    endloop
  endfacet
  facet normal -0 0 -1
    outer loop
      vertex 17.4 -9.2 9.55885
      vertex 15.6 -11.2 9.55885
      vertex 15.6 -9.2 9.55885
    endloop
  endfacet
  facet normal -0 0 1
    outer loop
      vertex 15.6 -9.2 6.44115
      vertex 17.4 -11.2 6.44115
      vertex 17.4 -9.2 6.44115
    endloop
  endfacet
  facet normal 0 0 1
    outer loop
      vertex 17.4 -11.2 6.44115
      vertex 15.6 -9.2 6.44115
      vertex 15.6 -11.2 6.44115
    endloop
  endfacet
  facet normal -0.866026 0 0.5
    outer loop
      vertex 17.4 -11.2 6.44115
      vertex 18.3 -9.2 8
      vertex 17.4 -9.2 6.44115
    endloop
  endfacet
  facet normal -0.866026 0 0.5
    outer loop
      vertex 18.3 -9.2 8
      vertex 17.4 -11.2 6.44115
      vertex 18.3 -11.2 8
    endloop
  endfacet
  facet normal 0.866025 0 -0.5
    outer loop
      vertex 15.6 -11.2 9.55885
      vertex 14.7 -9.2 8
      vertex 15.6 -9.2 9.55885
    endloop
  endfacet
  facet normal 0.866025 0 -0.5
    outer loop
      vertex 14.7 -9.2 8
      vertex 15.6 -11.2 9.55885
      vertex 14.7 -11.2 8
    endloop
  endfacet
  facet normal 0.866026 -0 0.5
    outer loop
      vertex 14.7 -11.2 8
      vertex 15.6 -9.2 6.44115
      vertex 14.7 -9.2 8
    endloop
  endfacet
  facet normal 0.866026 0 0.5
    outer loop
      vertex 15.6 -9.2 6.44115
      vertex 14.7 -11.2 8
      vertex 15.6 -11.2 6.44115
    endloop
  endfacet
endsolid OpenSCAD_Model
