solid OpenSCAD_Model
  facet normal 0.707107 -5.4354e-17 0.707107
    outer loop
      vertex 1.63596e-16 -2.67173 10
      vertex 0 -4.8 10
      vertex 0.486215 -2.75746 9.51379
    endloop
  endfacet
  facet normal 0.707107 0 0.707107
    outer loop
      vertex 2 -4.8 8
      vertex 0.486215 -2.75746 9.51379
      vertex 0 -4.8 10
    endloop
  endfacet
  facet normal 0.707107 0 0.707107
    outer loop
      vertex 0.486215 -2.75746 9.51379
      vertex 2 -4.8 8
      vertex 2 -1.88348 8
    endloop
  endfacet
  facet normal 0 0 1
    outer loop
      vertex 1.63596e-16 -2.67173 10
      vertex 0 1.22465e-16 10
      vertex 0 -4.8 10
    endloop
  endfacet
  facet normal 0.707107 0 0.707107
    outer loop
      vertex 0 4.8 10
      vertex 0.486215 2.75746 9.51379
      vertex 2 4.8 8
    endloop
  endfacet
  facet normal 0.707107 0 0.707107
    outer loop
      vertex 0.486215 2.75746 9.51379
      vertex 0 4.8 10
      vertex 0 2.67173 10
    endloop
  endfacet
  facet normal 0.707107 0 0.707107
    outer loop
      vertex 2 4.8 8
      vertex 0.486215 2.75746 9.51379
      vertex 2 1.88348 8
    endloop
  endfacet
  facet normal 0 -1 -0
    outer loop
      vertex 0 -4.8 10
      vertex -2 -4.8 8
      vertex 2 -4.8 8
    endloop
  endfacet
  facet normal -0.707107 0 0.707107
    outer loop
      vertex -2 -4.8 8
      vertex -1.4 -2.42487 8.6
      vertex -2 -1.70982 8
    endloop
  endfacet
  facet normal -0.707107 0 0.707107
    outer loop
      vertex 0 -4.8 10
      vertex -1.4 -2.42487 8.6
      vertex -2 -4.8 8
    endloop
  endfacet
  facet normal -0.707107 -5.26951e-17 0.707107
    outer loop
      vertex -1.4 -2.42487 8.6
      vertex 0 -4.8 10
      vertex -1.63596e-16 -2.67173 10
    endloop
  endfacet
  facet normal -0 0 1
    outer loop
      vertex -1.63596e-16 -2.67173 10
      vertex 0 -4.8 10
      vertex 0 1.22465e-16 10
    endloop
  endfacet
  facet normal -0.707107 0 0.707107
    outer loop
      vertex -1.4 2.42487 8.6
      vertex 0 4.8 10
      vertex -2 4.8 8
    endloop
  endfacet
  facet normal -0.707107 0 0.707107
    outer loop
      vertex 0 4.8 10
      vertex -1.4 2.42487 8.6
      vertex 0 2.67173 10
    endloop
  endfacet
  facet normal -0.707107 0 0.707107
    outer loop
      vertex -1.4 2.42487 8.6
      vertex -2 4.8 8
      vertex -2 1.70982 8
    endloop
  endfacet
  facet normal 0 1 0
    outer loop
      vertex 2 4.8 8
      vertex -2 4.8 8
      vertex 0 4.8 10
    endloop
  endfacet
  facet normal 0.707107 0 0.707107
    outer loop
      vertex -4 4.8 10
      vertex -2 1.70982 8
      vertex -2 4.8 8
    endloop
  endfacet
  facet normal 0.707107 0 0.707107
    outer loop
      vertex -4 4.8 10
      vertex -2.63114 0.957656 8.63114
      vertex -2 1.70982 8
    endloop
  endfacet
  facet normal 0.707107 0 0.707107
    outer loop
      vertex -4 4.8 10
      vertex -2.63114 -0.957656 8.63114
      vertex -2.63114 0.957656 8.63114
    endloop
  endfacet
  facet normal 0.707107 -0 0.707107
    outer loop
      vertex -4 -4.8 10
      vertex -2.63114 -0.957656 8.63114
      vertex -4 4.8 10
    endloop
  endfacet
  facet normal 0.707107 0 0.707107
    outer loop
      vertex -4 -4.8 10
      vertex -2 -1.70982 8
      vertex -2.63114 -0.957656 8.63114
    endloop
  endfacet
  facet normal 0.707107 0 0.707107
    outer loop
      vertex -2 -1.70982 8
      vertex -4 -4.8 10
      vertex -2 -4.8 8
    endloop
  endfacet
  facet normal 0 -1 -0
    outer loop
      vertex -4 -4.8 10
      vertex -6 -4.8 8
      vertex -2 -4.8 8
    endloop
  endfacet
  facet normal -0.707107 0 0.707107
    outer loop
      vertex -6 0 8
      vertex -4 4.8 10
      vertex -6 4.8 8
    endloop
  endfacet
  facet normal -0.707107 0 0.707107
    outer loop
      vertex -4 -4.8 10
      vertex -6 0 8
      vertex -6 -4.8 8
    endloop
  endfacet
  facet normal -0.707107 0 0.707107
    outer loop
      vertex -6 0 8
      vertex -4 -4.8 10
      vertex -4 4.8 10
    endloop
  endfacet
  facet normal 0 1 0
    outer loop
      vertex -2 4.8 8
      vertex -6 4.8 8
      vertex -4 4.8 10
    endloop
  endfacet
  facet normal 0.707107 0 0.707107
    outer loop
      vertex 4 4.8 10
      vertex 6 0 8
      vertex 6 4.8 8
    endloop
  endfacet
  facet normal 0.707107 -0 0.707107
    outer loop
      vertex 4 -4.8 10
      vertex 6 0 8
      vertex 4 4.8 10
    endloop
  endfacet
  facet normal 0.707107 0 0.707107
    outer loop
      vertex 6 0 8
      vertex 4 -4.8 10
      vertex 6 -4.8 8
    endloop
  endfacet
  facet normal 0 -1 -0
    outer loop
      vertex 4 -4.8 10
      vertex 2 -4.8 8
      vertex 6 -4.8 8
    endloop
  endfacet
  facet normal 0 1 0
    outer loop
      vertex 6 4.8 8
      vertex 2 4.8 8
      vertex 4 4.8 10
    endloop
  endfacet
  facet normal -0.707107 0 0.707107
    outer loop
      vertex 2.14492 1.7998 8.14492
      vertex 2 4.8 8
      vertex 2 1.88348 8
    endloop
  endfacet
  facet normal -0.707107 0 0.707107
    outer loop
      vertex 2 4.8 8
      vertex 2.14492 1.7998 8.14492
      vertex 4 4.8 10
    endloop
  endfacet
  facet normal -0.707107 0 0.707107
    outer loop
      vertex 2.8 0 8.8
      vertex 4 4.8 10
      vertex 2.14492 1.7998 8.14492
    endloop
  endfacet
  facet normal -0.707107 0 0.707107
    outer loop
      vertex 2 -4.8 8
      vertex 2.14492 -1.7998 8.14492
      vertex 2 -1.88348 8
    endloop
  endfacet
  facet normal -0.707107 0 0.707107
    outer loop
      vertex 4 -4.8 10
      vertex 2.14492 -1.7998 8.14492
      vertex 2 -4.8 8
    endloop
  endfacet
  facet normal -0.707107 0 0.707107
    outer loop
      vertex 2.14492 -1.7998 8.14492
      vertex 4 -4.8 10
      vertex 2.8 0 8.8
    endloop
  endfacet
  facet normal -0.707107 0 0.707107
    outer loop
      vertex 2.8 0 8.8
      vertex 4 -4.8 10
      vertex 4 4.8 10
    endloop
  endfacet
  facet normal 0.707107 0 0.707107
    outer loop
      vertex -8 4.8 10
      vertex -6 0 8
      vertex -6 4.8 8
    endloop
  endfacet
  facet normal 0.707107 -0 0.707107
    outer loop
      vertex -8 -4.8 10
      vertex -6 0 8
      vertex -8 4.8 10
    endloop
  endfacet
  facet normal 0.707107 0 0.707107
    outer loop
      vertex -6 0 8
      vertex -8 -4.8 10
      vertex -6 -4.8 8
    endloop
  endfacet
  facet normal 0 -1 -0
    outer loop
      vertex -8 -4.8 10
      vertex -10 -4.8 8
      vertex -6 -4.8 8
    endloop
  endfacet
  facet normal -0.707107 0 0.707107
    outer loop
      vertex -10 0 8
      vertex -8 4.8 10
      vertex -10 4.8 8
    endloop
  endfacet
  facet normal -0.707107 0 0.707107
    outer loop
      vertex -8 -4.8 10
      vertex -10 0 8
      vertex -10 -4.8 8
    endloop
  endfacet
  facet normal -0.707107 0 0.707107
    outer loop
      vertex -10 0 8
      vertex -8 -4.8 10
      vertex -8 4.8 10
    endloop
  endfacet
  facet normal 0 1 0
    outer loop
      vertex -6 4.8 8
      vertex -10 4.8 8
      vertex -8 4.8 10
    endloop
  endfacet
  facet normal 0.707107 0 0.707107
    outer loop
      vertex 8 4.8 10
      vertex 10 0 8
      vertex 10 4.8 8
    endloop
  endfacet
  facet normal 0.707107 -0 0.707107
    outer loop
      vertex 8 -4.8 10
      vertex 10 0 8
      vertex 8 4.8 10
    endloop
  endfacet
  facet normal 0.707107 0 0.707107
    outer loop
      vertex 10 0 8
      vertex 8 -4.8 10
      vertex 10 -4.8 8
    endloop
  endfacet
  facet normal 0 -1 -0
    outer loop
      vertex 8 -4.8 10
      vertex 6 -4.8 8
      vertex 10 -4.8 8
    endloop
  endfacet
  facet normal 0 1 0
    outer loop
      vertex 10 4.8 8
      vertex 6 4.8 8
      vertex 8 4.8 10
    endloop
  endfacet
  facet normal -0.707107 0 0.707107
    outer loop
      vertex 6 0 8
      vertex 8 4.8 10
      vertex 6 4.8 8
    endloop
  endfacet
  facet normal -0.707107 0 0.707107
    outer loop
      vertex 8 -4.8 10
      vertex 6 0 8
      vertex 6 -4.8 8
    endloop
  endfacet
  facet normal -0.707107 0 0.707107
    outer loop
      vertex 6 0 8
      vertex 8 -4.8 10
      vertex 8 4.8 10
    endloop
  endfacet
  facet normal -1 0 0
    outer loop
      vertex -20 15 -8
      vertex -20 12.5 -5.5
      vertex -20 15 2
    endloop
  endfacet
  facet normal -1 0 0
    outer loop
      vertex -20 15 -8
      vertex -20 -12.5 -5.5
      vertex -20 12.5 -5.5
    endloop
  endfacet
  facet normal -1 -0 0
    outer loop
      vertex -20 -12.5 -5.5
      vertex -20 -15 -8
      vertex -20 -12.5 -0.5
    endloop
  endfacet
  facet normal -1 0 0
    outer loop
      vertex -20 -15 -8
      vertex -20 -12.5 -5.5
      vertex -20 15 -8
    endloop
  endfacet
  facet normal -1 0 0
    outer loop
      vertex -20 12.5 -0.5
      vertex -20 15 2
      vertex -20 12.5 -5.5
    endloop
  endfacet
  facet normal -1 0 0
    outer loop
      vertex -20 -12.5 -0.5
      vertex -20 15 2
      vertex -20 12.5 -0.5
    endloop
  endfacet
  facet normal -1 0 0
    outer loop
      vertex -20 -12.5 -0.5
      vertex -20 -15 2
      vertex -20 15 2
    endloop
  endfacet
  facet normal -1 0 0
    outer loop
      vertex -20 -15 2
      vertex -20 -12.5 -0.5
      vertex -20 -15 -8
    endloop
  endfacet
  facet normal 1 0 0
    outer loop
      vertex 20 15 2
      vertex 20 12.5 -0.5
      vertex 20 15 -8
    endloop
  endfacet
  facet normal 1 0 0
    outer loop
      vertex 20 15 2
      vertex 20 -12.5 -0.5
      vertex 20 12.5 -0.5
    endloop
  endfacet
  facet normal 1 0 0
    outer loop
      vertex 20 -12.5 -0.5
      vertex 20 -15 2
      vertex 20 -12.5 -5.5
    endloop
  endfacet
  facet normal 1 -0 0
    outer loop
      vertex 20 -15 2
      vertex 20 -12.5 -0.5
      vertex 20 15 2
    endloop
  endfacet
  facet normal 1 -0 0
    outer loop
      vertex 20 12.5 -5.5
      vertex 20 15 -8
      vertex 20 12.5 -0.5
    endloop
  endfacet
  facet normal 1 -0 0
    outer loop
      vertex 20 -12.5 -5.5
      vertex 20 15 -8
      vertex 20 12.5 -5.5
    endloop
  endfacet
  facet normal 1 0 0
    outer loop
      vertex 20 -12.5 -5.5
      vertex 20 -15 -8
      vertex 20 15 -8
    endloop
  endfacet
  facet normal 1 0 0
    outer loop
      vertex 20 -15 -8
      vertex 20 -12.5 -5.5
      vertex 20 -15 2
    endloop
  endfacet
  facet normal 0 1 -0
    outer loop
      vertex 20 15 -8
      vertex -20 15 2
      vertex 20 15 2
    endloop
  endfacet
  facet normal 0 1 0
    outer loop
      vertex -20 15 2
      vertex 20 15 -8
      vertex -20 15 -8
    endloop
  endfacet
  facet normal 0 0 -1
    outer loop
      vertex 20 -15 -8
      vertex 6.2 0 -8
      vertex 20 15 -8
    endloop
  endfacet
  facet normal 0 0 -1
    outer loop
      vertex 20 -15 -8
      vertex 5.89655 -1.9159 -8
      vertex 6.2 0 -8
    endloop
  endfacet
  facet normal 0 0 -1
    outer loop
      vertex 20 -15 -8
      vertex 5.0159 -3.64427 -8
      vertex 5.89655 -1.9159 -8
    endloop
  endfacet
  facet normal 0 0 -1
    outer loop
      vertex 20 -15 -8
      vertex 3.64427 -5.0159 -8
      vertex 5.0159 -3.64427 -8
    endloop
  endfacet
  facet normal 0 0 -1
    outer loop
      vertex 20 -15 -8
      vertex 1.9159 -5.89655 -8
      vertex 3.64427 -5.0159 -8
    endloop
  endfacet
  facet normal 0 0 -1
    outer loop
      vertex 20 -15 -8
      vertex 0 -6.2 -8
      vertex 1.9159 -5.89655 -8
    endloop
  endfacet
  facet normal 0 0 -1
    outer loop
      vertex -20 -15 -8
      vertex 0 -6.2 -8
      vertex 20 -15 -8
    endloop
  endfacet
  facet normal -0 0 -1
    outer loop
      vertex -5.89655 -1.9159 -8
      vertex -20 -15 -8
      vertex -6.2 0 -8
    endloop
  endfacet
  facet normal -0 0 -1
    outer loop
      vertex -5.0159 -3.64427 -8
      vertex -20 -15 -8
      vertex -5.89655 -1.9159 -8
    endloop
  endfacet
  facet normal -0 0 -1
    outer loop
      vertex -3.64427 -5.0159 -8
      vertex -20 -15 -8
      vertex -5.0159 -3.64427 -8
    endloop
  endfacet
  facet normal -0 0 -1
    outer loop
      vertex -1.9159 -5.89655 -8
      vertex -20 -15 -8
      vertex -3.64427 -5.0159 -8
    endloop
  endfacet
  facet normal -0 0 -1
    outer loop
      vertex 0 -6.2 -8
      vertex -20 -15 -8
      vertex -1.9159 -5.89655 -8
    endloop
  endfacet
  facet normal 0 0 -1
    outer loop
      vertex 5.89655 1.9159 -8
      vertex 20 15 -8
      vertex 6.2 0 -8
    endloop
  endfacet
  facet normal 0 0 -1
    outer loop
      vertex 5.0159 3.64427 -8
      vertex 20 15 -8
      vertex 5.89655 1.9159 -8
    endloop
  endfacet
  facet normal 0 0 -1
    outer loop
      vertex 3.64427 5.0159 -8
      vertex 20 15 -8
      vertex 5.0159 3.64427 -8
    endloop
  endfacet
  facet normal 0 0 -1
    outer loop
      vertex 1.9159 5.89655 -8
      vertex 20 15 -8
      vertex 3.64427 5.0159 -8
    endloop
  endfacet
  facet normal 0 0 -1
    outer loop
      vertex 0 6.2 -8
      vertex 20 15 -8
      vertex 1.9159 5.89655 -8
    endloop
  endfacet
  facet normal 0 0 -1
    outer loop
      vertex -20 15 -8
      vertex 0 6.2 -8
      vertex -1.9159 5.89655 -8
    endloop
  endfacet
  facet normal 0 0 -1
    outer loop
      vertex -20 15 -8
      vertex -6.2 0 -8
      vertex -20 -15 -8
    endloop
  endfacet
  facet normal 0 0 -1
    outer loop
      vertex -6.2 0 -8
      vertex -20 15 -8
      vertex -5.89655 1.9159 -8
    endloop
  endfacet
  facet normal 0 0 -1
    outer loop
      vertex 0 6.2 -8
      vertex -20 15 -8
      vertex 20 15 -8
    endloop
  endfacet
  facet normal 0 0 -1
    outer loop
      vertex -3.64427 5.0159 -8
      vertex -20 15 -8
      vertex -1.9159 5.89655 -8
    endloop
  endfacet
  facet normal 0 0 -1
    outer loop
      vertex -5.0159 3.64427 -8
      vertex -20 15 -8
      vertex -3.64427 5.0159 -8
    endloop
  endfacet
  facet normal 0 0 -1
    outer loop
      vertex -5.89655 1.9159 -8
      vertex -20 15 -8
      vertex -5.0159 3.64427 -8
    endloop
  endfacet
  facet normal 0 -1 0
    outer loop
      vertex -20 -15 -8
      vertex 20 -15 2
      vertex -20 -15 2
    endloop
  endfacet
  facet normal 0 -1 -0
    outer loop
      vertex 20 -15 2
      vertex -20 -15 -8
      vertex 20 -15 -8
    endloop
  endfacet
  facet normal 0 0 1
    outer loop
      vertex 20 15 2
      vertex 18.3 3.4635 2
      vertex 20 -15 2
    endloop
  endfacet
  facet normal -0 0 1
    outer loop
      vertex 10 4.8 2
      vertex 18.3 3.4635 2
      vertex 20 15 2
    endloop
  endfacet
  facet normal 0 0 1
    outer loop
      vertex 10.1 3.4635 2
      vertex 10 4.8 2
      vertex 10.1 -3.4635 2
    endloop
  endfacet
  facet normal 0 0 1
    outer loop
      vertex 18.3 3.4635 2
      vertex 10 4.8 2
      vertex 10.1 3.4635 2
    endloop
  endfacet
  facet normal -0 0 1
    outer loop
      vertex 1.9159 5.89655 2
      vertex 10 4.8 2
      vertex 20 15 2
    endloop
  endfacet
  facet normal 0 0 1
    outer loop
      vertex 10 4.8 2
      vertex 3.64427 5.0159 2
      vertex 3.86017 4.8 2
    endloop
  endfacet
  facet normal 0 0 1
    outer loop
      vertex 10 4.8 2
      vertex 1.9159 5.89655 2
      vertex 3.64427 5.0159 2
    endloop
  endfacet
  facet normal 0 0 1
    outer loop
      vertex 20 15 2
      vertex 0 6.2 2
      vertex 1.9159 5.89655 2
    endloop
  endfacet
  facet normal -0 0 1
    outer loop
      vertex -20 15 2
      vertex 0 6.2 2
      vertex 20 15 2
    endloop
  endfacet
  facet normal 0 0 1
    outer loop
      vertex -3.64427 5.0159 2
      vertex -10 4.8 2
      vertex -3.86017 4.8 2
    endloop
  endfacet
  facet normal 0 0 1
    outer loop
      vertex -1.9159 5.89655 2
      vertex -10 4.8 2
      vertex -3.64427 5.0159 2
    endloop
  endfacet
  facet normal 0 0 1
    outer loop
      vertex 0 6.2 2
      vertex -20 15 2
      vertex -1.9159 5.89655 2
    endloop
  endfacet
  facet normal 0 0 1
    outer loop
      vertex -10 4.8 2
      vertex -20 15 2
      vertex -10 -4.8 2
    endloop
  endfacet
  facet normal 0 0 1
    outer loop
      vertex -1.9159 5.89655 2
      vertex -20 15 2
      vertex -10 4.8 2
    endloop
  endfacet
  facet normal -0 0 1
    outer loop
      vertex 18.3 -3.4635 2
      vertex 20 -15 2
      vertex 18.3 3.4635 2
    endloop
  endfacet
  facet normal 0 0 1
    outer loop
      vertex 10 -4.8 2
      vertex 18.3 -3.4635 2
      vertex 10.1 -3.4635 2
    endloop
  endfacet
  facet normal 0 0 1
    outer loop
      vertex 10 -4.8 2
      vertex 10.1 -3.4635 2
      vertex 10 4.8 2
    endloop
  endfacet
  facet normal 0 0 1
    outer loop
      vertex 18.3 -3.4635 2
      vertex 10 -4.8 2
      vertex 20 -15 2
    endloop
  endfacet
  facet normal 0 0 1
    outer loop
      vertex 3.64427 -5.0159 2
      vertex 10 -4.8 2
      vertex 3.86017 -4.8 2
    endloop
  endfacet
  facet normal 0 0 1
    outer loop
      vertex 1.9159 -5.89655 2
      vertex 10 -4.8 2
      vertex 3.64427 -5.0159 2
    endloop
  endfacet
  facet normal 0 0 1
    outer loop
      vertex 10 -4.8 2
      vertex 1.9159 -5.89655 2
      vertex 20 -15 2
    endloop
  endfacet
  facet normal -0 0 1
    outer loop
      vertex 0 -6.2 2
      vertex 20 -15 2
      vertex 1.9159 -5.89655 2
    endloop
  endfacet
  facet normal 0 0 1
    outer loop
      vertex -20 -15 2
      vertex 0 -6.2 2
      vertex -1.9159 -5.89655 2
    endloop
  endfacet
  facet normal -0 0 1
    outer loop
      vertex -10 -4.8 2
      vertex -3.64427 -5.0159 2
      vertex -3.86017 -4.8 2
    endloop
  endfacet
  facet normal 0 0 1
    outer loop
      vertex -10 -4.8 2
      vertex -1.9159 -5.89655 2
      vertex -3.64427 -5.0159 2
    endloop
  endfacet
  facet normal 0 0 1
    outer loop
      vertex -20 -15 2
      vertex -1.9159 -5.89655 2
      vertex -10 -4.8 2
    endloop
  endfacet
  facet normal 0 0 1
    outer loop
      vertex 0 -6.2 2
      vertex -20 -15 2
      vertex 20 -15 2
    endloop
  endfacet
  facet normal 0 0 1
    outer loop
      vertex -20 -15 2
      vertex -10 -4.8 2
      vertex -20 15 2
    endloop
  endfacet
  facet normal -1 0 0
    outer loop
      vertex -10 4.8 2
      vertex -10 0 8
      vertex -10 4.8 8
    endloop
  endfacet
  facet normal -1 0 0
    outer loop
      vertex -10 -4.8 2
      vertex -10 0 8
      vertex -10 4.8 2
    endloop
  endfacet
  facet normal -1 -0 0
    outer loop
      vertex -10 0 8
      vertex -10 -4.8 2
      vertex -10 -4.8 8
    endloop
  endfacet
  facet normal 1 0 0
    outer loop
      vertex 10 4.8 8
      vertex 10 1.94986 5.44504
      vertex 10 4.8 2
    endloop
  endfacet
  facet normal 1 0 0
    outer loop
      vertex 10 4.8 8
      vertex 10 0.867767 6.80194
      vertex 10 1.94986 5.44504
    endloop
  endfacet
  facet normal 1 -0 0
    outer loop
      vertex 10 0 8
      vertex 10 0.867767 6.80194
      vertex 10 4.8 8
    endloop
  endfacet
  facet normal 1 0 0
    outer loop
      vertex 10 0 8
      vertex 10 -0.867767 6.80194
      vertex 10 0.867767 6.80194
    endloop
  endfacet
  facet normal 1 -0 0
    outer loop
      vertex 10 -4.8 8
      vertex 10 -0.867767 6.80194
      vertex 10 0 8
    endloop
  endfacet
  facet normal 1 0 0
    outer loop
      vertex 10 -0.867767 6.80194
      vertex 10 -4.8 8
      vertex 10 -1.94986 5.44504
    endloop
  endfacet
  facet normal 1 -0 0
    outer loop
      vertex 10 1.56366 3.75302
      vertex 10 4.8 2
      vertex 10 1.94986 5.44504
    endloop
  endfacet
  facet normal 1 -0 0
    outer loop
      vertex 10 0 3
      vertex 10 4.8 2
      vertex 10 1.56366 3.75302
    endloop
  endfacet
  facet normal 1 0 0
    outer loop
      vertex 10 -4.8 2
      vertex 10 -1.94986 5.44504
      vertex 10 -4.8 8
    endloop
  endfacet
  facet normal 1 0 0
    outer loop
      vertex 10 0 3
      vertex 10 -4.8 2
      vertex 10 4.8 2
    endloop
  endfacet
  facet normal 1 0 0
    outer loop
      vertex 10 -1.56366 3.75302
      vertex 10 -4.8 2
      vertex 10 0 3
    endloop
  endfacet
  facet normal 1 0 0
    outer loop
      vertex 10 -1.94986 5.44504
      vertex 10 -4.8 2
      vertex 10 -1.56366 3.75302
    endloop
  endfacet
  facet normal 0 1 -0
    outer loop
      vertex 10 4.8 2
      vertex 6 4.8 8
      vertex 10 4.8 8
    endloop
  endfacet
  facet normal 0 1 0
    outer loop
      vertex 6 4.8 8
      vertex 3.86017 4.8 5
      vertex 2 4.8 8
    endloop
  endfacet
  facet normal 0 1 0
    outer loop
      vertex 2 4.8 8
      vertex 3.86017 4.8 5
      vertex -2 4.8 8
    endloop
  endfacet
  facet normal 0 1 0
    outer loop
      vertex -3.86017 4.8 5
      vertex -2 4.8 8
      vertex 3.86017 4.8 5
    endloop
  endfacet
  facet normal 0 1 0
    outer loop
      vertex -2 4.8 8
      vertex -3.86017 4.8 5
      vertex -6 4.8 8
    endloop
  endfacet
  facet normal 0 1 0
    outer loop
      vertex 6 4.8 8
      vertex 10 4.8 2
      vertex 3.86017 4.8 5
    endloop
  endfacet
  facet normal 0 1 0
    outer loop
      vertex 3.86017 4.8 5
      vertex 10 4.8 2
      vertex 3.86017 4.8 2
    endloop
  endfacet
  facet normal 0 1 0
    outer loop
      vertex -10 4.8 2
      vertex -6 4.8 8
      vertex -3.86017 4.8 5
    endloop
  endfacet
  facet normal 0 1 0
    outer loop
      vertex -10 4.8 2
      vertex -3.86017 4.8 5
      vertex -3.86017 4.8 2
    endloop
  endfacet
  facet normal 0 1 0
    outer loop
      vertex -6 4.8 8
      vertex -10 4.8 2
      vertex -10 4.8 8
    endloop
  endfacet
  facet normal 0 -1 0
    outer loop
      vertex -10 -4.8 2
      vertex -6 -4.8 8
      vertex -10 -4.8 8
    endloop
  endfacet
  facet normal 0 -1 0
    outer loop
      vertex -6 -4.8 8
      vertex -3.86017 -4.8 5
      vertex -2 -4.8 8
    endloop
  endfacet
  facet normal 0 -1 -0
    outer loop
      vertex -2 -4.8 8
      vertex -3.86017 -4.8 5
      vertex 2 -4.8 8
    endloop
  endfacet
  facet normal 0 -1 0
    outer loop
      vertex 3.86017 -4.8 5
      vertex 2 -4.8 8
      vertex -3.86017 -4.8 5
    endloop
  endfacet
  facet normal 0 -1 0
    outer loop
      vertex 2 -4.8 8
      vertex 3.86017 -4.8 5
      vertex 6 -4.8 8
    endloop
  endfacet
  facet normal 0 -1 -0
    outer loop
      vertex -6 -4.8 8
      vertex -10 -4.8 2
      vertex -3.86017 -4.8 5
    endloop
  endfacet
  facet normal 0 -1 -0
    outer loop
      vertex -3.86017 -4.8 5
      vertex -10 -4.8 2
      vertex -3.86017 -4.8 2
    endloop
  endfacet
  facet normal 0 -1 0
    outer loop
      vertex 10 -4.8 2
      vertex 6 -4.8 8
      vertex 3.86017 -4.8 5
    endloop
  endfacet
  facet normal 0 -1 0
    outer loop
      vertex 10 -4.8 2
      vertex 3.86017 -4.8 5
      vertex 3.86017 -4.8 2
    endloop
  endfacet
  facet normal 0 -1 0
    outer loop
      vertex 6 -4.8 8
      vertex 10 -4.8 2
      vertex 10 -4.8 8
    endloop
  endfacet
  facet normal 0 -0.207912 0.978148
    outer loop
      vertex 10.1 1.87099 0.79769
      vertex 18.3 0 0.4
      vertex 18.3 1.87099 0.79769
    endloop
  endfacet
  facet normal 0 -0.207912 0.978148
    outer loop
      vertex 18.3 0 0.4
      vertex 10.1 1.87099 0.79769
      vertex 10.1 0 0.4
    endloop
  endfacet
  facet normal 0 -0.587785 0.809017
    outer loop
      vertex 10.1 3.41847 1.922
      vertex 18.3 1.87099 0.79769
      vertex 18.3 3.41847 1.922
    endloop
  endfacet
  facet normal 0 -0.587785 0.809017
    outer loop
      vertex 18.3 1.87099 0.79769
      vertex 10.1 3.41847 1.922
      vertex 10.1 1.87099 0.79769
    endloop
  endfacet
  facet normal 0 -0.866025 0.5
    outer loop
      vertex 10.1 3.41847 1.922
      vertex 18.3 3.4635 2
      vertex 10.1 3.4635 2
    endloop
  endfacet
  facet normal 0 -0.866025 0.5
    outer loop
      vertex 18.3 3.4635 2
      vertex 10.1 3.41847 1.922
      vertex 18.3 3.41847 1.922
    endloop
  endfacet
  facet normal 0 0.866025 0.5
    outer loop
      vertex 18.3 -3.41847 1.922
      vertex 10.1 -3.4635 2
      vertex 18.3 -3.4635 2
    endloop
  endfacet
  facet normal 0 0.866025 0.5
    outer loop
      vertex 10.1 -3.4635 2
      vertex 18.3 -3.41847 1.922
      vertex 10.1 -3.41847 1.922
    endloop
  endfacet
  facet normal -0 0.587785 0.809017
    outer loop
      vertex 10.1 -1.87099 0.79769
      vertex 18.3 -3.41847 1.922
      vertex 18.3 -1.87099 0.79769
    endloop
  endfacet
  facet normal 0 0.587785 0.809017
    outer loop
      vertex 18.3 -3.41847 1.922
      vertex 10.1 -1.87099 0.79769
      vertex 10.1 -3.41847 1.922
    endloop
  endfacet
  facet normal -0 0.207912 0.978148
    outer loop
      vertex 10.1 0 0.4
      vertex 18.3 -1.87099 0.79769
      vertex 18.3 0 0.4
    endloop
  endfacet
  facet normal 0 0.207912 0.978148
    outer loop
      vertex 18.3 -1.87099 0.79769
      vertex 10.1 0 0.4
      vertex 10.1 -1.87099 0.79769
    endloop
  endfacet
  facet normal 1 0 0
    outer loop
      vertex 10.1 3.4635 2
      vertex 10.1 1.87099 0.79769
      vertex 10.1 3.41847 1.922
    endloop
  endfacet
  facet normal 1 0 0
    outer loop
      vertex 10.1 3.4635 2
      vertex 10.1 0 0.4
      vertex 10.1 1.87099 0.79769
    endloop
  endfacet
  facet normal 1 0 0
    outer loop
      vertex 10.1 3.4635 2
      vertex 10.1 -1.87099 0.79769
      vertex 10.1 0 0.4
    endloop
  endfacet
  facet normal 1 -0 0
    outer loop
      vertex 10.1 -3.4635 2
      vertex 10.1 -1.87099 0.79769
      vertex 10.1 3.4635 2
    endloop
  endfacet
  facet normal 1 0 0
    outer loop
      vertex 10.1 -1.87099 0.79769
      vertex 10.1 -3.4635 2
      vertex 10.1 -3.41847 1.922
    endloop
  endfacet
  facet normal -1 0 0
    outer loop
      vertex 18.3 1.87099 0.79769
      vertex 18.3 3.4635 2
      vertex 18.3 3.41847 1.922
    endloop
  endfacet
  facet normal -1 0 0
    outer loop
      vertex 18.3 0 0.4
      vertex 18.3 3.4635 2
      vertex 18.3 1.87099 0.79769
    endloop
  endfacet
  facet normal -1 0 0
    outer loop
      vertex 18.3 -1.87099 0.79769
      vertex 18.3 3.4635 2
      vertex 18.3 0 0.4
    endloop
  endfacet
  facet normal -1 0 0
    outer loop
      vertex 18.3 -3.4635 2
      vertex 18.3 -1.87099 0.79769
      vertex 18.3 -3.41847 1.922
    endloop
  endfacet
  facet normal -1 0 0
    outer loop
      vertex 18.3 -1.87099 0.79769
      vertex 18.3 -3.4635 2
      vertex 18.3 3.4635 2
    endloop
  endfacet
  facet normal -0.939693 -0.34202 0
    outer loop
      vertex 2.8 0 5
      vertex 2.14492 1.7998 8.14492
      vertex 2.14492 1.7998 5
    endloop
  endfacet
  facet normal -0.939693 -0.34202 0
    outer loop
      vertex 2.14492 1.7998 8.14492
      vertex 2.8 0 5
      vertex 2.8 0 8.8
    endloop
  endfacet
  facet normal 1 -0 0
    outer loop
      vertex -2.63114 -0.957656 8.63114
      vertex -2.63114 0.957656 5
      vertex -2.63114 0.957656 8.63114
    endloop
  endfacet
  facet normal 1 0 0
    outer loop
      vertex -2.63114 0.957656 5
      vertex -2.63114 -0.957656 8.63114
      vertex -2.63114 -0.957656 5
    endloop
  endfacet
  facet normal 0.173648 -0.984808 -3.43767e-08
    outer loop
      vertex -1.4 2.42487 8.6
      vertex 0.486215 2.75746 9.51379
      vertex 0 2.67173 10
    endloop
  endfacet
  facet normal 0.173648 -0.984808 0
    outer loop
      vertex 0.486215 2.75746 5
      vertex -1.4 2.42487 8.6
      vertex -1.4 2.42487 5
    endloop
  endfacet
  facet normal 0.173648 -0.984808 0
    outer loop
      vertex -1.4 2.42487 8.6
      vertex 0.486215 2.75746 5
      vertex 0.486215 2.75746 9.51379
    endloop
  endfacet
  facet normal -0.5 -0.866025 -0
    outer loop
      vertex 0.486215 2.75746 9.51379
      vertex 0.486215 2.75746 5
      vertex 2 1.88348 8
    endloop
  endfacet
  facet normal -0.5 -0.866025 2.00309e-10
    outer loop
      vertex 2.14492 1.7998 5
      vertex 2 1.88348 8
      vertex 0.486215 2.75746 5
    endloop
  endfacet
  facet normal -0.5 -0.866025 0
    outer loop
      vertex 2 1.88348 8
      vertex 2.14492 1.7998 5
      vertex 2.14492 1.7998 8.14492
    endloop
  endfacet
  facet normal 0 -0 -1
    outer loop
      vertex 0 1.22465e-16 10
      vertex 1.63596e-16 -2.67173 10
      vertex -1.63596e-16 -2.67173 10
    endloop
  endfacet
  facet normal 0.766044 -0.642788 0
    outer loop
      vertex -2 1.70982 8
      vertex -1.4 2.42487 5
      vertex -1.4 2.42487 8.6
    endloop
  endfacet
  facet normal 0.766044 -0.642788 0
    outer loop
      vertex -2.63114 0.957656 5
      vertex -2 1.70982 8
      vertex -2.63114 0.957656 8.63114
    endloop
  endfacet
  facet normal 0.766044 -0.642788 5.3524e-09
    outer loop
      vertex -2 1.70982 8
      vertex -2.63114 0.957656 5
      vertex -1.4 2.42487 5
    endloop
  endfacet
  facet normal -0.5 0.866025 0
    outer loop
      vertex 2.14492 -1.7998 8.14492
      vertex 2.14492 -1.7998 5
      vertex 2 -1.88348 8
    endloop
  endfacet
  facet normal -0.5 0.866025 2.00309e-10
    outer loop
      vertex 0.486215 -2.75746 5
      vertex 2 -1.88348 8
      vertex 2.14492 -1.7998 5
    endloop
  endfacet
  facet normal -0.5 0.866025 0
    outer loop
      vertex 2 -1.88348 8
      vertex 0.486215 -2.75746 5
      vertex 0.486215 -2.75746 9.51379
    endloop
  endfacet
  facet normal 0.766044 0.642788 0
    outer loop
      vertex -2 -1.70982 8
      vertex -2.63114 -0.957656 5
      vertex -2.63114 -0.957656 8.63114
    endloop
  endfacet
  facet normal 0.766044 0.642788 -0
    outer loop
      vertex -1.4 -2.42487 5
      vertex -2 -1.70982 8
      vertex -1.4 -2.42487 8.6
    endloop
  endfacet
  facet normal 0.766044 0.642788 5.3524e-09
    outer loop
      vertex -2 -1.70982 8
      vertex -1.4 -2.42487 5
      vertex -2.63114 -0.957656 5
    endloop
  endfacet
  facet normal -0.939693 0.34202 0
    outer loop
      vertex 2.14492 -1.7998 8.14492
      vertex 2.8 0 5
      vertex 2.14492 -1.7998 5
    endloop
  endfacet
  facet normal -0.939693 0.34202 0
    outer loop
      vertex 2.8 0 5
      vertex 2.14492 -1.7998 8.14492
      vertex 2.8 0 8.8
    endloop
  endfacet
  facet normal 0 0.986394 -0.164399
    outer loop
      vertex 0.486215 -2.75746 9.51379
      vertex -1.63596e-16 -2.67173 10
      vertex 1.63596e-16 -2.67173 10
    endloop
  endfacet
  facet normal 0.173648 0.984808 -3.43767e-08
    outer loop
      vertex 0.486215 -2.75746 9.51379
      vertex -1.4 -2.42487 8.6
      vertex -1.63596e-16 -2.67173 10
    endloop
  endfacet
  facet normal 0.173648 0.984808 -0
    outer loop
      vertex 0.486215 -2.75746 5
      vertex -1.4 -2.42487 8.6
      vertex 0.486215 -2.75746 9.51379
    endloop
  endfacet
  facet normal 0.173648 0.984808 0
    outer loop
      vertex -1.4 -2.42487 8.6
      vertex 0.486215 -2.75746 5
      vertex -1.4 -2.42487 5
    endloop
  endfacet
  facet normal -0.987688 -0.156435 0
    outer loop
      vertex 6.2 0 -8
      vertex 5.89655 1.9159 -5.5
      vertex 5.89655 1.9159 -8
    endloop
  endfacet
  facet normal -0.987688 -0.156435 0
    outer loop
      vertex 5.89655 1.9159 -5.5
      vertex 6.2 0 -8
      vertex 6.2 0 -5.5
    endloop
  endfacet
  facet normal -0.987688 -0.156435 0
    outer loop
      vertex 6.2 0 -0.5
      vertex 5.89655 1.9159 5
      vertex 5.89655 1.9159 -0.5
    endloop
  endfacet
  facet normal -0.987688 -0.156435 0
    outer loop
      vertex 5.89655 1.9159 5
      vertex 6.2 0 -0.5
      vertex 6.2 0 5
    endloop
  endfacet
  facet normal 0.987688 -0.156435 0
    outer loop
      vertex -6.2 0 -5.5
      vertex -5.89655 1.9159 -8
      vertex -5.89655 1.9159 -5.5
    endloop
  endfacet
  facet normal 0.987688 -0.156435 0
    outer loop
      vertex -5.89655 1.9159 -8
      vertex -6.2 0 -5.5
      vertex -6.2 0 -8
    endloop
  endfacet
  facet normal 0.987688 -0.156435 0
    outer loop
      vertex -6.2 0 5
      vertex -5.89655 1.9159 -0.5
      vertex -5.89655 1.9159 5
    endloop
  endfacet
  facet normal 0.987688 -0.156435 0
    outer loop
      vertex -5.89655 1.9159 -0.5
      vertex -6.2 0 5
      vertex -6.2 0 -0.5
    endloop
  endfacet
  facet normal -0.156435 -0.987688 0
    outer loop
      vertex 0 6.2 -8
      vertex 1.9159 5.89655 -5.5
      vertex 0 6.2 -5.5
    endloop
  endfacet
  facet normal -0.156435 -0.987688 -0
    outer loop
      vertex 1.9159 5.89655 -5.5
      vertex 0 6.2 -8
      vertex 1.9159 5.89655 -8
    endloop
  endfacet
  facet normal -0.156435 -0.987688 0
    outer loop
      vertex 0 6.2 -0.5
      vertex 1.9159 5.89655 2
      vertex 0 6.2 2
    endloop
  endfacet
  facet normal -0.156435 -0.987688 -0
    outer loop
      vertex 1.9159 5.89655 2
      vertex 0 6.2 -0.5
      vertex 1.9159 5.89655 -0.5
    endloop
  endfacet
  facet normal 0.156435 0.987688 -0
    outer loop
      vertex 0 -6.2 -8
      vertex -1.9159 -5.89655 -5.5
      vertex 0 -6.2 -5.5
    endloop
  endfacet
  facet normal 0.156435 0.987688 0
    outer loop
      vertex -1.9159 -5.89655 -5.5
      vertex 0 -6.2 -8
      vertex -1.9159 -5.89655 -8
    endloop
  endfacet
  facet normal 0.156435 0.987688 -0
    outer loop
      vertex 0 -6.2 -0.5
      vertex -1.9159 -5.89655 2
      vertex 0 -6.2 2
    endloop
  endfacet
  facet normal 0.156435 0.987688 0
    outer loop
      vertex -1.9159 -5.89655 2
      vertex 0 -6.2 -0.5
      vertex -1.9159 -5.89655 -0.5
    endloop
  endfacet
  facet normal -0.707107 -0.707107 0
    outer loop
      vertex 3.64427 5.0159 -0.5
      vertex 3.86017 4.8 2
      vertex 3.64427 5.0159 2
    endloop
  endfacet
  facet normal -0.707107 -0.707107 0
    outer loop
      vertex 5.0159 3.64427 -0.5
      vertex 3.86017 4.8 2
      vertex 3.64427 5.0159 -0.5
    endloop
  endfacet
  facet normal -0.707107 -0.707107 -0
    outer loop
      vertex 5.0159 3.64427 5
      vertex 3.86017 4.8 2
      vertex 5.0159 3.64427 -0.5
    endloop
  endfacet
  facet normal -0.707107 -0.707107 0
    outer loop
      vertex 3.86017 4.8 2
      vertex 5.0159 3.64427 5
      vertex 3.86017 4.8 5
    endloop
  endfacet
  facet normal -0.707107 -0.707107 0
    outer loop
      vertex 5.0159 3.64427 -8
      vertex 3.64427 5.0159 -5.5
      vertex 3.64427 5.0159 -8
    endloop
  endfacet
  facet normal -0.707107 -0.707107 0
    outer loop
      vertex 3.64427 5.0159 -5.5
      vertex 5.0159 3.64427 -8
      vertex 5.0159 3.64427 -5.5
    endloop
  endfacet
  facet normal -0.891006 -0.453991 0
    outer loop
      vertex 5.89655 1.9159 -8
      vertex 5.0159 3.64427 -5.5
      vertex 5.0159 3.64427 -8
    endloop
  endfacet
  facet normal -0.891006 -0.453991 0
    outer loop
      vertex 5.0159 3.64427 -5.5
      vertex 5.89655 1.9159 -8
      vertex 5.89655 1.9159 -5.5
    endloop
  endfacet
  facet normal -0.891006 -0.453991 0
    outer loop
      vertex 5.89655 1.9159 -0.5
      vertex 5.0159 3.64427 5
      vertex 5.0159 3.64427 -0.5
    endloop
  endfacet
  facet normal -0.891006 -0.453991 0
    outer loop
      vertex 5.0159 3.64427 5
      vertex 5.89655 1.9159 -0.5
      vertex 5.89655 1.9159 5
    endloop
  endfacet
  facet normal -0.453991 -0.891006 0
    outer loop
      vertex 1.9159 5.89655 -8
      vertex 3.64427 5.0159 -5.5
      vertex 1.9159 5.89655 -5.5
    endloop
  endfacet
  facet normal -0.453991 -0.891006 -0
    outer loop
      vertex 3.64427 5.0159 -5.5
      vertex 1.9159 5.89655 -8
      vertex 3.64427 5.0159 -8
    endloop
  endfacet
  facet normal -0.453991 -0.891006 0
    outer loop
      vertex 1.9159 5.89655 -0.5
      vertex 3.64427 5.0159 2
      vertex 1.9159 5.89655 2
    endloop
  endfacet
  facet normal -0.453991 -0.891006 -0
    outer loop
      vertex 3.64427 5.0159 2
      vertex 1.9159 5.89655 -0.5
      vertex 3.64427 5.0159 -0.5
    endloop
  endfacet
  facet normal 0.453991 -0.891006 0
    outer loop
      vertex -3.64427 5.0159 -8
      vertex -1.9159 5.89655 -5.5
      vertex -3.64427 5.0159 -5.5
    endloop
  endfacet
  facet normal 0.453991 -0.891006 0
    outer loop
      vertex -1.9159 5.89655 -5.5
      vertex -3.64427 5.0159 -8
      vertex -1.9159 5.89655 -8
    endloop
  endfacet
  facet normal 0.453991 -0.891006 0
    outer loop
      vertex -3.64427 5.0159 -0.5
      vertex -1.9159 5.89655 2
      vertex -3.64427 5.0159 2
    endloop
  endfacet
  facet normal 0.453991 -0.891006 0
    outer loop
      vertex -1.9159 5.89655 2
      vertex -3.64427 5.0159 -0.5
      vertex -1.9159 5.89655 -0.5
    endloop
  endfacet
  facet normal 0 0 -1
    outer loop
      vertex 2.8 0 5
      vertex 6.2 0 5
      vertex 5.89655 -1.9159 5
    endloop
  endfacet
  facet normal 0 0 -1
    outer loop
      vertex 2.14492 -1.7998 5
      vertex 5.89655 -1.9159 5
      vertex 5.0159 -3.64427 5
    endloop
  endfacet
  facet normal 0 0 -1
    outer loop
      vertex 6.2 0 5
      vertex 2.8 0 5
      vertex 5.89655 1.9159 5
    endloop
  endfacet
  facet normal 0 0 -1
    outer loop
      vertex 2.14492 -1.7998 5
      vertex 5.0159 -3.64427 5
      vertex 3.86017 -4.8 5
    endloop
  endfacet
  facet normal 0 0 -1
    outer loop
      vertex 2.14492 1.7998 5
      vertex 5.89655 1.9159 5
      vertex 2.8 0 5
    endloop
  endfacet
  facet normal -0 0 -1
    outer loop
      vertex 5.89655 1.9159 5
      vertex 2.14492 1.7998 5
      vertex 5.0159 3.64427 5
    endloop
  endfacet
  facet normal 0 0 -1
    outer loop
      vertex 5.89655 -1.9159 5
      vertex 2.14492 -1.7998 5
      vertex 2.8 0 5
    endloop
  endfacet
  facet normal 0 0 -1
    outer loop
      vertex 3.86017 -4.8 5
      vertex 0.486215 -2.75746 5
      vertex 2.14492 -1.7998 5
    endloop
  endfacet
  facet normal 0 0 -1
    outer loop
      vertex -3.86017 -4.8 5
      vertex 0.486215 -2.75746 5
      vertex 3.86017 -4.8 5
    endloop
  endfacet
  facet normal -0 0 -1
    outer loop
      vertex -1.4 -2.42487 5
      vertex -5.0159 -3.64427 5
      vertex -2.63114 -0.957656 5
    endloop
  endfacet
  facet normal 0 0 -1
    outer loop
      vertex -5.0159 -3.64427 5
      vertex -1.4 -2.42487 5
      vertex -3.86017 -4.8 5
    endloop
  endfacet
  facet normal -0 0 -1
    outer loop
      vertex 0.486215 -2.75746 5
      vertex -3.86017 -4.8 5
      vertex -1.4 -2.42487 5
    endloop
  endfacet
  facet normal -0 0 -1
    outer loop
      vertex 5.0159 3.64427 5
      vertex 2.14492 1.7998 5
      vertex 3.86017 4.8 5
    endloop
  endfacet
  facet normal 0 0 -1
    outer loop
      vertex 0.486215 2.75746 5
      vertex 3.86017 4.8 5
      vertex 2.14492 1.7998 5
    endloop
  endfacet
  facet normal 0 0 -1
    outer loop
      vertex -3.86017 4.8 5
      vertex 0.486215 2.75746 5
      vertex -1.4 2.42487 5
    endloop
  endfacet
  facet normal 0 0 -1
    outer loop
      vertex 0.486215 2.75746 5
      vertex -3.86017 4.8 5
      vertex 3.86017 4.8 5
    endloop
  endfacet
  facet normal 0 0 -1
    outer loop
      vertex -5.0159 3.64427 5
      vertex -1.4 2.42487 5
      vertex -2.63114 0.957656 5
    endloop
  endfacet
  facet normal 0 0 -1
    outer loop
      vertex -5.89655 -1.9159 5
      vertex -2.63114 -0.957656 5
      vertex -5.0159 -3.64427 5
    endloop
  endfacet
  facet normal 0 0 -1
    outer loop
      vertex -6.2 0 5
      vertex -2.63114 -0.957656 5
      vertex -5.89655 -1.9159 5
    endloop
  endfacet
  facet normal 0 0 -1
    outer loop
      vertex -2.63114 -0.957656 5
      vertex -6.2 0 5
      vertex -2.63114 0.957656 5
    endloop
  endfacet
  facet normal 0 -0 -1
    outer loop
      vertex -5.0159 3.64427 5
      vertex -2.63114 0.957656 5
      vertex -5.89655 1.9159 5
    endloop
  endfacet
  facet normal 0 0 -1
    outer loop
      vertex -1.4 2.42487 5
      vertex -5.0159 3.64427 5
      vertex -3.86017 4.8 5
    endloop
  endfacet
  facet normal -0 0 -1
    outer loop
      vertex -2.63114 0.957656 5
      vertex -6.2 0 5
      vertex -5.89655 1.9159 5
    endloop
  endfacet
  facet normal 0.156435 -0.987688 0
    outer loop
      vertex -1.9159 5.89655 -8
      vertex 0 6.2 -5.5
      vertex -1.9159 5.89655 -5.5
    endloop
  endfacet
  facet normal 0.156435 -0.987688 0
    outer loop
      vertex 0 6.2 -5.5
      vertex -1.9159 5.89655 -8
      vertex 0 6.2 -8
    endloop
  endfacet
  facet normal 0.156435 -0.987688 0
    outer loop
      vertex -1.9159 5.89655 -0.5
      vertex 0 6.2 2
      vertex -1.9159 5.89655 2
    endloop
  endfacet
  facet normal 0.156435 -0.987688 0
    outer loop
      vertex 0 6.2 2
      vertex -1.9159 5.89655 -0.5
      vertex 0 6.2 -0.5
    endloop
  endfacet
  facet normal -0.891006 0.453991 0
    outer loop
      vertex 5.0159 -3.64427 -8
      vertex 5.89655 -1.9159 -5.5
      vertex 5.89655 -1.9159 -8
    endloop
  endfacet
  facet normal -0.891006 0.453991 0
    outer loop
      vertex 5.89655 -1.9159 -5.5
      vertex 5.0159 -3.64427 -8
      vertex 5.0159 -3.64427 -5.5
    endloop
  endfacet
  facet normal -0.891006 0.453991 0
    outer loop
      vertex 5.0159 -3.64427 -0.5
      vertex 5.89655 -1.9159 5
      vertex 5.89655 -1.9159 -0.5
    endloop
  endfacet
  facet normal -0.891006 0.453991 0
    outer loop
      vertex 5.89655 -1.9159 5
      vertex 5.0159 -3.64427 -0.5
      vertex 5.0159 -3.64427 5
    endloop
  endfacet
  facet normal 0.987688 0.156435 0
    outer loop
      vertex -5.89655 -1.9159 -5.5
      vertex -6.2 0 -8
      vertex -6.2 0 -5.5
    endloop
  endfacet
  facet normal 0.987688 0.156435 0
    outer loop
      vertex -6.2 0 -8
      vertex -5.89655 -1.9159 -5.5
      vertex -5.89655 -1.9159 -8
    endloop
  endfacet
  facet normal 0.987688 0.156435 0
    outer loop
      vertex -5.89655 -1.9159 5
      vertex -6.2 0 -0.5
      vertex -6.2 0 5
    endloop
  endfacet
  facet normal 0.987688 0.156435 0
    outer loop
      vertex -6.2 0 -0.5
      vertex -5.89655 -1.9159 5
      vertex -5.89655 -1.9159 -0.5
    endloop
  endfacet
  facet normal 0.707107 -0.707107 0
    outer loop
      vertex -5.0159 3.64427 -5.5
      vertex -3.64427 5.0159 -8
      vertex -3.64427 5.0159 -5.5
    endloop
  endfacet
  facet normal 0.707107 -0.707107 0
    outer loop
      vertex -3.64427 5.0159 -8
      vertex -5.0159 3.64427 -5.5
      vertex -5.0159 3.64427 -8
    endloop
  endfacet
  facet normal 0.707107 -0.707107 0
    outer loop
      vertex -3.86017 4.8 5
      vertex -5.0159 3.64427 5
      vertex -3.86017 4.8 2
    endloop
  endfacet
  facet normal 0.707107 -0.707107 0
    outer loop
      vertex -3.86017 4.8 2
      vertex -3.64427 5.0159 -0.5
      vertex -3.64427 5.0159 2
    endloop
  endfacet
  facet normal 0.707107 -0.707107 0
    outer loop
      vertex -5.0159 3.64427 -0.5
      vertex -3.86017 4.8 2
      vertex -5.0159 3.64427 5
    endloop
  endfacet
  facet normal 0.707107 -0.707107 0
    outer loop
      vertex -3.86017 4.8 2
      vertex -5.0159 3.64427 -0.5
      vertex -3.64427 5.0159 -0.5
    endloop
  endfacet
  facet normal 0.891006 -0.453991 0
    outer loop
      vertex -5.89655 1.9159 -5.5
      vertex -5.0159 3.64427 -8
      vertex -5.0159 3.64427 -5.5
    endloop
  endfacet
  facet normal 0.891006 -0.453991 0
    outer loop
      vertex -5.0159 3.64427 -8
      vertex -5.89655 1.9159 -5.5
      vertex -5.89655 1.9159 -8
    endloop
  endfacet
  facet normal 0.891006 -0.453991 0
    outer loop
      vertex -5.89655 1.9159 5
      vertex -5.0159 3.64427 -0.5
      vertex -5.0159 3.64427 5
    endloop
  endfacet
  facet normal 0.891006 -0.453991 0
    outer loop
      vertex -5.0159 3.64427 -0.5
      vertex -5.89655 1.9159 5
      vertex -5.89655 1.9159 -0.5
    endloop
  endfacet
  facet normal -0.987688 0.156435 0
    outer loop
      vertex 5.89655 -1.9159 -8
      vertex 6.2 0 -5.5
      vertex 6.2 0 -8
    endloop
  endfacet
  facet normal -0.987688 0.156435 0
    outer loop
      vertex 6.2 0 -5.5
      vertex 5.89655 -1.9159 -8
      vertex 5.89655 -1.9159 -5.5
    endloop
  endfacet
  facet normal -0.987688 0.156435 0
    outer loop
      vertex 5.89655 -1.9159 -0.5
      vertex 6.2 0 5
      vertex 6.2 0 -0.5
    endloop
  endfacet
  facet normal -0.987688 0.156435 0
    outer loop
      vertex 6.2 0 5
      vertex 5.89655 -1.9159 -0.5
      vertex 5.89655 -1.9159 5
    endloop
  endfacet
  facet normal -0.156435 0.987688 0
    outer loop
      vertex 1.9159 -5.89655 -8
      vertex 0 -6.2 -5.5
      vertex 1.9159 -5.89655 -5.5
    endloop
  endfacet
  facet normal -0.156435 0.987688 0
    outer loop
      vertex 0 -6.2 -5.5
      vertex 1.9159 -5.89655 -8
      vertex 0 -6.2 -8
    endloop
  endfacet
  facet normal -0.156435 0.987688 0
    outer loop
      vertex 1.9159 -5.89655 -0.5
      vertex 0 -6.2 2
      vertex 1.9159 -5.89655 2
    endloop
  endfacet
  facet normal -0.156435 0.987688 0
    outer loop
      vertex 0 -6.2 2
      vertex 1.9159 -5.89655 -0.5
      vertex 0 -6.2 -0.5
    endloop
  endfacet
  facet normal 0.707107 0.707107 0
    outer loop
      vertex -3.64427 -5.0159 -5.5
      vertex -5.0159 -3.64427 -8
      vertex -5.0159 -3.64427 -5.5
    endloop
  endfacet
  facet normal 0.707107 0.707107 0
    outer loop
      vertex -5.0159 -3.64427 -8
      vertex -3.64427 -5.0159 -5.5
      vertex -3.64427 -5.0159 -8
    endloop
  endfacet
  facet normal 0.707107 0.707107 -0
    outer loop
      vertex -3.86017 -4.8 2
      vertex -5.0159 -3.64427 5
      vertex -3.86017 -4.8 5
    endloop
  endfacet
  facet normal 0.707107 0.707107 0
    outer loop
      vertex -5.0159 -3.64427 5
      vertex -3.86017 -4.8 2
      vertex -5.0159 -3.64427 -0.5
    endloop
  endfacet
  facet normal 0.707107 0.707107 -0
    outer loop
      vertex -3.64427 -5.0159 -0.5
      vertex -3.86017 -4.8 2
      vertex -3.64427 -5.0159 2
    endloop
  endfacet
  facet normal 0.707107 0.707107 0
    outer loop
      vertex -3.86017 -4.8 2
      vertex -3.64427 -5.0159 -0.5
      vertex -5.0159 -3.64427 -0.5
    endloop
  endfacet
  facet normal 0.891006 0.453991 0
    outer loop
      vertex -5.0159 -3.64427 -5.5
      vertex -5.89655 -1.9159 -8
      vertex -5.89655 -1.9159 -5.5
    endloop
  endfacet
  facet normal 0.891006 0.453991 0
    outer loop
      vertex -5.89655 -1.9159 -8
      vertex -5.0159 -3.64427 -5.5
      vertex -5.0159 -3.64427 -8
    endloop
  endfacet
  facet normal 0.891006 0.453991 0
    outer loop
      vertex -5.0159 -3.64427 5
      vertex -5.89655 -1.9159 -0.5
      vertex -5.89655 -1.9159 5
    endloop
  endfacet
  facet normal 0.891006 0.453991 0
    outer loop
      vertex -5.89655 -1.9159 -0.5
      vertex -5.0159 -3.64427 5
      vertex -5.0159 -3.64427 -0.5
    endloop
  endfacet
  facet normal -0.453991 0.891006 0
    outer loop
      vertex 3.64427 -5.0159 -8
      vertex 1.9159 -5.89655 -5.5
      vertex 3.64427 -5.0159 -5.5
    endloop
  endfacet
  facet normal -0.453991 0.891006 0
    outer loop
      vertex 1.9159 -5.89655 -5.5
      vertex 3.64427 -5.0159 -8
      vertex 1.9159 -5.89655 -8
    endloop
  endfacet
  facet normal -0.453991 0.891006 0
    outer loop
      vertex 3.64427 -5.0159 -0.5
      vertex 1.9159 -5.89655 2
      vertex 3.64427 -5.0159 2
    endloop
  endfacet
  facet normal -0.453991 0.891006 0
    outer loop
      vertex 1.9159 -5.89655 2
      vertex 3.64427 -5.0159 -0.5
      vertex 1.9159 -5.89655 -0.5
    endloop
  endfacet
  facet normal -0.707107 0.707107 0
    outer loop
      vertex 3.64427 -5.0159 -8
      vertex 5.0159 -3.64427 -5.5
      vertex 5.0159 -3.64427 -8
    endloop
  endfacet
  facet normal -0.707107 0.707107 0
    outer loop
      vertex 5.0159 -3.64427 -5.5
      vertex 3.64427 -5.0159 -8
      vertex 3.64427 -5.0159 -5.5
    endloop
  endfacet
  facet normal -0.707107 0.707107 0
    outer loop
      vertex 5.0159 -3.64427 -0.5
      vertex 3.86017 -4.8 2
      vertex 5.0159 -3.64427 5
    endloop
  endfacet
  facet normal -0.707107 0.707107 0
    outer loop
      vertex 3.64427 -5.0159 -0.5
      vertex 3.86017 -4.8 2
      vertex 5.0159 -3.64427 -0.5
    endloop
  endfacet
  facet normal -0.707107 0.707107 0
    outer loop
      vertex 3.86017 -4.8 2
      vertex 3.64427 -5.0159 -0.5
      vertex 3.64427 -5.0159 2
    endloop
  endfacet
  facet normal -0.707107 0.707107 0
    outer loop
      vertex 5.0159 -3.64427 5
      vertex 3.86017 -4.8 2
      vertex 3.86017 -4.8 5
    endloop
  endfacet
  facet normal 0.453991 0.891006 -0
    outer loop
      vertex -1.9159 -5.89655 -8
      vertex -3.64427 -5.0159 -5.5
      vertex -1.9159 -5.89655 -5.5
    endloop
  endfacet
  facet normal 0.453991 0.891006 0
    outer loop
      vertex -3.64427 -5.0159 -5.5
      vertex -1.9159 -5.89655 -8
      vertex -3.64427 -5.0159 -8
    endloop
  endfacet
  facet normal 0.453991 0.891006 -0
    outer loop
      vertex -1.9159 -5.89655 -0.5
      vertex -3.64427 -5.0159 2
      vertex -1.9159 -5.89655 2
    endloop
  endfacet
  facet normal 0.453991 0.891006 0
    outer loop
      vertex -3.64427 -5.0159 2
      vertex -1.9159 -5.89655 -0.5
      vertex -3.64427 -5.0159 -0.5
    endloop
  endfacet
  facet normal 0 0 -1
    outer loop
      vertex 20 -12.5 -0.5
      vertex 6.2 0 -0.5
      vertex 20 12.5 -0.5
    endloop
  endfacet
  facet normal 0 0 -1
    outer loop
      vertex 20 -12.5 -0.5
      vertex 5.89655 -1.9159 -0.5
      vertex 6.2 0 -0.5
    endloop
  endfacet
  facet normal 0 0 -1
    outer loop
      vertex 20 -12.5 -0.5
      vertex 5.0159 -3.64427 -0.5
      vertex 5.89655 -1.9159 -0.5
    endloop
  endfacet
  facet normal 0 0 -1
    outer loop
      vertex 20 -12.5 -0.5
      vertex 3.64427 -5.0159 -0.5
      vertex 5.0159 -3.64427 -0.5
    endloop
  endfacet
  facet normal 0 0 -1
    outer loop
      vertex 20 -12.5 -0.5
      vertex 1.9159 -5.89655 -0.5
      vertex 3.64427 -5.0159 -0.5
    endloop
  endfacet
  facet normal 0 0 -1
    outer loop
      vertex 20 -12.5 -0.5
      vertex 0 -6.2 -0.5
      vertex 1.9159 -5.89655 -0.5
    endloop
  endfacet
  facet normal 0 0 -1
    outer loop
      vertex -20 -12.5 -0.5
      vertex 0 -6.2 -0.5
      vertex 20 -12.5 -0.5
    endloop
  endfacet
  facet normal -0 0 -1
    outer loop
      vertex -5.89655 -1.9159 -0.5
      vertex -20 -12.5 -0.5
      vertex -6.2 0 -0.5
    endloop
  endfacet
  facet normal -0 0 -1
    outer loop
      vertex -5.0159 -3.64427 -0.5
      vertex -20 -12.5 -0.5
      vertex -5.89655 -1.9159 -0.5
    endloop
  endfacet
  facet normal -0 0 -1
    outer loop
      vertex -3.64427 -5.0159 -0.5
      vertex -20 -12.5 -0.5
      vertex -5.0159 -3.64427 -0.5
    endloop
  endfacet
  facet normal -0 0 -1
    outer loop
      vertex -1.9159 -5.89655 -0.5
      vertex -20 -12.5 -0.5
      vertex -3.64427 -5.0159 -0.5
    endloop
  endfacet
  facet normal -0 0 -1
    outer loop
      vertex 0 -6.2 -0.5
      vertex -20 -12.5 -0.5
      vertex -1.9159 -5.89655 -0.5
    endloop
  endfacet
  facet normal 0 0 -1
    outer loop
      vertex 5.89655 1.9159 -0.5
      vertex 20 12.5 -0.5
      vertex 6.2 0 -0.5
    endloop
  endfacet
  facet normal 0 0 -1
    outer loop
      vertex 5.0159 3.64427 -0.5
      vertex 20 12.5 -0.5
      vertex 5.89655 1.9159 -0.5
    endloop
  endfacet
  facet normal 0 0 -1
    outer loop
      vertex 3.64427 5.0159 -0.5
      vertex 20 12.5 -0.5
      vertex 5.0159 3.64427 -0.5
    endloop
  endfacet
  facet normal 0 0 -1
    outer loop
      vertex 1.9159 5.89655 -0.5
      vertex 20 12.5 -0.5
      vertex 3.64427 5.0159 -0.5
    endloop
  endfacet
  facet normal 0 0 -1
    outer loop
      vertex 0 6.2 -0.5
      vertex 20 12.5 -0.5
      vertex 1.9159 5.89655 -0.5
    endloop
  endfacet
  facet normal 0 0 -1
    outer loop
      vertex -20 12.5 -0.5
      vertex 0 6.2 -0.5
      vertex -1.9159 5.89655 -0.5
    endloop
  endfacet
  facet normal 0 0 -1
    outer loop
      vertex -20 12.5 -0.5
      vertex -6.2 0 -0.5
      vertex -20 -12.5 -0.5
    endloop
  endfacet
  facet normal 0 0 -1
    outer loop
      vertex -6.2 0 -0.5
      vertex -20 12.5 -0.5
      vertex -5.89655 1.9159 -0.5
    endloop
  endfacet
  facet normal 0 0 -1
    outer loop
      vertex 0 6.2 -0.5
      vertex -20 12.5 -0.5
      vertex 20 12.5 -0.5
    endloop
  endfacet
  facet normal 0 0 -1
    outer loop
      vertex -3.64427 5.0159 -0.5
      vertex -20 12.5 -0.5
      vertex -1.9159 5.89655 -0.5
    endloop
  endfacet
  facet normal 0 0 -1
    outer loop
      vertex -5.0159 3.64427 -0.5
      vertex -20 12.5 -0.5
      vertex -3.64427 5.0159 -0.5
    endloop
  endfacet
  facet normal 0 0 -1
    outer loop
      vertex -5.89655 1.9159 -0.5
      vertex -20 12.5 -0.5
      vertex -5.0159 3.64427 -0.5
    endloop
  endfacet
  facet normal 0 -1 0
    outer loop
      vertex -20 12.5 -5.5
      vertex 20 12.5 -0.5
      vertex -20 12.5 -0.5
    endloop
  endfacet
  facet normal 0 -1 -0
    outer loop
      vertex 20 12.5 -0.5
      vertex -20 12.5 -5.5
      vertex 20 12.5 -5.5
    endloop
  endfacet
  facet normal 0 0 1
    outer loop
      vertex 20 12.5 -5.5
      vertex 6.2 0 -5.5
      vertex 20 -12.5 -5.5
    endloop
  endfacet
  facet normal 0 0 1
    outer loop
      vertex 20 12.5 -5.5
      vertex 5.89655 1.9159 -5.5
      vertex 6.2 0 -5.5
    endloop
  endfacet
  facet normal 0 0 1
    outer loop
      vertex 20 12.5 -5.5
      vertex 5.0159 3.64427 -5.5
      vertex 5.89655 1.9159 -5.5
    endloop
  endfacet
  facet normal 0 0 1
    outer loop
      vertex 20 12.5 -5.5
      vertex 3.64427 5.0159 -5.5
      vertex 5.0159 3.64427 -5.5
    endloop
  endfacet
  facet normal 0 0 1
    outer loop
      vertex 20 12.5 -5.5
      vertex 1.9159 5.89655 -5.5
      vertex 3.64427 5.0159 -5.5
    endloop
  endfacet
  facet normal 0 0 1
    outer loop
      vertex 20 12.5 -5.5
      vertex 0 6.2 -5.5
      vertex 1.9159 5.89655 -5.5
    endloop
  endfacet
  facet normal -0 0 1
    outer loop
      vertex -20 12.5 -5.5
      vertex 0 6.2 -5.5
      vertex 20 12.5 -5.5
    endloop
  endfacet
  facet normal 0 0 1
    outer loop
      vertex -5.89655 1.9159 -5.5
      vertex -20 12.5 -5.5
      vertex -6.2 0 -5.5
    endloop
  endfacet
  facet normal 0 0 1
    outer loop
      vertex -5.0159 3.64427 -5.5
      vertex -20 12.5 -5.5
      vertex -5.89655 1.9159 -5.5
    endloop
  endfacet
  facet normal 0 0 1
    outer loop
      vertex -3.64427 5.0159 -5.5
      vertex -20 12.5 -5.5
      vertex -5.0159 3.64427 -5.5
    endloop
  endfacet
  facet normal 0 0 1
    outer loop
      vertex -1.9159 5.89655 -5.5
      vertex -20 12.5 -5.5
      vertex -3.64427 5.0159 -5.5
    endloop
  endfacet
  facet normal 0 0 1
    outer loop
      vertex 0 6.2 -5.5
      vertex -20 12.5 -5.5
      vertex -1.9159 5.89655 -5.5
    endloop
  endfacet
  facet normal -0 0 1
    outer loop
      vertex 5.89655 -1.9159 -5.5
      vertex 20 -12.5 -5.5
      vertex 6.2 0 -5.5
    endloop
  endfacet
  facet normal -0 0 1
    outer loop
      vertex 5.0159 -3.64427 -5.5
      vertex 20 -12.5 -5.5
      vertex 5.89655 -1.9159 -5.5
    endloop
  endfacet
  facet normal -0 0 1
    outer loop
      vertex 3.64427 -5.0159 -5.5
      vertex 20 -12.5 -5.5
      vertex 5.0159 -3.64427 -5.5
    endloop
  endfacet
  facet normal -0 0 1
    outer loop
      vertex 1.9159 -5.89655 -5.5
      vertex 20 -12.5 -5.5
      vertex 3.64427 -5.0159 -5.5
    endloop
  endfacet
  facet normal -0 0 1
    outer loop
      vertex 0 -6.2 -5.5
      vertex 20 -12.5 -5.5
      vertex 1.9159 -5.89655 -5.5
    endloop
  endfacet
  facet normal 0 0 1
    outer loop
      vertex -20 -12.5 -5.5
      vertex 0 -6.2 -5.5
      vertex -1.9159 -5.89655 -5.5
    endloop
  endfacet
  facet normal 0 0 1
    outer loop
      vertex -20 -12.5 -5.5
      vertex -6.2 0 -5.5
      vertex -20 12.5 -5.5
    endloop
  endfacet
  facet normal 0 0 1
    outer loop
      vertex -6.2 0 -5.5
      vertex -20 -12.5 -5.5
      vertex -5.89655 -1.9159 -5.5
    endloop
  endfacet
  facet normal 0 0 1
    outer loop
      vertex 0 -6.2 -5.5
      vertex -20 -12.5 -5.5
      vertex 20 -12.5 -5.5
    endloop
  endfacet
  facet normal 0 0 1
    outer loop
      vertex -3.64427 -5.0159 -5.5
      vertex -20 -12.5 -5.5
      vertex -1.9159 -5.89655 -5.5
    endloop
  endfacet
  facet normal 0 0 1
    outer loop
      vertex -5.0159 -3.64427 -5.5
      vertex -20 -12.5 -5.5
      vertex -3.64427 -5.0159 -5.5
    endloop
  endfacet
  facet normal 0 0 1
    outer loop
      vertex -5.89655 -1.9159 -5.5
      vertex -20 -12.5 -5.5
      vertex -5.0159 -3.64427 -5.5
    endloop
  endfacet
  facet normal 0 1 -0
    outer loop
      vertex 20 -12.5 -5.5
      vertex -20 -12.5 -0.5
      vertex 20 -12.5 -0.5
    endloop
  endfacet
  facet normal 0 1 0
    outer loop
      vertex -20 -12.5 -0.5
      vertex 20 -12.5 -5.5
      vertex -20 -12.5 -5.5
    endloop
  endfacet
  facet normal 0 0.433884 -0.900969
    outer loop
      vertex 10 0 3
      vertex 12 1.56366 3.75302
      vertex 12 0 3
    endloop
  endfacet
  facet normal 0 0.433884 -0.900969
    outer loop
      vertex 12 1.56366 3.75302
      vertex 10 0 3
      vertex 10 1.56366 3.75302
    endloop
  endfacet
  facet normal -0 0 1
    outer loop
      vertex 10 0.867767 6.80194
      vertex 12 -0.867767 6.80194
      vertex 12 0.867767 6.80194
    endloop
  endfacet
  facet normal 0 0 1
    outer loop
      vertex 12 -0.867767 6.80194
      vertex 10 0.867767 6.80194
      vertex 10 -0.867767 6.80194
    endloop
  endfacet
  facet normal 0 0.974928 -0.222521
    outer loop
      vertex 12 1.56366 3.75302
      vertex 10 1.94986 5.44504
      vertex 12 1.94986 5.44504
    endloop
  endfacet
  facet normal 0 0.974928 -0.222521
    outer loop
      vertex 10 1.94986 5.44504
      vertex 12 1.56366 3.75302
      vertex 10 1.56366 3.75302
    endloop
  endfacet
  facet normal 1 0 0
    outer loop
      vertex 12 0.867767 6.80194
      vertex 12 1.56366 3.75302
      vertex 12 1.94986 5.44504
    endloop
  endfacet
  facet normal 1 0 0
    outer loop
      vertex 12 0.867767 6.80194
      vertex 12 0 3
      vertex 12 1.56366 3.75302
    endloop
  endfacet
  facet normal 1 -0 0
    outer loop
      vertex 12 -0.867767 6.80194
      vertex 12 0 3
      vertex 12 0.867767 6.80194
    endloop
  endfacet
  facet normal 1 0 0
    outer loop
      vertex 12 -0.867767 6.80194
      vertex 12 -1.56366 3.75302
      vertex 12 0 3
    endloop
  endfacet
  facet normal 1 0 -0
    outer loop
      vertex 12 -1.56366 3.75302
      vertex 12 -0.867767 6.80194
      vertex 12 -1.94986 5.44504
    endloop
  endfacet
  facet normal 0 0.781831 0.62349
    outer loop
      vertex 12 1.94986 5.44504
      vertex 10 0.867767 6.80194
      vertex 12 0.867767 6.80194
    endloop
  endfacet
  facet normal 0 0.781831 0.62349
    outer loop
      vertex 10 0.867767 6.80194
      vertex 12 1.94986 5.44504
      vertex 10 1.94986 5.44504
    endloop
  endfacet
  facet normal 0 -0.974928 -0.222521
    outer loop
      vertex 10 -1.56366 3.75302
      vertex 12 -1.94986 5.44504
      vertex 10 -1.94986 5.44504
    endloop
  endfacet
  facet normal 0 -0.974928 -0.222521
    outer loop
      vertex 12 -1.94986 5.44504
      vertex 10 -1.56366 3.75302
      vertex 12 -1.56366 3.75302
    endloop
  endfacet
  facet normal 0 -0.781831 0.62349
    outer loop
      vertex 10 -1.94986 5.44504
      vertex 12 -0.867767 6.80194
      vertex 10 -0.867767 6.80194
    endloop
  endfacet
  facet normal 0 -0.781831 0.62349
    outer loop
      vertex 12 -0.867767 6.80194
      vertex 10 -1.94986 5.44504
      vertex 12 -1.94986 5.44504
    endloop
  endfacet
  facet normal 0 -0.433884 -0.900969
    outer loop
      vertex 10 -1.56366 3.75302
      vertex 12 0 3
      vertex 12 -1.56366 3.75302
    endloop
  endfacet
  facet normal -0 -0.433884 -0.900969
    outer loop
      vertex 12 0 3
      vertex 10 -1.56366 3.75302
      vertex 10 0 3
    endloop
  endfacet
endsolid OpenSCAD_Model
